<?xml version="1.0" encoding="iso-8859-1"?>
<!-- Generator: Adobe Illustrator 19.0.0, SVG Export Plug-In . SVG Version: 6.00 Build 0)  -->
<svg version="1.1" id="Capa_1" xmlns="http://www.w3.org/2000/svg" xmlns:xlink="http://www.w3.org/1999/xlink" x="0px" y="0px"
	 viewBox="0 0 512 512" style="enable-background:new 0 0 512 512;" xml:space="preserve">
<g transform="matrix(1.25 0 0 -1.25 0 45)">
	<g>
		<g>
			<g>
				<path style="fill:#C60C30;" d="M364.089-20.889H170.667v-125.156H409.6V-66.4C409.6-41.266,389.222-20.889,364.089-20.889"/>
				<path style="fill:#C60C30;" d="M170.667-316.711h193.422c25.134,0,45.511,20.378,45.511,51.2v73.956H170.667V-316.711z"/>
				<path style="fill:#C60C30;" d="M0-191.556v-73.956c0-30.822,20.378-51.2,45.511-51.2h79.644v125.156H0z"/>
				<path style="fill:#C60C30;" d="M125.156-20.889H45.511C20.378-20.889,0-41.266,0-66.4v-79.644h125.156V-20.889z"/>
			</g>
			<path style="fill:#EEEEEE;" d="M170.667-20.889h-45.511v-125.156H0v-45.511h125.156v-125.156h45.511v125.156H409.6v45.511
				H170.667V-20.889z"/>
		</g>
	</g>
</g>
<g>
</g>
<g>
</g>
<g>
</g>
<g>
</g>
<g>
</g>
<g>
</g>
<g>
</g>
<g>
</g>
<g>
</g>
<g>
</g>
<g>
</g>
<g>
</g>
<g>
</g>
<g>
</g>
<g>
</g>
</svg>
