<?xml version="1.0" encoding="iso-8859-1"?>
<!-- Generator: Adobe Illustrator 19.0.0, SVG Export Plug-In . SVG Version: 6.00 Build 0)  -->
<svg version="1.1" id="Capa_1" xmlns="http://www.w3.org/2000/svg" xmlns:xlink="http://www.w3.org/1999/xlink" x="0px" y="0px"
	 viewBox="0 0 512 512" style="enable-background:new 0 0 512 512;" xml:space="preserve">
<g transform="matrix(1.25 0 0 -1.25 0 45)">
	<g>
		<g>
			<path style="fill:#0D5EB0;" d="M45.511-316.711h318.578c7.987,0,15.485,2.071,22.016,5.689H23.495
				C30.026-314.64,37.524-316.711,45.511-316.711"/>
			<g>
				<path style="fill:#EEEEEE;" d="M96.711-185.867H62.578H0v-28.444h409.6v28.444H159.289H96.711z"/>
				<path style="fill:#EEEEEE;" d="M0-271.2c0-1.934,0.159-3.823,0.398-5.689h408.804c0.239,1.866,0.398,3.755,0.398,5.689v22.756H0
					V-271.2z"/>
				<path style="fill:#EEEEEE;" d="M159.289-151.733H409.6v28.444H159.289V-151.733z"/>
				<path style="fill:#EEEEEE;" d="M159.289-60.711v-28.444H409.6V-66.4c0,1.934-0.159,3.823-0.398,5.689H159.289z"/>
			</g>
			<g>
				<path style="fill:#0D5EB0;" d="M159.289-123.289H409.6v34.133H159.289V-123.289z"/>
				<path style="fill:#0D5EB0;" d="M0-248.444h409.6v34.133H0V-248.444z"/>
				<path style="fill:#0D5EB0;" d="M23.495-311.022h362.61c12.425,6.884,21.265,19.422,23.097,34.133H0.387
					C2.23-291.6,11.071-304.139,23.495-311.022"/>
				<path style="fill:#0D5EB0;" d="M0-185.867h62.578v62.578H0V-185.867z"/>
				<path style="fill:#0D5EB0;" d="M159.289-151.733v28.444H96.711v-62.578h62.578H409.6v34.133H159.289z"/>
				<path style="fill:#0D5EB0;" d="M386.105-26.578c-6.531,3.618-14.029,5.689-22.016,5.689H45.511
					c-7.987,0-15.485-2.071-22.016-5.689C11.071-33.461,2.23-46,0.398-60.711C0.159-62.577,0-64.466,0-66.4v-22.756h62.578v62.578
					h34.133v-62.578h62.578v28.444h249.924C407.37-46,398.529-33.461,386.105-26.578"/>
			</g>
			<path style="fill:#EEEEEE;" d="M96.711-89.156v68.267H62.578v-68.267H0v-34.133h62.578v-62.578h34.133v62.578h62.578v34.133
				H96.711z"/>
		</g>
	</g>
</g>
<g>
</g>
<g>
</g>
<g>
</g>
<g>
</g>
<g>
</g>
<g>
</g>
<g>
</g>
<g>
</g>
<g>
</g>
<g>
</g>
<g>
</g>
<g>
</g>
<g>
</g>
<g>
</g>
<g>
</g>
</svg>
