<?xml version="1.0" encoding="iso-8859-1"?>
<!-- Generator: Adobe Illustrator 19.0.0, SVG Export Plug-In . SVG Version: 6.00 Build 0)  -->
<svg version="1.1" id="Capa_1" xmlns="http://www.w3.org/2000/svg" xmlns:xlink="http://www.w3.org/1999/xlink" x="0px" y="0px"
	 viewBox="0 0 512 512" style="enable-background:new 0 0 512 512;" xml:space="preserve">
<g transform="matrix(1.25 0 0 -1.25 0 45)">
	<g>
		<g>
			<path style="fill:#C60A1D;" d="M409.6-271.2c0-25.134-20.378-45.511-45.511-45.511H45.511C20.378-316.711,0-296.334,0-271.2
				v204.8c0,25.134,20.378,45.511,45.511,45.511h318.578c25.134,0,45.511-20.378,45.511-45.511V-271.2z"/>
			<path style="fill:#FFC400;" d="M409.6-237.067H0v136.533h409.6V-237.067z"/>
			<path style="fill:#EA596E;" d="M102.4-157.422v-34.133c0-18.853,15.28-34.133,34.133-34.133s34.133,15.28,34.133,34.133v34.133
				H102.4z"/>
			<path style="fill:#F4A2B2;" d="M136.533-180.178h34.133v34.133h-34.133V-180.178z"/>
			<path style="fill:#DD2E44;" d="M136.533-180.178H102.4v34.133h34.133V-180.178z"/>
			<path style="fill:#EA596E;" d="M170.667-128.978c0-9.432-15.28-17.067-34.133-17.067S102.4-138.41,102.4-128.978
				s15.28,17.067,34.133,17.067S170.667-119.546,170.667-128.978"/>
			<path style="fill:#FFAC33;" d="M170.667-120.444c0,4.71-15.28,8.533-34.133,8.533s-34.133-3.823-34.133-8.533
				c0-4.71,15.28-8.533,34.133-8.533S170.667-125.155,170.667-120.444"/>
			<g>
				<path style="fill:#99AAB5;" d="M79.644-225.689h11.378v79.644H79.644V-225.689z"/>
				<path style="fill:#99AAB5;" d="M193.422-225.689h-11.378v79.644h11.378V-225.689z"/>
			</g>
			<g>
				<path style="fill:#66757F;" d="M102.4-225.689H68.267v11.378H102.4V-225.689z"/>
				<path style="fill:#66757F;" d="M204.8-225.689h-34.133v11.378H204.8V-225.689z"/>
				<path style="fill:#66757F;" d="M91.022-146.044H79.644v11.378h11.378V-146.044z"/>
				<path style="fill:#66757F;" d="M193.422-146.044h-11.378v11.378h11.378V-146.044z"/>
			</g>
		</g>
	</g>
</g>
<g>
</g>
<g>
</g>
<g>
</g>
<g>
</g>
<g>
</g>
<g>
</g>
<g>
</g>
<g>
</g>
<g>
</g>
<g>
</g>
<g>
</g>
<g>
</g>
<g>
</g>
<g>
</g>
<g>
</g>
</svg>
