<?xml version="1.0" encoding="utf-8"?>
<!-- Generator: Adobe Illustrator 21.1.0, SVG Export Plug-In . SVG Version: 6.00 Build 0)  -->
<svg version="1.1" id="Layer_1" xmlns="http://www.w3.org/2000/svg" xmlns:xlink="http://www.w3.org/1999/xlink" x="0px" y="0px"
	 viewBox="0 0 252.7 294.4" style="enable-background:new 0 0 252.7 294.4;" xml:space="preserve">
<g>
	<g transform="translate(0.000000,511.000000) scale(0.100000,-0.100000)">
		<path d="M122.8,3996.1V2882.2h131.9h131.9v1113.9V5110H254.7H122.8V3996.1z"/>
		<path d="M1884.1,4050.1c154.6-139.3,256.5-270.6,315.5-404.4c96.3-220.9,71.8-373.1-75.5-471.9
			c-115.4-76.1-249.2-104.3-379.3-79.8c-42.3,8-136.9,33.1-163.9,43.6c-8.6,3.7-9.8-8.6-9.8-128.3V2878l57.1-16.6
			c164.5-46.7,335.1-43.6,502,8c183.5,57.1,312.4,180.4,366.4,350.4c55.2,171.9,35,324.7-69.3,532.1
			c-58.9,116-111.7,190.2-198.2,276.2l-68.7,69.4h-164.5H1832L1884.1,4050.1z"/>
		<path d="M964.2,3203.2c-39.3-14.1-81.6-58.9-98.8-103.7c-11.1-29.5-12.9-44.8-11.1-82.3c4.3-71.8,35.6-122.1,93.3-150.4
			c71.8-35,142.4-24.5,197,29.4c20.9,21.5,35,42.4,41.7,62c12.9,38,13.5,103.1,0.6,140.5c-11.7,35-50.9,80.4-84.7,97.6
			C1068.5,3213.6,1001.6,3217.3,964.2,3203.2z"/>
		<path d="M240.6,2790.2C114.2,2773,36.8,2711,12.3,2606.7c-11.7-48.5-5.5-143,11.7-181.7c15.4-34.4,43.6-66.9,71.2-81.6l18.4-9.2
			l-33.8-8.6c-18.4-4.9-44.2-11.7-56.5-14.7L0,2304.7v-70.6c0-64.4,1.2-70.6,11.1-67.5c5.5,1.8,109.9,25.2,231.4,52.8
			c121.5,27,227.1,50.3,235,52.2c12.9,3.1,13.5,5.5,13.5,73.7c0,52.2-1.8,70.6-7.4,70.6c-4.3,0-34.4-5.5-66.3-12.3
			c-106.8-22.1-175.5-12.9-228.9,31.3c-61.4,50.9-65.7,135-9.2,187.8c22.7,20.9,46.7,27,109.2,27.6c61.4,0.6,114.8-10.4,152.2-31.9
			l19.6-11.7v70c0,65.7-0.6,70.6-13.5,79.8C408.8,2782.8,310,2799.4,240.6,2790.2z"/>
	</g>
</g>
</svg>
