<?xml version="1.0" encoding="utf-8"?>
<!-- Generator: Adobe Illustrator 21.1.0, SVG Export Plug-In . SVG Version: 6.00 Build 0)  -->
<svg version="1.1" id="Capa_1" xmlns="http://www.w3.org/2000/svg" xmlns:xlink="http://www.w3.org/1999/xlink" x="0px" y="0px"
	 viewBox="0 0 701.2 386.5" style="enable-background:new 0 0 701.2 386.5;" xml:space="preserve">
<path d="M0.9,50.3h41v251.3h155.4v35.7H0.9V50.3z M431.4,241.8H255.1c2.5,19.1,10.9,34.5,25.2,46.1c14.3,11.6,32.2,17.4,53.5,17.4
	c26,0,46.9-8.7,62.7-26.2l21.7,25.4c-9.8,11.5-22.1,20.2-36.7,26.2c-14.6,6-31,9-49,9c-23,0-43.3-4.7-61.1-14.1
	c-17.8-9.4-31.5-22.6-41.2-39.6c-9.7-16.9-14.6-36.1-14.6-57.4c0-21,4.7-40,14.1-57c9.4-16.9,22.4-30.1,39-39.6
	c16.5-9.4,35.2-14.1,56-14.1c20.8,0,39.3,4.7,55.6,14.1c16.3,9.4,29,22.6,38.1,39.6c9.2,17,13.7,36.4,13.7,58.2
	C432.2,232.9,431.9,236.8,431.4,241.8z M277.4,168.4c-12.7,11.5-20.2,26.5-22.3,45.1h139.4c-2.2-18.3-9.6-33.3-22.3-44.9
	c-12.7-11.6-28.5-17.4-47.4-17.4C305.9,151.1,290.1,156.9,277.4,168.4z M571.2,236l-45.1,41.8v59.5h-39.4V33.1h39.4v195.2L644.6,120
	h47.6l-91.4,89.8l100.5,127.5h-48.4L571.2,236z"/>
</svg>
