<?xml version="1.0" encoding="utf-8"?>
<!-- Generator: Adobe Illustrator 21.1.0, SVG Export Plug-In . SVG Version: 6.00 Build 0)  -->
<svg version="1.1" id="Layer_1" xmlns="http://www.w3.org/2000/svg" xmlns:xlink="http://www.w3.org/1999/xlink" x="0px" y="0px"
	 viewBox="0 0 156.6 287.3" style="enable-background:new 0 0 156.6 287.3;" xml:space="preserve">
<path id="XMLID_352_" d="M143.5,165.3h-13.1v-26.1h13.1c7.2,0,13.1-5.8,13.1-13.1s-5.8-13.1-13.1-13.1h-13.1V65.2
	c0-36-29.3-65.2-65.2-65.2S0,29.3,0,65.3c0,7.2,5.8,13.1,13.1,13.1s13.1-5.8,13.1-13.1c0-21.6,17.5-39.1,39.1-39.1
	s39.1,17.5,39.1,39.1v47.8H39.1c-7.2,0-13.1,5.8-13.1,13.1c0,7.2,5.8,13.1,13.1,13.1h65.2v26.1H39.1c-7.2,0-13.1,5.8-13.1,13.1
	c0,7.2,5.8,13.1,13.1,13.1h65.2v82.6c0,7.2,5.8,13.1,13.1,13.1c7.2,0,13.1-5.8,13.1-13.1v-82.7h13.1c7.2,0,13.1-5.8,13.1-13.1
	C156.6,171,150.6,165.3,143.5,165.3z"/>
</svg>
