<?xml version="1.0" encoding="utf-8"?>
<!-- Generator: Adobe Illustrator 21.1.0, SVG Export Plug-In . SVG Version: 6.00 Build 0)  -->
<svg version="1.1" id="Capa_1" xmlns="http://www.w3.org/2000/svg" xmlns:xlink="http://www.w3.org/1999/xlink" x="0px" y="0px"
	 viewBox="0 0 168.5 294.6" style="enable-background:new 0 0 168.5 294.6;" xml:space="preserve">
<g>
	<path d="M136.4,0c-2.2,0-4.5,0.1-6.9,0.4c-19.2,1.9-36.3,15.6-43.3,38c-2.9,9.2-5.3,19.1-7.1,28.7l-3.6,20.2H41.1
		c-4.5,0-8.2,3.7-8.2,8.2s3.7,8.2,8.2,8.2h32.1l-8.4,69.2c-3.6,31-7.5,58.5-11.9,84.3c-2.6,15.2-10.1,23.2-23,24.3
		c2.4-3.3,3.7-7.5,3.7-11.9c0-10.5-7.5-19-16.8-19c-9.2,0-16.8,8.5-16.8,19.1c0.9,12.7,11.8,19.7,15.1,21.5c4.1,2.2,9,3.4,14.3,3.4
		c14.5,0,28.7-8.3,36.1-21c11.4-19.7,16.5-40.3,20.8-59.7c5.6-25.8,9.4-52.4,13-78.2c1.5-10.6,3-21.3,4.6-31.9h33.5
		c4.5,0,8.2-3.7,8.2-8.2s-3.7-8.2-8.2-8.2h-32.1c5.8-37.7,9.9-55.6,11.9-62.9c1.5-5.6,6-12.2,19.2-12.2c1,0,2,0,3,0.1
		c-1.6,3.5-3.3,7.4-3.3,10.1c0,9,7.3,16.2,16.2,16.2c9,0,16.2-7.3,16.2-16.2C168.5,16.6,162.6,0,136.4,0z"/>
</g>
</svg>
