<?xml version="1.0" encoding="utf-8"?>
<!-- Generator: Adobe Illustrator 21.1.0, SVG Export Plug-In . SVG Version: 6.00 Build 0)  -->
<svg version="1.1" id="Capa_1" xmlns="http://www.w3.org/2000/svg" xmlns:xlink="http://www.w3.org/1999/xlink" x="0px" y="0px"
	 viewBox="0 0 523.5 384" style="enable-background:new 0 0 523.5 384;" xml:space="preserve">
<path d="M227.7,265.3H74.1l-31.8,72.1H0L130.4,48.2h41l131.1,289.2h-43L227.7,265.3z M213.1,232.2L150.9,90.6L88.7,232.2H213.1z
	 M382.6,99.9V119h63.5v32.4h-62.9v186h-39.7v-186h-37.1V119h37.1V99.9c0-21.8,6.6-39.1,19.2-51.6S393.2,29,415.7,29
	c8.6,0,17.2,1.3,24.5,3.3c7.9,2,14.6,5.3,19.9,9.3l-11.9,30.4c-9.3-6.6-19.2-10.6-30.4-10.6C394.5,61.5,382.6,74,382.6,99.9z
	 M483.8,31h39.7v306.4h-39.7V31z"/>
</svg>
