<?xml version="1.0" encoding="utf-8"?>
<!-- Generator: Adobe Illustrator 21.1.0, SVG Export Plug-In . SVG Version: 6.00 Build 0)  -->
<svg version="1.1"
	 id="svg2" xmlns:cc="http://creativecommons.org/ns#" xmlns:dc="http://purl.org/dc/elements/1.1/" xmlns:rdf="http://www.w3.org/1999/02/22-rdf-syntax-ns#" xmlns:svg="http://www.w3.org/2000/svg"
	 xmlns="http://www.w3.org/2000/svg" xmlns:xlink="http://www.w3.org/1999/xlink" x="0px" y="0px" viewBox="0 0 287.7 386.6"
	 style="enable-background:new 0 0 287.7 386.6;" xml:space="preserve">
<path d="M253.6,274.2c0,16.2-2.5,31.2-7.6,45c-5.1,13.8-12.4,25.6-21.9,35.6c-9.5,10-21.1,17.8-34.7,23.4
	c-13.6,5.6-29.1,8.5-46.2,8.5c-1.9,0-5.1-0.8-9.5-2.1c-4.4-1.4-9.3-3.9-14.8-7.5c-5.4-3.5-11.1-8.1-16.9-13.9
	c-5.8-5.7-11.1-13-16-21.7c-4.9-8.7-8.8-19-12-30.8c-3.2-11.9-4.7-25.5-4.7-41.1V158.7H0v-29.8h69.2V48.3L68,48
	c-3.5,2.3-7.2,3.4-11.1,3.4c-2.8,0-5.6-0.6-8.3-1.8c-2.7-1.3-5.2-2.8-7.3-4.9c-2.1-2-3.9-4.4-5.2-7.2c-1.3-2.8-1.9-5.8-1.9-9
	c0-3,0.6-6.2,1.9-9.5c1.3-3.4,3.3-6.4,5.9-9.3c2.7-2.8,5.9-5.2,9.7-6.9C55.6,1,60,0,65.2,0c7.1,0,12.9,1.8,17.7,5.3
	c4.7,3.5,8.6,8.1,11.6,13.8c3,5.7,5.1,12.1,6.4,19.3c1.3,7.2,1.9,14.4,1.9,21.7v68.7h184.8v29.8H102.6v110.8c0,10.5,0.9,20,2.8,28.2
	c1.8,8.2,4.2,15.5,7.1,21.9c2.9,6.3,6.1,11.7,9.6,16.2s6.9,8,10.4,10.9c3.4,2.8,6.4,4.9,9.3,6.2c2.8,1.3,5.1,1.9,6.4,1.9
	c8.2,0,16.8-1.9,25.6-5.7s16.9-9.1,24-15.9c7.2-6.8,13.1-15,17.7-24.5c4.5-9.5,6.9-20.1,6.9-31.7c0-5.7-0.6-11.4-1.8-17.2
	c-1.3-5.8-3.2-11.9-5.9-18.2c-2.8,3.9-6.1,7.3-9.5,10.4c-3.5,3-7.2,5.4-11.1,7.5c-3.9,2-7.8,3.5-11.9,4.5c-4,1-7.8,1.5-11.5,1.5
	c-4.4,0-8.5-0.8-11.9-2.3s-6.3-3.5-8.6-6.1c-2.3-2.5-4-5.6-5.2-8.8c-1.1-3.3-1.8-6.8-1.8-10.5c0-6.6,1.4-12.6,4-17.8
	c2.7-5.3,6.3-9.7,10.7-13.5c4.4-3.7,9.5-6.6,15.2-8.5c5.7-2,11.5-2.9,17.4-2.9c10.5,0,19.7,2.3,27.5,6.8
	c7.8,4.5,14.3,10.5,19.5,17.9c5.2,7.5,9,15.9,11.6,25.5C252.3,254.6,253.6,264.2,253.6,274.2z"/>
</svg>
