<?xml version="1.0" encoding="utf-8"?>
<!-- Generator: Adobe Illustrator 21.1.0, SVG Export Plug-In . SVG Version: 6.00 Build 0)  -->
<svg version="1.1" id="Layer_1" xmlns="http://www.w3.org/2000/svg" xmlns:xlink="http://www.w3.org/1999/xlink" x="0px" y="0px"
	 viewBox="0 0 650.5 387" style="enable-background:new 0 0 650.5 387;" xml:space="preserve">
<path d="M296.1,67.7v289h-52.3V113.5H119.4l-3.3,64.3c-1.8,38.9-5.3,71.3-10.4,97.3c-5.1,26-13.5,46.8-25.1,62.4
	c-11.6,15.6-27.8,23.4-48.5,23.4c-9.5,0-20.2-1.6-32.2-4.9L3.3,312c4.7,1.1,9.1,1.6,13.1,1.6c14.5,0,25.4-6.4,32.7-19.1
	c7.3-12.7,12-27.8,14.2-45.3c2.2-17.4,4.2-42.3,6-74.7l4.9-106.9C74.2,67.7,296.1,67.7,296.1,67.7z M650.5,277.1
	c0,25.4-9.5,45.1-28.6,58.9c-19.1,13.8-47.5,20.7-85.3,20.7h-139v-289h134.1c34.2,0,60.9,6.5,80.2,19.4
	c19.3,12.9,28.9,31.2,28.9,54.8c0,15.3-4.1,28.4-12.3,39.5c-8.2,11.1-19.5,19.5-34.1,25.4C631.8,216.2,650.5,239.6,650.5,277.1z
	 M448.7,192h78.5c20,0,35.2-3.6,45.5-10.9c10.4-7.3,15.5-17.8,15.5-31.6c0-27.6-20.4-41.4-61.1-41.4h-78.5V192z M581.8,306
	c10.9-6.9,16.4-17.6,16.4-32.2c0-14.9-5-26-15-33.3c-10-7.3-25.7-10.9-47.2-10.9h-87.2v86.7h84C554.5,316.3,570.9,312.9,581.8,306z"
	/>
</svg>
