<?xml version="1.0" encoding="utf-8"?>
<!-- Generator: Adobe Illustrator 21.1.0, SVG Export Plug-In . SVG Version: 6.00 Build 0)  -->
<svg version="1.1" id="Layer_1" xmlns="http://www.w3.org/2000/svg" xmlns:xlink="http://www.w3.org/1999/xlink" x="0px" y="0px"
	 viewBox="0 0 586 385" style="enable-background:new 0 0 586 385;" xml:space="preserve">
<g>
	<path d="M233.5,212.4c9.6,12.2,14.4,27.5,14.4,46.1c0,24.9-9.4,44-28.1,57.4c-18.7,13.4-46,20.1-81.8,20.1H1V49h128.7
		c32.8,0,58.1,6.6,76.1,19.7c17.9,13.1,26.9,31.3,26.9,54.5c0,15-3.5,28-10.5,39c-7,10.9-16.3,19.3-28.1,25
		C210.8,191.8,223.9,200.2,233.5,212.4z M42,82.2V174h84.1c21,0,37.2-3.9,48.6-11.7c11.3-7.8,17-19.2,17-34.2c0-15-5.7-26.4-17-34.2
		c-11.3-7.8-27.5-11.7-48.6-11.7H42z M188.8,291.3c11.7-7.6,17.6-19.7,17.6-36.1c0-32-23.4-48-70.1-48H42v95.5h94.3
		C159.6,302.8,177.1,299,188.8,291.3z"/>
	<path d="M311.4,49h121c30.3,0,57.3,6,80.8,18c23.5,12,41.8,28.9,54.7,50.6c13,21.7,19.5,46.7,19.5,74.8c0,28.2-6.5,53.1-19.5,74.8
		c-13,21.7-31.2,38.6-54.7,50.6c-23.5,12-50.4,18-80.8,18h-121V49z M429.9,300.3c23.2,0,43.7-4.5,61.3-13.5s31.2-21.7,40.8-37.9
		c9.6-16.3,14.4-35.1,14.4-56.4c0-21.3-4.8-40.1-14.4-56.4c-9.6-16.3-23.2-28.9-40.8-37.9s-38.1-13.5-61.3-13.5h-77.5v215.7H429.9z"
		/>
</g>
</svg>
