<?xml version="1.0" encoding="utf-8"?>
<!-- Generator: Adobe Illustrator 21.1.0, SVG Export Plug-In . SVG Version: 6.00 Build 0)  -->
<svg version="1.1" id="Layer_1" xmlns="http://www.w3.org/2000/svg" xmlns:xlink="http://www.w3.org/1999/xlink" x="0px" y="0px"
	 viewBox="0 0 768 388" style="enable-background:new 0 0 768 388;" xml:space="preserve">
<path d="M41,76.7v100H185V212H41v116H0V41h202.5v35.7H41z M492.9,204.4c9.6,12.2,14.4,27.5,14.4,46.1c0,24.9-9.4,44-28.1,57.4
	c-18.7,13.4-46,20.1-81.8,20.1H260.4V41h128.7c32.8,0,58.1,6.6,76.1,19.7C483.1,73.8,492,92,492,115.2c0,15-3.5,28-10.5,39
	c-7,10.9-16.3,19.3-28.1,25C470.2,183.8,483.3,192.2,492.9,204.4z M301.4,74.2V166h84c21,0,37.2-3.9,48.6-11.7
	c11.3-7.8,17-19.2,17-34.2c0-15-5.7-26.4-17-34.2c-11.3-7.8-27.5-11.7-48.6-11.7H301.4z M448.2,283.3c11.7-7.6,17.6-19.7,17.6-36.1
	c0-32-23.4-48-70.1-48h-94.3v95.5h94.3C418.9,294.8,436.4,291,448.2,283.3z M767.6,110.7V328h-37.3v-32.8
	c-7.9,11.2-18.4,19.9-31.4,26c-13,6.2-27.1,9.2-42.4,9.2c-29,0-51.8-8-68.5-24c-16.7-16-25-39.6-25-70.7v-125h39.4v120.5
	c0,21.1,5.1,37,15.2,47.8c10.1,10.8,24.6,16.2,43.5,16.2c20.8,0,37.2-6.3,49.2-18.9c12-12.6,18-30.3,18-53.3V110.7H767.6z"/>
</svg>
