<?xml version="1.0" encoding="utf-8"?>
<!-- Generator: Adobe Illustrator 21.1.0, SVG Export Plug-In . SVG Version: 6.00 Build 0)  -->
<svg version="1.1" id="Capa_1" xmlns="http://www.w3.org/2000/svg" xmlns:xlink="http://www.w3.org/1999/xlink" x="0px" y="0px"
	 viewBox="0 0 506 386" style="enable-background:new 0 0 506 386;" xml:space="preserve">
<path d="M232.5,213.4c9.6,12.2,14.4,27.5,14.4,46.1c0,24.9-9.4,44-28.1,57.4c-18.7,13.4-46,20.1-81.8,20.1H0V50h128.7
	c32.8,0,58.1,6.6,76.1,19.7c17.9,13.1,26.9,31.3,26.9,54.5c0,15-3.5,28-10.5,39c-7,10.9-16.3,19.3-28.1,25
	C209.8,192.8,222.9,201.2,232.5,213.4z M41,83.2V175h84.1c21,0,37.2-3.9,48.6-11.7c11.3-7.8,17-19.2,17-34.2c0-15-5.7-26.4-17-34.2
	c-11.3-7.8-27.5-11.7-48.6-11.7H41z M187.8,292.3c11.7-7.6,17.6-19.7,17.6-36.1c0-32-23.4-48-70.1-48H41v95.5h94.3
	C158.6,303.8,176.1,300,187.8,292.3z M480.8,313.6c-16.3,15-39.8,23.8-70.7,26.2v46.3h-26.2v-46.3c-20-1.1-38.9-4.8-56.8-11.3
	c-17.9-6.4-32.2-14.6-42.8-24.4l15.2-32c9.8,9,22.3,16.5,37.3,22.3c15,5.9,30.8,9.4,47.1,10.5v-95.1c-19.1-4.6-35.1-9.7-47.8-15.2
	c-12.7-5.5-23.4-13.5-32-24.2c-8.6-10.7-12.9-24.6-12.9-41.8c0-21.6,7.9-39.9,23.6-54.9c15.7-15,38.7-23.8,69.1-26.2V0.8H410v46.3
	c15.6,0.6,30.7,3,45.3,7.4c14.6,4.4,27.3,10.3,37.9,17.6l-13.5,32.8C457.6,91,434.4,83.4,410,82v95.5c19.9,4.9,36.3,10,49.2,15.4
	c12.8,5.3,23.7,13.3,32.6,23.8c8.9,10.5,13.3,24.5,13.3,42C505.2,280.3,497,298.6,480.8,313.6z M344.9,154.5c9,6.6,22,12,38.9,16.4
	V82.4c-17.5,2.2-30.6,7.3-39.4,15.4c-8.8,8.1-13.1,17.8-13.1,29.3C331.3,138.8,335.8,148,344.9,154.5z M451.3,290.5
	c9.2-7.8,13.7-17.6,13.7-29.3c0-12-4.7-21.3-14.1-27.7c-9.4-6.4-23-12.1-40.8-17v88.1C428.4,303,442.1,298.3,451.3,290.5z"/>
</svg>
