<?xml version="1.0" encoding="utf-8"?>
<!-- Generator: Adobe Illustrator 21.1.0, SVG Export Plug-In . SVG Version: 6.00 Build 0)  -->
<svg version="1.1" id="Layer_1" xmlns="http://www.w3.org/2000/svg" xmlns:xlink="http://www.w3.org/1999/xlink" x="0px" y="0px"
	 viewBox="0 0 493 387" style="enable-background:new 0 0 493 387;" xml:space="preserve">
<g>
	<path d="M192.9,338.7L131,250.5c-7.7,0.6-13.7,0.8-18,0.8H42v87.3H1v-287H113c37.2,0,66.4,8.9,87.7,26.6c21.3,17.8,32,42.2,32,73.4
		c0,22.1-5.5,41-16.4,56.6c-10.9,15.6-26.5,26.9-46.7,34l68.1,96.4H192.9z M171.2,199.7c13.7-11.2,20.5-27.2,20.5-48
		c0-20.8-6.8-36.7-20.5-47.8c-13.7-11.1-33.5-16.6-59.5-16.6H42v129.1h69.7C137.7,216.5,157.5,210.9,171.2,199.7z"/>
	<path d="M469.5,315.3c-16.3,15-39.8,23.8-70.7,26.2v46.3h-26.2v-46.3c-20-1.1-38.9-4.8-56.8-11.3c-17.9-6.4-32.2-14.6-42.8-24.4
		l15.2-32c9.8,9,22.3,16.5,37.3,22.3c15,5.9,30.8,9.4,47.2,10.5v-95.1c-19.1-4.6-35.1-9.7-47.8-15.2c-12.7-5.5-23.4-13.5-32-24.2
		c-8.6-10.7-12.9-24.6-12.9-41.8c0-21.6,7.9-39.9,23.6-54.9c15.7-15,38.7-23.8,69.1-26.2V2.5h26.2v46.3c15.6,0.6,30.7,3,45.3,7.4
		c14.6,4.4,27.3,10.3,37.9,17.6l-13.5,32.8c-22.1-13.9-45.4-21.6-69.7-23v95.5c19.9,4.9,36.3,10,49.2,15.4
		c12.8,5.3,23.7,13.3,32.6,23.8c8.9,10.5,13.3,24.5,13.3,42C493.9,281.9,485.7,300.3,469.5,315.3z M333.6,156.2c9,6.6,22,12,39,16.4
		V84.1c-17.5,2.2-30.6,7.3-39.4,15.4c-8.8,8.1-13.1,17.8-13.1,29.3C320,140.5,324.5,149.7,333.6,156.2z M440,292.1
		c9.2-7.8,13.7-17.6,13.7-29.3c0-12-4.7-21.2-14.1-27.7c-9.4-6.4-23-12.1-40.8-17v88.1C417.1,304.6,430.8,299.9,440,292.1z"/>
</g>
</svg>
