<?xml version="1.0" encoding="utf-8"?>
<!-- Generator: Adobe Illustrator 21.1.0, SVG Export Plug-In . SVG Version: 6.00 Build 0)  -->
<svg version="1.1" id="Capa_1" xmlns="http://www.w3.org/2000/svg" xmlns:xlink="http://www.w3.org/1999/xlink" x="0px" y="0px"
	 viewBox="0 0 280.1 488.4" style="enable-background:new 0 0 280.1 488.4;" xml:space="preserve">
<path d="M249.2,396.4c-20.6,19.1-50.5,30.1-89.7,33.3v58.7h-33.3v-58.7c-25.3-1.4-49.3-6.1-72-14.3c-22.7-8.1-40.8-18.5-54.3-30.9
	l19.2-40.5c12.5,11.4,28.2,20.9,47.3,28.3c19.1,7.5,39,11.9,59.8,13.3V264.9c-24.3-5.9-44.4-12.3-60.5-19.2
	c-16.1-6.9-29.6-17.2-40.5-30.7S8.8,183.8,8.8,162c0-27.4,10-50.6,29.9-69.6c19.9-19.1,49.1-30.1,87.6-33.3V-0.1h33.3v58.7
	c19.7,0.7,38.9,3.8,57.4,9.4c18.5,5.5,34.6,13,48.1,22.3l-17.2,41.6c-28.1-17.7-57.5-27.4-88.4-29.1v121.1
	c25.3,6.2,46.1,12.7,62.4,19.5c16.3,6.8,30.1,16.8,41.3,30.1c11.3,13.3,16.9,31.1,16.9,53.3C280.1,354.1,269.8,377.4,249.2,396.4z
	 M76.9,194.8c11.4,8.3,27.9,15.3,49.4,20.8V103.3c-22.2,2.8-38.8,9.3-49.9,19.5c-11.1,10.2-16.6,22.6-16.6,37.2
	C59.8,174.8,65.5,186.4,76.9,194.8z M211.8,367c11.6-9.9,17.4-22.3,17.4-37.2c0-15.2-6-26.9-17.9-35.1c-12-8.1-29.2-15.3-51.7-21.6
	V385C182.8,382.9,200.2,376.9,211.8,367z"/>
</svg>
