<?xml version="1.0" encoding="utf-8"?>
<!-- Generator: Adobe Illustrator 21.1.0, SVG Export Plug-In . SVG Version: 6.00 Build 0)  -->
<svg version="1.1" id="Capa_1" xmlns="http://www.w3.org/2000/svg" xmlns:xlink="http://www.w3.org/1999/xlink" x="0px" y="0px"
	 viewBox="0 0 278.1 384" style="enable-background:new 0 0 278.1 384;" xml:space="preserve">
<path d="M267.2,201.9c-8.9-11.6-22.4-19.5-40.5-23.8c23-11.7,33.1-31.6,30.3-59.7c-0.9-10.2-3.7-19-8.4-26.5
	c-4.7-7.5-11.1-13.5-19.1-18c-8-4.6-16.7-8-26.1-10.4c-9.4-2.4-20.2-4.1-32.4-5.2V0h-35.6v56.7c-6.2,0-15.6,0.2-28.2,0.5V0H71.5
	v58.3c-5.1,0.2-12.6,0.2-22.4,0.2L0,58.3v37.9h25.7c11.7,0,18.6,5.2,20.6,15.7v66.4c1.5,0,2.8,0.1,3.7,0.2h-3.7v93
	c-1.2,7.9-5.7,11.8-13.4,11.8H7.2L0,325.7h46.3c2.9,0,7.2,0,12.7,0.1c5.6,0.1,9.7,0.1,12.5,0.1v59h35.6v-58.3
	c6.5,0.2,15.9,0.2,28.2,0.2v58.1H171v-59c12.6-0.6,23.9-1.8,33.7-3.5c9.8-1.7,19.2-4.4,28.1-8c8.9-3.6,16.4-8.1,22.4-13.5
	c6-5.4,11-12.3,14.9-20.6c3.9-8.3,6.4-18,7.5-28.9C279.6,230,276.1,213.5,267.2,201.9z M107.8,98.8L107.8,98.8L107.8,98.8
	c1.1,0,4.1,0,9.1-0.1c5-0.1,9.2-0.2,12.5-0.2c3.3-0.1,7.8,0.1,13.4,0.6c5.6,0.5,10.4,1.1,14.2,1.9s8.1,2,12.7,3.8
	c4.6,1.8,8.3,3.9,11.1,6.5c2.8,2.5,5.1,5.8,7.1,9.7c1.9,3.9,2.9,8.4,2.9,13.5c0,4.3-0.7,8.3-2.1,11.8c-1.4,3.5-3.5,6.5-6.2,8.9
	c-2.8,2.4-5.6,4.5-8.6,6.2c-2.9,1.8-6.7,3.2-11.2,4.3c-4.5,1.1-8.5,1.9-11.9,2.5c-3.4,0.6-7.6,1-12.7,1.3c-5.1,0.2-8.9,0.4-11.6,0.5
	c-2.6,0.1-6.2,0.1-10.8,0c-4.6-0.1-7.2-0.1-8-0.1L107.8,98.8C107.8,98.8,107.8,98.8,107.8,98.8L107.8,98.8L107.8,98.8z M205.1,256.3
	c-1.5,3.5-3.4,6.6-5.7,9.3c-2.3,2.6-5.4,4.9-9.1,6.9c-3.8,2-7.4,3.6-11,4.9c-3.5,1.2-7.8,2.3-12.8,3.2c-5,0.9-9.4,1.6-13.2,2
	c-3.8,0.4-8.3,0.7-13.5,0.9c-5.2,0.2-9.3,0.3-12.3,0.3c-2.9,0-6.6,0-11.1-0.1c-4.5-0.1-7.3-0.1-8.6-0.1v-78.2c1.2,0,4.9-0.1,11-0.2
	c6.1-0.2,11.1-0.2,14.9-0.2c3.9,0,9.2,0.2,16,0.7c6.8,0.5,12.5,1.2,17.1,2.1c4.6,0.9,9.7,2.4,15.2,4.3c5.5,1.9,9.9,4.3,13.3,7.1
	c3.4,2.8,6.2,6.3,8.6,10.6c2.3,4.3,3.5,9.3,3.5,14.8C207.3,248.8,206.5,252.8,205.1,256.3z"/>
</svg>
