<?xml version="1.0" encoding="utf-8"?>
<!-- Generator: Adobe Illustrator 21.1.0, SVG Export Plug-In . SVG Version: 6.00 Build 0)  -->
<svg version="1.1" id="Layer_1" xmlns="http://www.w3.org/2000/svg" xmlns:xlink="http://www.w3.org/1999/xlink" x="0px" y="0px"
	 viewBox="0 0 568.5 385" style="enable-background:new 0 0 568.5 385;" xml:space="preserve">
<path d="M0,189.2v145.2h17.3h17.2L34,232.6c-0.5-76.1-1.1-106.3-2.4-120.5c-0.9-10.4-1.3-19.4-0.8-19.9c0.5-0.6,7.6,12,15.9,27.8
	s39.1,70.5,68.5,121.5l53.4,92.8h18.7h18.8V189.2V44h-17.3h-17.3l0.6,98c0.5,70.4,1.1,104.6,2.4,121.2c0.9,12.7,1.5,23.3,1.3,23.6
	c-0.9,1.1-2.8-2.1-18.3-31.6c-8.5-16.5-39-70.5-67.5-120.3L38,44.6l-19-0.4L0,44L0,189.2L0,189.2z M280,200.1
	c0.4,78.3,0.5,80.6,3,90.3c8.1,30.5,23.8,45,52.5,48.7c25.7,3.2,47.6-5.3,69.7-26.8c6.3-6.2,11.7-11.1,12.1-11.1
	c0.4,0,1.1,5,1.5,10.9c0.5,6,1.1,13.5,1.5,16.6l0.7,5.7h14.6h14.7V227.1V119.8h-17.8h-17.8v76.4v76.3L404,283.8
	c-17.4,18.4-29.3,24.4-47,24.4c-22.4,0-33.9-9.6-38.7-32.6c-1.4-6.8-1.8-21.6-1.8-82.1v-73.7h-18.5h-18.4L280,200.1z M533.2,285.9
	c-16.9,6.8-22.4,32-9.7,45.3c7.8,8.3,20.9,10.8,30.5,5.9c24.9-12.8,15.9-52.6-11.9-52.4C538.9,284.7,534.9,285.3,533.2,285.9z"/>
</svg>
