<?xml version="1.0" encoding="utf-8"?>
<!-- Generator: Adobe Illustrator 21.1.0, SVG Export Plug-In . SVG Version: 6.00 Build 0)  -->
<svg version="1.1" id="Capa_1" xmlns="http://www.w3.org/2000/svg" xmlns:xlink="http://www.w3.org/1999/xlink" x="0px" y="0px"
	 viewBox="0 0 241.1 386" style="enable-background:new 0 0 241.1 386;" xml:space="preserve">
<g>
	<path d="M206.6,33.7C182.8,12.2,146.5,1.3,98.9,1.3L7.5,0.6C5.9,0.7,4,1.3,2.8,2.5C1.6,3.7,0.9,5.4,0.9,7.2v372.3
		c0,3.6,2.9,6.6,6.6,6.6H55c3.6,0,6.6-2.9,6.6-6.6V239.7c10.2,1.6,21.2,1.8,31.7,1.8c50,0,91.7-15.1,117.4-42.5
		c20.1-20.7,30.3-48.8,30.3-83.4C241.1,82,228.8,52.8,206.6,33.7z M94.4,190.1c-13.5,0-24.3-0.8-32.8-2.5V52.1l38.3,0.1
		c30,0,80.5,8.5,80.5,65.7C180.3,163.8,149,190.1,94.4,190.1z"/>
</g>
</svg>
