<?xml version="1.0" encoding="utf-8"?>
<!-- Generator: Adobe Illustrator 21.1.0, SVG Export Plug-In . SVG Version: 6.00 Build 0)  -->
<svg version="1.1" id="Layer_1" xmlns="http://www.w3.org/2000/svg" xmlns:xlink="http://www.w3.org/1999/xlink" x="0px" y="0px"
	 viewBox="0 0 514 385.8" style="enable-background:new 0 0 514 385.8;" xml:space="preserve">
<style type="text/css">
	.st0{enable-background:new    ;}
</style>
<g class="st0">
	<path d="M74.8,320.4c-23.1-12.7-41.2-30.2-54.3-52.5C7.3,245.7,0.8,220.6,0.8,192.7s6.6-53,19.7-75.2C33.6,95.2,51.7,77.7,75,65
		c23.2-12.7,49.2-19.1,77.9-19.1c22.4,0,42.9,3.8,61.5,11.3s34.4,18.7,47.6,33.4l-26.7,25.8c-21.6-22.7-48.5-34-80.8-34
		c-21.3,0-40.6,4.8-57.8,14.3c-17.2,9.6-30.7,22.8-40.4,39.6s-14.6,35.6-14.6,56.4s4.8,39.6,14.6,56.4c9.7,16.8,23.2,30,40.4,39.6
		s36.5,14.3,57.8,14.3c32,0,58.9-11.5,80.8-34.4l26.7,25.8c-13.1,14.8-29,26-47.8,33.6c-18.7,7.7-39.3,11.5-61.7,11.5
		C123.8,339.5,97.9,333.1,74.8,320.4z"/>
	<path d="M489.7,312.8c-16.3,15-39.8,23.8-70.7,26.2v46.3h-26.2V339c-20-1.1-38.9-4.8-56.8-11.3c-17.9-6.4-32.2-14.6-42.8-24.4
		l15.2-32c9.8,9,22.3,16.5,37.3,22.3c15,5.9,30.8,9.4,47.1,10.5V209c-19.1-4.6-35.1-9.7-47.8-15.2c-12.7-5.5-23.4-13.5-32-24.2
		s-12.9-24.6-12.9-41.8c0-21.6,7.9-39.9,23.6-54.9s38.7-23.8,69.1-26.2V0H419v46.3c15.6,0.6,30.7,3,45.3,7.4
		c14.6,4.4,27.3,10.3,37.9,17.6l-13.5,32.8c-22.1-13.9-45.4-21.6-69.7-23v95.5c19.9,4.9,36.3,10,49.2,15.4
		c12.8,5.3,23.7,13.3,32.6,23.8s13.3,24.5,13.3,42C514.1,279.5,505.9,297.8,489.7,312.8z M353.8,153.8c9,6.6,22,12,39,16.4V81.6
		c-17.5,2.2-30.6,7.3-39.4,15.4s-13.1,17.8-13.1,29.3C340.2,138,344.7,147.2,353.8,153.8z M460.2,289.7c9.2-7.8,13.7-17.6,13.7-29.3
		c0-12-4.7-21.3-14.1-27.7s-23-12.1-40.8-17v88.2C437.3,302.2,451,297.5,460.2,289.7z"/>
</g>
</svg>
