<?xml version="1.0" encoding="utf-8"?>
<!-- Generator: Adobe Illustrator 21.1.0, SVG Export Plug-In . SVG Version: 6.00 Build 0)  -->
<svg version="1.1" id="Layer_1" xmlns="http://www.w3.org/2000/svg" xmlns:xlink="http://www.w3.org/1999/xlink" x="0px" y="0px"
	 viewBox="0 0 494 386" style="enable-background:new 0 0 494 386;" xml:space="preserve">
<path d="M41,85.7v100H185V221H41v116H0V50h202.5v35.7H41z M307.8,321.2c-23.1-12.7-41.2-30.2-54.3-52.5
	c-13.1-22.3-19.7-47.4-19.7-75.2s6.6-53,19.7-75.2C266.5,96,284.7,78.5,308,65.8c23.2-12.7,49.2-19.1,77.9-19.1
	c22.4,0,42.9,3.8,61.5,11.3c18.6,7.5,34.4,18.7,47.6,33.4l-26.6,25.8c-21.6-22.7-48.5-34-80.8-34c-21.3,0-40.6,4.8-57.8,14.4
	c-17.2,9.6-30.7,22.8-40.4,39.6c-9.7,16.8-14.6,35.6-14.6,56.4c0,20.8,4.8,39.6,14.6,56.4c9.7,16.8,23.2,30,40.4,39.6
	c17.2,9.6,36.5,14.4,57.8,14.4c32,0,58.9-11.5,80.8-34.4l26.6,25.8c-13.1,14.8-29,26-47.8,33.6c-18.7,7.7-39.3,11.5-61.7,11.5
	C356.7,340.3,330.8,333.9,307.8,321.2z"/>
</svg>
