<?xml version="1.0" encoding="utf-8"?>
<!-- Generator: Adobe Illustrator 21.1.0, SVG Export Plug-In . SVG Version: 6.00 Build 0)  -->
<svg version="1.1" id="Capa_1" xmlns="http://www.w3.org/2000/svg" xmlns:xlink="http://www.w3.org/1999/xlink" x="0px" y="0px"
	 viewBox="0 0 292 131.6" style="enable-background:new 0 0 292 131.6;" xml:space="preserve">
<path d="M25.3,109.4c-7.9-4.3-14.1-10.3-18.6-17.9C2.2,83.9,0,75.3,0,65.8c0-9.5,2.2-18.1,6.7-25.7c4.5-7.6,10.7-13.6,18.6-17.9
	c7.9-4.3,16.8-6.5,26.6-6.5c7.7,0,14.7,1.3,21,3.9c6.3,2.6,11.8,6.4,16.2,11.4l-9.1,8.8C72.7,32,63.5,28.1,52.5,28.1
	c-7.3,0-13.9,1.6-19.7,4.9c-5.9,3.3-10.5,7.8-13.8,13.5c-3.3,5.7-5,12.2-5,19.3c0,7.1,1.7,13.5,5,19.3c3.3,5.7,7.9,10.2,13.8,13.5
	c5.9,3.3,12.5,4.9,19.7,4.9c10.9,0,20.1-3.9,27.6-11.8l9.1,8.8c-4.5,5-9.9,8.9-16.3,11.5c-6.4,2.6-13.4,3.9-21.1,3.9
	C42,115.9,33.2,113.8,25.3,109.4z M193.5,16.8v98h-14V71.1h-56.3v43.7h-14v-98h14v42.1h56.3V16.8H193.5z M236.9,29v34.2H286v12
	h-49.1v39.6h-14v-98H292V29H236.9z"/>
</svg>
