<?xml version="1.0" encoding="utf-8"?>
<!-- Generator: Adobe Illustrator 21.1.0, SVG Export Plug-In . SVG Version: 6.00 Build 0)  -->
<svg version="1.1" id="Layer_1" xmlns="http://www.w3.org/2000/svg" xmlns:xlink="http://www.w3.org/1999/xlink" x="0px" y="0px"
	 viewBox="0 0 531 387" style="enable-background:new 0 0 531 387;" xml:space="preserve">
<style type="text/css">
	.st0{display:none;}
	.st1{display:inline;fill:none;}
</style>
<g>
	<title>background</title>
	<g id="canvasGrid" class="st0">
		<rect x="185.9" y="375" class="st1" width="300" height="160"/>
	</g>
</g>
<title>Layer 1</title>
<g>
	<path d="M33.6,308.5c-21.3-21.9-32-53.3-32-94.3V51h41v161.5c0,61.5,26.9,92.3,80.8,92.3c26.2,0,46.3-7.6,60.3-22.8
		s20.9-38.3,20.9-69.5V51h39.8v163.2c0,41.3-10.7,72.8-32,94.5s-51.1,32.6-89.4,32.6C84.7,341.3,54.9,330.4,33.6,308.5z"/>
	<path d="M369.4,86.7v100h143.9V222H369.4v116h-41V51h202.5v35.7H369.4z"/>
</g>
</svg>
