<?xml version="1.0" encoding="utf-8"?>
<!-- Generator: Adobe Illustrator 21.1.0, SVG Export Plug-In . SVG Version: 6.00 Build 0)  -->
<svg version="1.1" id="Capa_1" xmlns="http://www.w3.org/2000/svg" xmlns:xlink="http://www.w3.org/1999/xlink" x="0px" y="0px"
	 viewBox="0 0 213 384" style="enable-background:new 0 0 213 384;" xml:space="preserve">
<g>
	<path d="M188.7,313.7c-16.1,14.6-39.8,22.8-70.9,24.4v47.2H97.3v-46.7c-20-1.1-38.7-5-56.4-11.7c-17.6-6.7-31.5-15.2-41.6-25.6
		l11.9-23.4c9.6,9.3,22.1,17.1,37.5,23.4c15.4,6.3,31.6,10,48.6,11.1V204.4c-18.9-4.6-34.6-9.6-47.1-15c-12.6-5.3-23-13.1-31.4-23.4
		c-8.3-10.3-12.5-23.8-12.5-40.8c0-21,7.6-38.7,23-53.1c15.3-14.4,38-22.8,68.1-25.2V-0.2h20.5v46.7c15.6,0.6,30.7,3.1,45.3,7.6
		c14.6,4.5,27.3,10.5,37.9,17.8l-10.3,24.2c-11.2-7.1-23.1-12.7-35.7-16.8c-12.6-4.1-25-6.4-37.3-7V181c20.2,4.9,36.8,9.9,49.6,15
		c12.8,5.1,23.6,12.8,32.4,23.2c8.7,10.4,13.1,24.1,13.1,41C212.9,281.2,204.8,299,188.7,313.7z M52,156.8
		c10.5,7.4,25.6,13.7,45.3,18.9V73.2C77,74.8,61.8,80.4,51.5,89.8c-10.3,9.4-15.4,21-15.4,34.6C36.2,138.7,41.4,149.5,52,156.8z
		 M166.5,296.2c10.9-9,16.4-20.5,16.4-34.4c0-14.8-5.6-25.8-16.8-33.2c-11.2-7.4-27.3-13.7-48.4-18.9v102.5
		C139.3,310.6,155.6,305.3,166.5,296.2z"/>
</g>
</svg>
