<?xml version="1.0" encoding="utf-8"?>
<!-- Generator: Adobe Illustrator 21.1.0, SVG Export Plug-In . SVG Version: 6.00 Build 0)  -->
<svg version="1.1" id="Layer_1" xmlns="http://www.w3.org/2000/svg" xmlns:xlink="http://www.w3.org/1999/xlink" x="0px" y="0px"
	 viewBox="0 0 258.7 386" style="enable-background:new 0 0 258.7 386;" xml:space="preserve">
<g>
	<g>
		<path d="M134.5,359.7c-0.9,0-1.8,0-2.7,0C57.5,360.6,5,315.3,1.1,246.9l44.9-2.6c3,52.7,46.1,70.9,85.5,70.4l0.3,0l0.3,0
			c31.2,0.4,55.7-7,69-21c8.9-9.3,13.1-22.1,12.4-37.9c-5.8-27.8-33.9-35.8-72.9-44.1c-3.9-0.8-7.7-1.6-11.3-2.5l-1.1-0.2l-1-0.4
			c-6.8-2.3-14.5-4.2-22.7-6.2c-18.9-4.7-40.3-10-57.5-21.9c-21.9-15.2-32.9-37.8-32.6-67.3c-0.3-22.5,8.7-42.9,26-58.8
			c23-21.1,59.4-32.1,95.2-28.6c30.6,0.7,57.4,9.3,77.5,25c23.6,18.4,36.4,45,36.9,77l-45,0.7c-0.8-52.5-54.7-57.5-71.1-57.8l-1,0
			l-1-0.1c-23.3-2.4-47.3,4.2-61.1,16.9c-7.8,7.2-11.7,15.7-11.5,25.2l0,0.4l0,0.4c-0.4,28.6,15,35.1,55.9,45.2
			c8.3,2.1,16.9,4.2,25,6.8c3.1,0.7,6.3,1.4,9.7,2.1c18.6,3.9,41.6,8.8,61.6,19.5c25.9,13.9,41.6,34.7,46.5,61.9l0.2,1.3l0.1,1.3
			c1.7,29-6.8,54.3-24.7,73C211.8,347.7,177.6,359.7,134.5,359.7z"/>
	</g>
	<g>
		<path d="M178.5,386.3h-35V0h35V386.3z M126,386.3H91V0h35V386.3z"/>
	</g>
</g>
</svg>
