<?xml version="1.0" encoding="utf-8"?>
<!-- Generator: Adobe Illustrator 21.1.0, SVG Export Plug-In . SVG Version: 6.00 Build 0)  -->
<svg version="1.1" id="Layer_1" xmlns="http://www.w3.org/2000/svg" xmlns:xlink="http://www.w3.org/1999/xlink" x="0px" y="0px"
	 viewBox="0 0 381.9 384" style="enable-background:new 0 0 381.9 384;" xml:space="preserve">
<g>
	<path d="M170.4,100.4c0,40.9-31.2,74.2-69.6,74.2H34.4V0.4H0v383.1h34.4V209h66.3c38.4,0,69.6,33.3,69.6,74.2v100.2h34.4V283.2
		c0-38.3-19.1-72.1-47.9-91.4c28.8-19.4,47.9-53.1,47.9-91.4V0.4h-34.4L170.4,100.4L170.4,100.4z"/>
	<polygon points="316.6,74.5 347.6,16.3 317.2,0.1 301.8,28.9 286.1,0 255.9,16.4 287.3,74.5 	"/>
	<path d="M301.7,349.1c-25.2,0-45.7-20.5-45.7-45.7V171.5c0-25.2,20.5-45.7,45.7-45.7s45.7,20.5,45.7,45.7h34.4
		c0-44.2-36-80.1-80.1-80.1s-80.1,36-80.1,80.1v131.8c0,44.2,36,80.1,80.1,80.1s80.1-36,80.1-80.1h-34.4
		C347.4,328.5,326.9,349.1,301.7,349.1z"/>
</g>
</svg>
