<?xml version="1.0" encoding="utf-8"?>
<!-- Generator: Adobe Illustrator 21.1.0, SVG Export Plug-In . SVG Version: 6.00 Build 0)  -->
<svg version="1.1" id="Layer_1" xmlns="http://www.w3.org/2000/svg" xmlns:xlink="http://www.w3.org/1999/xlink" x="0px" y="0px"
	 viewBox="0 0 577 420" style="enable-background:new 0 0 577 420;" xml:space="preserve">
<g>
	<path d="M42,86.7v100H186V222H42v116H1V51h202.5v35.7H42z"/>
	<path d="M453.7,33.8V338H416v-34.4c-8.8,12-19.8,21.2-33.2,27.5c-13.4,6.3-28.2,9.4-44.3,9.4c-21.1,0-39.9-4.6-56.6-13.9
		c-16.7-9.3-29.7-22.3-39.2-39.2c-9.4-16.8-14.1-36.1-14.1-58c0-21.9,4.7-41.1,14.1-57.8c9.4-16.7,22.5-29.7,39.2-39
		c16.7-9.3,35.5-13.9,56.6-13.9c15.6,0,29.9,2.9,43.1,8.8c13.1,5.9,24,14.6,32.8,26V33.8H453.7z M379.1,296.4
		c11.2-6.4,19.9-15.4,26.2-27.1c6.3-11.6,9.4-24.9,9.4-40c0-15-3.1-28.4-9.4-40c-6.3-11.6-15-20.6-26.2-26.9
		c-11.2-6.3-23.6-9.4-37.3-9.4c-13.9,0-26.4,3.1-37.5,9.4c-11.1,6.3-19.8,15.2-26.2,26.9c-6.4,11.6-9.6,24.9-9.6,40
		c0,15,3.2,28.4,9.6,40c6.4,11.6,15.2,20.6,26.2,27.1c11.1,6.4,23.6,9.6,37.5,9.6C355.4,306,367.9,302.8,379.1,296.4z"/>
	<path d="M473.8,416.7c-8.2-2.2-15-5.5-20.5-9.8l12.7-30.3c8.2,6.8,18.9,10.3,32,10.3c10.4,0,18.4-3.2,24-9.6
		c5.6-6.4,8.4-15.9,8.4-28.5v-228h39.4v227.1c0,22.4-6,40-18,52.9c-12,12.8-29.1,19.3-51.3,19.3C490.9,420,482,418.9,473.8,416.7z
		 M531,71.5c-5.1-4.9-7.6-10.9-7.6-18c0-7.1,2.5-13.2,7.6-18.2c5.1-5.1,11.4-7.6,19.1-7.6c7.6,0,14,2.4,19.1,7.2
		c5.1,4.8,7.6,10.7,7.6,17.8c0,7.4-2.5,13.6-7.6,18.7c-5.1,5.1-11.4,7.6-19.1,7.6C542.4,78.9,536,76.4,531,71.5z"/>
</g>
</svg>
