<?xml version="1.0" encoding="utf-8"?>
<!-- Generator: Adobe Illustrator 21.1.0, SVG Export Plug-In . SVG Version: 6.00 Build 0)  -->
<svg version="1.1" id="Layer_1" xmlns="http://www.w3.org/2000/svg" xmlns:xlink="http://www.w3.org/1999/xlink" x="0px" y="0px"
	 viewBox="0 0 456 386" style="enable-background:new 0 0 456 386;" xml:space="preserve">
<g>
	<path d="M87.8,239.7l-45.1,41.8V341H3.3V36.8h39.4v195.2l118.5-108.2h47.6l-91.4,89.8L217.7,341h-48.4L87.8,239.7z"/>
	<path d="M321.1,131.5c13.4-6.6,29.7-9.8,48.8-9.8v38.1c-2.2-0.3-5.2-0.4-9-0.4c-21.3,0-38.1,6.4-50.2,19.1
		c-12.2,12.7-18.2,30.8-18.2,54.3V341H253V123.7h37.7v36.5C297.6,147.6,307.7,138,321.1,131.5z"/>
	<path d="M406.8,335.5c-5.5-5.3-8.2-12.1-8.2-20.3c0-7.9,2.7-14.6,8.2-19.9c5.5-5.3,12-8,19.7-8c7.6,0,14.1,2.6,19.3,7.8
		c5.2,5.2,7.8,11.9,7.8,20.1c0,8.2-2.7,15-8,20.3s-11.7,8-19.1,8C418.8,343.5,412.2,340.8,406.8,335.5z"/>
</g>
</svg>
