<?xml version="1.0" encoding="utf-8"?>
<!-- Generator: Adobe Illustrator 21.1.0, SVG Export Plug-In . SVG Version: 6.00 Build 0)  -->
<svg version="1.1" id="Layer_1" xmlns="http://www.w3.org/2000/svg" xmlns:xlink="http://www.w3.org/1999/xlink" x="0px" y="0px"
	 viewBox="0 0 594 384" style="enable-background:new 0 0 594 384;" xml:space="preserve">
<path d="M0,37h121c30.3,0,57.3,6,80.8,18c23.5,12,41.7,28.9,54.7,50.6c13,21.7,19.5,46.7,19.5,74.8c0,28.2-6.5,53.1-19.5,74.8
	c-13,21.7-31.2,38.6-54.7,50.6c-23.5,12-50.4,18-80.8,18H0V37z M118.5,288.3c23.2,0,43.7-4.5,61.3-13.5s31.2-21.7,40.8-37.9
	c9.6-16.3,14.4-35.1,14.4-56.4s-4.8-40.1-14.4-56.4c-9.6-16.3-23.2-28.9-40.8-37.9s-38.1-13.5-61.3-13.5H41v215.7H118.5z
	 M517.5,252.3H364.9L333.4,324h-42.2l130-287h40.6l130.4,287h-43L517.5,252.3z M503.1,219.5L441.2,78.8l-61.9,140.6H503.1z"/>
</svg>
