<?xml version="1.0" encoding="utf-8"?>
<!-- Generator: Adobe Illustrator 21.1.0, SVG Export Plug-In . SVG Version: 6.00 Build 0)  -->
<svg version="1.1" id="Layer_1" xmlns="http://www.w3.org/2000/svg" xmlns:xlink="http://www.w3.org/1999/xlink" x="0px" y="0px"
	 viewBox="0 0 581 386.7" style="enable-background:new 0 0 581 386.7;" xml:space="preserve">
<title>Layer 1</title>
<path id="svg_3" d="M0,378.9V6.6h269.4v43.9h-220v114h206.2v43.9H49.4V335H278v43.9H0z M406.5,173.4h80.1V211h-72.2
	c3.1,7.6,4.8,14.9,4.8,22.5c0,14.9-3.5,30.4-10.7,46.6c-6.9,16.6-18.7,33.2-34.5,50.4c13.5-3.8,25.6-5.5,36.6-5.5
	c14.2,0,30,2.1,47.7,6.2c29,6.9,48.7,10.4,59.1,10.4c12.4,0,28.7-4.8,48.7-14.2l14.9,41.8c-15.5,6.6-27.6,11.1-36.3,13.1
	s-16.9,3.1-25.6,3.1c-7.3,0-14.2-0.7-21.8-2.1c-4.5-0.7-15.5-3.8-32.8-9.3c-17.3-5.2-28.7-8.6-33.5-9.7c-7.9-1.4-15.9-2.1-23.8-2.1
	c-12.1,0-25.2,2.1-39,6.2s-26.3,10-37.6,17.3l-17.6-43.9c16.2-9,30-21.8,41.4-38.3c11.4-16.6,16.9-37,16.9-61.1
	c0-10.4-1.4-20.7-4.5-31.4h-49.7v-37.6h39c-5.5-19-9-32.8-10.7-41.4c-1.4-8.6-2.4-17.3-2.4-25.6c0-35.2,13.1-62.9,39-82.6
	c21.1-15.9,46.3-23.5,76.3-23.5c30.7,0,56,8.3,76,25.2s32.1,40.4,36.6,71.2l-45.6,6.9c-2.4-20.4-10-36.3-22.8-48
	C489.8,43.9,474.9,38,457.3,38c-18.7,0-34.5,6.2-47,18.3c-12.4,12.1-18.7,26.6-18.7,43.9C392,118.5,396.9,143,406.5,173.4z"/>
</svg>
