<?xml version="1.0" encoding="utf-8"?>
<!-- Generator: Adobe Illustrator 21.1.0, SVG Export Plug-In . SVG Version: 6.00 Build 0)  -->
<svg version="1.1" id="Layer_1" xmlns="http://www.w3.org/2000/svg" xmlns:xlink="http://www.w3.org/1999/xlink" x="0px" y="0px"
	 viewBox="0 0 400 388" style="enable-background:new 0 0 400 388;" xml:space="preserve">
<style type="text/css">
	.st0{enable-background:new    ;}
</style>
<g class="st0">
	<path d="M363.1,294.3l34.4,33.9c-16.9,19.4-37.7,34.1-62.4,44.1c-24.8,10-51.9,15.1-81.3,15.1c-31.2,0-60.1-5.8-86.7-17.5
		c-26.6-11.7-49-28.1-67.3-49.2c-18.3-21.2-31.2-45.7-38.8-73.7H-0.2v-30.1h56c-0.7-9.3-1.1-16.7-1.1-22.1s0.4-12.7,1.1-22.1h-56
		v-30.1h61.4c7.5-28,20.5-52.6,38.8-73.7c18.3-21.2,40.7-37.6,67.3-49.2C193.7,7.9,222.6,2,253.9,2c29.8,0,57,5,81.5,15.1
		c24.6,10,45.3,24.6,62.2,43.6l-34.4,33.9c-28.3-29.8-63.9-44.7-106.6-44.7c-32.7,0-61.4,8.4-86.1,25.3
		c-24.8,16.9-42.2,39.3-52.2,67.3h170.6v30.1H110.7c-1.1,6.8-1.6,14.2-1.6,22.1c0,7.5,0.5,14.9,1.6,22.1h178.1v30.1H118.2
		c10,28,27.4,50.4,52.2,67.3c24.8,16.9,53.5,25.3,86.1,25.3C298.9,339.5,334.4,324.4,363.1,294.3z"/>
</g>
</svg>
