<?xml version="1.0" encoding="utf-8"?>
<!-- Generator: Adobe Illustrator 21.1.0, SVG Export Plug-In . SVG Version: 6.00 Build 0)  -->
<svg version="1.1" id="Layer_1" xmlns="http://www.w3.org/2000/svg" xmlns:xlink="http://www.w3.org/1999/xlink" x="0px" y="0px"
	 viewBox="0 0 660 387" style="enable-background:new 0 0 660 387;" xml:space="preserve">
<path d="M42,85.7v100H186V221H42v116H1V50h202.5v35.7H42z M244.2,329.4c-14.8-7.2-26.7-17.4-35.7-30.5l23.8-27.9
	c15.8,22.7,35.8,34,59.9,34c16.1,0,28.4-4.9,36.7-14.8c8.3-9.8,12.5-24.3,12.5-43.5V85.7H237.6V50h144.3v194.8
	c0,31.7-7.6,55.6-22.8,71.5c-15.2,16-37.5,24-67,24C274.9,340.3,258.9,336.7,244.2,329.4z M635.9,313.6
	c-16.3,15-39.8,23.8-70.7,26.2v46.3H539v-46.3c-20-1.1-38.9-4.8-56.8-11.3c-17.9-6.4-32.2-14.6-42.8-24.4l15.2-32
	c9.8,9,22.3,16.5,37.3,22.3c15,5.9,30.8,9.4,47.2,10.5v-95.1c-19.1-4.6-35.1-9.7-47.8-15.2c-12.7-5.5-23.4-13.5-32-24.2
	c-8.6-10.7-12.9-24.6-12.9-41.8c0-21.6,7.9-39.9,23.6-54.9c15.7-15,38.7-23.8,69.1-26.2V0.8h26.2v46.3c15.6,0.6,30.7,3,45.3,7.4
	c14.6,4.4,27.3,10.3,37.9,17.6l-13.5,32.8c-22.1-13.9-45.4-21.6-69.7-23v95.5c19.9,4.9,36.3,10,49.2,15.4
	c12.8,5.3,23.7,13.3,32.6,23.8c8.9,10.5,13.3,24.5,13.3,42C660.3,280.3,652.2,298.6,635.9,313.6z M500,154.5c9,6.6,22,12,39,16.4
	V82.4c-17.5,2.2-30.6,7.3-39.4,15.4c-8.8,8.1-13.1,17.8-13.1,29.3C486.5,138.8,491,148,500,154.5z M606.4,290.5
	c9.2-7.8,13.7-17.6,13.7-29.3c0-12-4.7-21.2-14.1-27.7c-9.4-6.4-23-12.1-40.8-17v88.1C583.5,303,597.2,298.3,606.4,290.5z"/>
</svg>
