<?xml version="1.0" encoding="utf-8"?>
<!-- Generator: Adobe Illustrator 21.1.0, SVG Export Plug-In . SVG Version: 6.00 Build 0)  -->
<svg version="1.1"
	 id="svg2985" inkscape:version="0.48.4 r9939" sodipodi:docname="Sign_of_Georgian_Lari_(5).png" xmlns:cc="http://creativecommons.org/ns#" xmlns:dc="http://purl.org/dc/elements/1.1/" xmlns:inkscape="http://www.inkscape.org/namespaces/inkscape" xmlns:rdf="http://www.w3.org/1999/02/22-rdf-syntax-ns#" xmlns:sodipodi="http://sodipodi.sourceforge.net/DTD/sodipodi-0.dtd" xmlns:svg="http://www.w3.org/2000/svg"
	 xmlns="http://www.w3.org/2000/svg" xmlns:xlink="http://www.w3.org/1999/xlink" x="0px" y="0px" viewBox="0 0 330.2 388"
	 style="enable-background:new 0 0 330.2 388;" xml:space="preserve">
<style type="text/css">
	.st0{stroke:#000000;}
</style>
<sodipodi:namedview  bordercolor="#666666" borderopacity="1" gridtolerance="10" guidetolerance="10" id="namedview2987" inkscape:current-layer="svg2985" inkscape:cx="814.6154" inkscape:cy="691.41801" inkscape:pageopacity="0" inkscape:pageshadow="2" inkscape:window-height="1003" inkscape:window-maximized="1" inkscape:window-width="1920" inkscape:window-x="-9" inkscape:window-y="-9" inkscape:zoom="0.22459761" objecttolerance="10" pagecolor="#ffffff" showgrid="false">
	</sodipodi:namedview>
<path id="path2995" class="st0" d="M145.5,0l-24.8,24.9l-3.1,2.8l0.1,35l-3.3,1l-2.7,1l-2.9,0.9l-2.2,1l-2.5,1l-2.8,1l-2.5,1.2
	L96.2,71L94,72.1L92,73l-2.4,1.3l-1.9,1.1l-1.9,1.1l-2.4,1.3l-1.9,1l-2.7,1.6l-3,1.9l-3.2,2.2l-2.5,1.6l-2.8,2.1l-1.8,1.4l-2.3,1.8
	l-2.1,1.6L58.8,95l-2.1,1.6l-1.6,1.6l-1.9,1.8l-3.5,3.3l-1.5,1.5l-1.2,1.3l-1.7,1.6l-2.1,2.2l-1.9,2.1l-1.2,1.6l-1.5,1.7l-1.4,1.9
	l-1.4,1.8l-1.4,1.8l-1.4,1.7l-1.2,1.7l-1.3,1.6l-1,1.5l-1.2,1.9L27,131l-1,1.4l-1,1.5l-1.5,2.5l-0.7,1.4l-0.8,1.5l-1.2,1.9l-0.9,1.5
	l-0.6,1.5l-1.2,1.9l-1.1,2l-1.2,2.4l-0.9,2.3l-1,2.4l-1,2.1l-0.8,1.8l-0.8,2.1l-1.2,2.6l-0.9,2.7l-1.3,3.8l-0.7,2.3l-0.8,2.6
	l-0.7,2.4l-0.6,2.4L3.6,187l-0.4,2.1l-0.6,2.4l-0.5,3l-0.3,2l-0.5,3.1l-0.5,3.4l-0.3,5.5l-0.4,3.8l-0.1,2.9L0,218.9l0.1,8.6l0.1,2.8
	l0.3,4.1l0.3,3.3l0.3,2.4l0.3,2.5l0.3,2.1l0.5,2.5l0.4,2.4l0.4,2.2l0.5,2.2l0.4,1.9l0.6,2.6l0.5,2.3l0.5,2.3l0.8,2.5l0.6,2.6
	l0.6,2.2l0.6,1.9l0.6,2.2l0.8,2.1l0.8,2.2l0.8,2.1l0.8,1.9l0.7,1.6l1,2.3l0.9,2.3l1,2.1l0.9,2.1l0.9,1.7l0.9,1.6l1,2.3l0.9,1.7
	l1,1.8l1,1.8l0.6,1.2l0.6,1.1l0.9,1.5l0.8,1.4l0.8,1.2l1,1.3l0.8,1.4l1.2,1.9l1.1,1.6l1.2,1.6l0.8,1.3l1,1.2l1.2,1.5l1,1.3l1.4,1.7
	l1.7,2.1l1.4,1.9l1.7,1.9l1.2,1.5l1.4,1.4l1.6,1.7l1.4,1.6l1.4,1.4l1.1,1l1.4,1.2l1.4,1.4l1.2,1.1l1.3,1.2l1,1l1.4,1.2l1.3,1.2
	l1.2,0.8l1,1l1.1,0.8l0.9,0.6l1,0.8l1.2,1l1.2,0.9l1.2,0.9l1.4,1l1.2,0.9l0.8,0.6l0.7,0.5l0.8,0.5l0.8,0.6l0.7,0.5l0.6,0.3H27.6
	L0.1,388h277.2l27.5-27.6l-144.5-0.1l-3.1-0.1l-3.8-0.4l-5.5-0.5l-5-1l-3.9-0.7l-4-0.9l-3.5-0.8l-3.8-1l-2.5-0.8l-4-1.4l-3.4-1.2
	l-2.9-1l-2.7-1.2l-2.8-1.4l-2.6-1.2l-3.3-1.5l-3.3-1.8l-2.9-1.7l-2.8-1.7l-2.1-1.4l-2.8-1.6l-2.5-1.9l-2.2-1.4l-2.1-1.6l-2.4-2.1
	l-2.5-2l-2.5-2.3l-2.4-2.1l-2.6-2.5l-2.4-2.3l-1.6-1.6l-1.9-2.3l-1.5-1.6l-1.5-1.6l-1.9-2.4l-2.1-2.6c0,0-1.9-2.5-1.9-2.7
	c0-0.2-1.9-2.3-1.9-2.3l-2.1-3.2l-1.7-2.5l-1.7-2.6l-1.6-2.7l-1.4-2.3l-1.2-2.3l-1.7-3.2l-1.3-3l-1.2-2.9l-1.4-3l-1-2.3l-0.8-2.1
	l-0.8-2.6l-1.2-3.6l-1.2-3.8l-1.2-4.2l-0.8-3.6l-0.8-4l-0.8-3.4l-0.5-4l-0.4-3.8l-0.4-4.3l-0.2-2.5l-0.2-2.9v-2.6l0.1-2.5l0.1-2.6
	l0.1-4.1l0.2-3.1l0.1-3.2l0.3-2.3l0.4-3.1l0.5-2.8l0.4-2.9l0.5-2.4l0.6-3l0.5-2.5l0.5-1.9l0.6-2.5l0.7-2.1l0.8-3l0.8-2.1l1-3l1-2.8
	l1-2.4l1.1-3.1l1.4-3l1-1.8l1.2-2.4l1.3-2.6l1-1.9l1.4-2.5l1.6-2.5l1.1-2l1.3-1.9l1.9-2.8l1.6-2.3l1.4-2.1l1.5-2l1.3-1.8l1.2-1.4
	l1.4-1.6l1.2-1.4l1.1-1.2l1.4-1.4l1.2-1.4l1.7-1.5l1.5-1.5l3-2.9l1-1.1l1.4-1.2l1.4-1.2l1.2-1.2l1.5-1.3l1.7-1.4l1.6-1.2l1.6-1.3
	l1.7-1l2.1-1.5l1.9-1.4l2.1-1.4l1.5-1.1l2-1.2l1.8-1.1l1.4-0.9l1.7-0.8l1.3-0.8l1.7-0.9l1.9-1l1.9-0.9l1.2-0.7l1.8-0.7l1.6-0.7
	l1.9-0.8l1.5-0.6l1.5-0.6l1.5-0.5l0.8-0.4v129.8l27.7-27.6l0.1-109.3l0.3-0.1l1.2-0.2l1.4-0.1l1.9-0.3l1.8-0.1l1.2-0.1l0,0l0.5,0.1
	l2.3-0.3l2.5-0.1l3-0.1l9.3-0.1l3.4,0.2l2.9,0.2l2.2,0.2l2.1,0.2l2.2,0.3l1.7,0.3l1.5,0.2l0.1,136.9l27.8-27.6v-102l0.4,0.1l0.9,0.4
	l1.3,0.5l1.8,0.6l1.2,0.6l1.8,0.8l2,0.9l1.9,0.9l1.8,0.9l2,1l2.2,1.2l1.6,0.8l1.4,0.8l1.2,0.8l1.4,0.8l1.1,0.6l1.4,1l1.2,0.8
	l1.5,0.9l1.3,0.9l1.3,1l1.4,1l1.3,0.9l1.5,1.2l1.4,1.1l1.1,0.9l1.2,0.9l1.3,1l1.4,1.1l1.6,1.5l1.4,1.2l1.4,1.3l1.5,1.3l1.4,1.5
	l1.1,0.9l1,1.1l1.6,1.7l1.4,1.5l1,1.1l1,1.2l1.5,1.7l1.6,1.9l1.4,1.6l0.8,1.2l1,1.4l1.2,1.5l1,1.3l0.9,1.3l0.9,1.4l1.1,1.6l0.9,1.5
	l0.9,1.3l0.8,1.2l0.8,1.2l0.8,1.2l0.7,1.4l0.6,1.3l0.8,1.5l0.7,1.2l0.6,1.1l0.6,1.4l0.6,1l0.6,1.2l0.9,1.9l0.9,2l0.5,1l0.5,1.1
	l0.5,1.1l0.4,1.1l0.5,1.4l0.4,1.1l0.6,1.2l0.4,1l0.3,1l0.5,1.4l0.3,1l0.4,1.4l0.4,1.5l0.5,1.5l0.5,1.5l0.5,2l0.5,1.6l0.6,2.7
	l0.3,1.4l0.3,1.5l0.4,2.1l0.1,0.4l0.3,1.6l0.4,1.9l0.3,2.1l0.3,2.1l0.3,2.7l0.3,2.4l0.2,2.9l0.2,2.6l0.2,3.3l0.1,3.8l25.6-25.6
	l0.1-0.5l-0.1-1.1l-0.2-1.4l-0.3-1.4l-0.2-1.1l-0.3-1.7l-0.4-1.5l-0.3-1.4l-0.6-2.4l-0.3-1.3l-0.4-1.5l-0.5-1.7l-0.4-1.5l-0.4-1.5
	l-0.4-1.2l-0.4-1.4l-0.5-1.6l-0.5-1.6l-0.7-2.1l-0.6-1.6l-0.5-1.6l-0.6-1.5l-0.5-1.3l-0.6-1.9l-0.6-1.5l-0.6-1.3l-0.7-1.6l-0.6-1.5
	l-0.8-1.9l-0.6-1.5l-0.7-1.4l-0.8-1.7l-0.6-1.3l-0.8-1.7l-0.7-1.3l-0.7-1.4l-0.8-1.4l-1-1.6l-0.9-1.6l-0.8-1.3l-0.8-1.4l-0.8-1.2
	l-0.8-1.4l-0.7-1.1l-0.9-1.3l-0.6-1l-0.6-0.8l-1-1.5l-1-1.4l-0.9-1.2l-0.8-1.1l-0.9-1.3l-1-1.3l-1-1.3l-0.6-0.8l-0.9-1l-0.6-0.7
	l-1-1.2l-0.9-1.1l-1-1.2l-1.5-1.8l-1.3-1.4l-1.2-1.2l-1.1-1.2l-1.2-1.2l-1.8-1.9l-1.6-1.5l-1.3-1.3l-1.6-1.5l-1.4-1.4l-1.2-1
	l-1.6-1.5l-1.4-1.1l-1.2-1l-1.5-1.2l-1.3-1l-1.5-1.2l-1.4-1.1l-1.6-1.2l-1.4-1l-1.6-1.3l-1.5-1.1l-1.2-0.9l-1.3-0.8l-1.4-0.9l-1.5-1
	l-1.6-1l-1.5-1l-1.3-0.8l-1.5-0.8l-1.4-0.8l-1.5-0.8l-1.6-0.9l-1.4-0.7l-1.6-0.8l-1.6-0.8l-1.4-0.7l-1.9-0.9l-1.7-0.8l-1.8-0.8
	l-2.2-1l-1.7-0.7l-1.9-0.7l-1.6-0.6l-1.5-0.5l-1.6-0.6l-2.2-0.8l-1.6-0.5l-1.9-0.6l-1.5-0.5l-1-0.2L215,0.2l-27.9,27.7l0,29.2
	l-2.2-0.4l-3-0.3l-2.4-0.3l-4-0.3l-3.7-0.1l-2.2-0.1l-5.3,0.1l-3.5,0.1l-4.1,0.1L154,56l-0.7,0.2l0,0l-2.4,0.2l-2.5,0.2l-1.7,0.4
	l-0.8,0.3L145.5,0z"/>
</svg>
