<?xml version="1.0" encoding="utf-8"?>
<!-- Generator: Adobe Illustrator 21.1.0, SVG Export Plug-In . SVG Version: 6.00 Build 0)  -->
<svg version="1.1" id="Capa_1" xmlns="http://www.w3.org/2000/svg" xmlns:xlink="http://www.w3.org/1999/xlink" x="0px" y="0px"
	 viewBox="0 0 914.6 387" style="enable-background:new 0 0 914.6 387;" xml:space="preserve">
<path d="M223.1,191.9h39.5v112.5c-14.2,11.8-30.8,20.9-49.9,27.2c-19,6.3-38.8,9.4-59.3,9.4c-29.2,0-55.4-6.5-78.7-19.2
	c-23.3-12.7-41.7-30.3-55-52.6C6.7,246.8,0,221.5,0,193.6s6.7-53.4,20-75.9S51.7,77.6,75.2,65s49.9-19,79.2-19
	c23.1,0,44,3.7,62.8,11.3s34.7,18.7,48,33.1l-25.7,25.9c-23.1-22.2-51-33.4-83.7-33.4c-22,0-41.7,4.8-59.1,14.2
	c-17.4,9.4-30.8,22.5-40.8,39.5s-14.8,35.8-14.8,57.1c0,20.9,5,39.7,14.8,56.7c9.8,17,23.5,30.1,41,39.7
	c17.4,9.6,36.9,14.4,58.7,14.4c25.9,0,48.4-6.1,67.6-18.5v-94H223.1z M589.3,49.3v288.4h-41.2V209.1H382.6v128.6h-41.2V49.3h41.2
	v124h165.5v-124H589.3z M887.8,269.7l26.8,25.9c-12.4,14-27.3,24.9-44.9,32.5c-17.5,7.8-36.8,12-57.6,12.7V387h-26.8v-47.3
	c-25.5-2.8-48.4-10.7-68.5-23.8c-20.1-13.1-36-30.5-47.3-51.7c-11.5-21.2-17.2-44.9-17.2-70.6c0-25.9,5.7-49.3,17.2-70.6
	c11.5-21.2,27.2-38.4,47.3-51.7s43-21.1,68.5-23.8V0h26.8v46.2c20.9,0.7,40.1,5,57.6,12.6s32.5,18.3,44.9,32.3l-26.8,25.9
	c-20.3-21.4-45.6-32.9-75.7-34.2v221.5C842,302.9,867.3,291.5,887.8,269.7z M705.3,244.6c7.8,15.3,18.7,28.1,32.5,38.2
	c13.9,10.2,29.7,16.8,47.7,19.8V84.4c-17.9,3-33.6,9.6-47.7,19.8c-13.9,10.2-24.8,22.9-32.5,38.2c-7.8,15.3-11.8,32.3-11.8,51
	C693.5,212.2,697.3,229.2,705.3,244.6z"/>
</svg>
