<?xml version="1.0" encoding="utf-8"?>
<!-- Generator: Adobe Illustrator 21.1.0, SVG Export Plug-In . SVG Version: 6.00 Build 0)  -->
<svg version="1.1" id="Layer_1" xmlns="http://www.w3.org/2000/svg" xmlns:xlink="http://www.w3.org/1999/xlink" x="0px" y="0px"
	 viewBox="0 0 372.8 387.4" style="enable-background:new 0 0 372.8 387.4;" xml:space="preserve">
<g>
	<path d="M0,0h163.4c40.9,0,77.4,8.1,109.1,24.3s56.3,39,73.9,68.3c17.6,29.3,26.3,63.1,26.3,101c0,38.1-8.8,71.7-26.3,101
		c-17.6,29.3-42.1,52.1-73.9,68.3c-31.7,16.2-68.1,24.3-109.1,24.3H0V0z M160.1,339.6c31.3,0,59-6.1,82.8-18.2S285,292,298,270.2
		c13-22,19.5-47.4,19.5-76.2s-6.5-54.2-19.5-76.2c-13-22-31.3-39-55.1-51.2s-51.3-18.4-82.8-18.4H55.4v291.4H160.1z"/>
</g>
</svg>
