<?xml version="1.0" encoding="utf-8"?>
<!-- Generator: Adobe Illustrator 21.1.0, SVG Export Plug-In . SVG Version: 6.00 Build 0)  -->
<svg version="1.1" id="Layer_1" xmlns="http://www.w3.org/2000/svg" xmlns:xlink="http://www.w3.org/1999/xlink" x="0px" y="0px"
	 viewBox="0 0 495.7 387" style="enable-background:new 0 0 495.7 387;" xml:space="preserve">
<style type="text/css">
	.st0{display:none;}
	.st1{display:inline;fill:none;}
</style>
<g>
	<title>background</title>
	<g id="canvasGrid" class="st0">
		<rect x="259" y="484.3" class="st1" width="250" height="160"/>
	</g>
</g>
<path d="M40,85.7v100H184V221H40v116H-1V50h202.5v35.7H40z M455,191.9h39.4v111.9c-14.2,11.8-30.8,20.8-49.6,27.1
	c-18.9,6.3-38.5,9.4-59,9.4c-29,0-55.1-6.4-78.3-19.1c-23.2-12.7-41.5-30.2-54.7-52.5c-13.3-22.3-19.9-47.4-19.9-75.2
	s6.6-53,19.9-75.4c13.3-22.4,31.6-39.9,54.9-52.5c23.4-12.6,49.7-18.9,78.9-18.9c23,0,43.8,3.8,62.5,11.3
	c18.7,7.5,34.6,18.5,47.8,33l-25.4,25.4c-23-22.1-50.7-33.2-83.2-33.2c-21.9,0-41.5,4.7-58.8,14.1c-17.4,9.4-31,22.5-40.8,39.4
	s-14.8,35.7-14.8,56.8c0,20.8,4.9,39.6,14.8,56.4s23.4,30,40.8,39.6c17.4,9.6,36.8,14.4,58.4,14.4c25.7,0,48.1-6.1,67.2-18.5V191.9z
	"/>
</svg>
