<?xml version="1.0" encoding="utf-8"?>
<!-- Generator: Adobe Illustrator 21.1.0, SVG Export Plug-In . SVG Version: 6.00 Build 0)  -->
<svg version="1.1" id="Capa_1" xmlns="http://www.w3.org/2000/svg" xmlns:xlink="http://www.w3.org/1999/xlink" x="0px" y="0px"
	 viewBox="0 0 286.7 397" style="enable-background:new 0 0 286.7 397;" xml:space="preserve">
<path d="M274.8,395.5c-42.1-11-83.2-23.3-118.9-36.1c-6.4-2.3-12.8-4.6-18.7-4.6C63.6,352,0,297.6,0,197.5
	C0,97.8,60.8,33.8,144.9,33.8c84.6,0,139.5,65.4,139.5,157.3c0,80-37,131.2-88.7,149.1v1.8c31.1,7.8,64.5,15.1,91,19.7L274.8,395.5z
	 M241.4,192.9c0-62.2-32.5-126.2-98.3-126.2c-67.7,0-101,62.6-100.6,130.3c0,65.4,36.1,124.8,98.8,124.8
	C205.7,321.9,241.4,263.8,241.4,192.9z"/>
</svg>
