<?xml version="1.0" encoding="utf-8"?>
<!-- Generator: Adobe Illustrator 21.1.0, SVG Export Plug-In . SVG Version: 6.00 Build 0)  -->
<svg version="1.1" id="Layer_1" xmlns="http://www.w3.org/2000/svg" xmlns:xlink="http://www.w3.org/1999/xlink" x="0px" y="0px"
	 viewBox="0 0 535 388" style="enable-background:new 0 0 535 388;" xml:space="preserve">
<style type="text/css">
	.st0{display:none;}
	.st1{display:inline;fill:none;}
</style>
<g>
	<title>background</title>
	<g id="canvasGrid" class="st0">
		<rect x="451.1" y="357.6" class="st1" width="250" height="160"/>
	</g>
</g>
<path d="M223.9,192.9h39.4v111.9c-14.2,11.8-30.8,20.8-49.6,27.1c-18.9,6.3-38.5,9.4-59,9.4c-29,0-55.1-6.4-78.3-19.1
	c-23.2-12.7-41.5-30.2-54.7-52.5C8.3,247.5,1.7,222.4,1.7,194.5s6.6-53,19.9-75.4c13.3-22.4,31.6-39.9,54.9-52.5
	c23.4-12.6,49.7-18.9,78.9-18.9c23,0,43.8,3.8,62.5,11.3c18.7,7.5,34.6,18.5,47.8,33l-25.4,25.4c-23-22.1-50.7-33.2-83.2-33.2
	c-21.9,0-41.5,4.7-58.8,14.1c-17.4,9.4-31,22.5-40.8,39.4s-14.8,35.7-14.8,56.8c0,20.8,4.9,39.6,14.8,56.4s23.4,30,40.8,39.6
	c17.4,9.6,36.8,14.4,58.4,14.4c25.7,0,48.1-6.1,67.2-18.5V192.9z M511.9,314.6c-16.3,15-39.8,23.8-70.7,26.2v46.3H415v-46.3
	c-20-1.1-38.9-4.8-56.8-11.3c-17.9-6.4-32.2-14.6-42.8-24.4l15.2-32c9.8,9,22.3,16.5,37.3,22.3c15,5.9,30.8,9.4,47.2,10.5v-95.1
	c-19.1-4.6-35.1-9.7-47.8-15.2c-12.7-5.5-23.4-13.5-32-24.2c-8.6-10.7-12.9-24.6-12.9-41.8c0-21.6,7.9-39.9,23.6-54.9
	c15.7-15,38.7-23.8,69.1-26.2V1.8h26.2v46.3c15.6,0.6,30.7,3,45.3,7.4c14.6,4.4,27.3,10.3,37.9,17.6l-13.5,32.8
	c-22.1-13.9-45.4-21.6-69.7-23v95.5c19.9,4.9,36.3,10,49.2,15.4c12.8,5.3,23.7,13.3,32.6,23.8c8.9,10.5,13.3,24.5,13.3,42
	C536.3,281.3,528.2,299.6,511.9,314.6z M376,155.5c9,6.6,22,12,39,16.4V83.4c-17.5,2.2-30.6,7.3-39.4,15.4
	c-8.8,8.1-13.1,17.8-13.1,29.3C362.5,139.8,367,149,376,155.5z M482.4,291.5c9.2-7.8,13.7-17.6,13.7-29.3c0-12-4.7-21.2-14.1-27.7
	c-9.4-6.4-23-12.1-40.8-17v88.1C459.5,304,473.2,299.3,482.4,291.5z"/>
</svg>
