<?xml version="1.0" encoding="utf-8"?>
<!-- Generator: Adobe Illustrator 21.1.0, SVG Export Plug-In . SVG Version: 6.00 Build 0)  -->
<svg version="1.1" id="Layer_1" xmlns="http://www.w3.org/2000/svg" xmlns:xlink="http://www.w3.org/1999/xlink" x="0px" y="0px"
	 viewBox="0 0 817 387" style="enable-background:new 0 0 817 387;" xml:space="preserve">
<style type="text/css">
	.st0{enable-background:new    ;}
</style>
<g class="st0">
	<path d="M248.1,51v287h-41V210.1H42.2V338h-41V51h41v123.4h164.8V51H248.1z"/>
	<path d="M427.6,210.5l-52.5,53.3V338h-41V51h41v160.3L531,51h46.7L455.1,180.2L585.5,338h-48L427.6,210.5z"/>
	<path d="M793.1,314.7c-16.3,15-39.8,23.8-70.7,26.2v46.3h-26.2v-46.3c-20-1.1-38.9-4.8-56.8-11.3c-17.9-6.4-32.2-14.6-42.8-24.4
		l15.2-32c9.8,9,22.3,16.5,37.3,22.3c15,5.9,30.8,9.4,47.1,10.5v-95.1c-19.1-4.6-35.1-9.7-47.8-15.2c-12.7-5.5-23.4-13.5-32-24.2
		c-8.6-10.7-12.9-24.6-12.9-41.8c0-21.6,7.9-39.9,23.6-54.9c15.7-15,38.7-23.8,69.1-26.2V1.8h26.2v46.3c15.6,0.6,30.7,3,45.3,7.4
		c14.6,4.4,27.3,10.3,37.9,17.6L792.1,106C770,92,746.7,84.4,722.4,83v95.5c19.9,4.9,36.3,10,49.2,15.4
		c12.8,5.3,23.7,13.3,32.6,23.8c8.9,10.5,13.3,24.5,13.3,42C817.5,281.3,809.4,299.6,793.1,314.7z M657.2,155.6c9,6.6,22,12,39,16.4
		V83.4c-17.5,2.2-30.6,7.3-39.4,15.4c-8.8,8.1-13.1,17.8-13.1,29.3C643.7,139.9,648.2,149,657.2,155.6z M763.6,291.5
		c9.2-7.8,13.7-17.6,13.7-29.3c0-12-4.7-21.3-14.1-27.7c-9.4-6.4-23-12.1-40.8-17v88.2C740.7,304,754.5,299.3,763.6,291.5z"/>
</g>
</svg>
