<?xml version="1.0" encoding="utf-8"?>
<!-- Generator: Adobe Illustrator 21.1.0, SVG Export Plug-In . SVG Version: 6.00 Build 0)  -->
<svg version="1.1" id="Layer_1" xmlns="http://www.w3.org/2000/svg" xmlns:xlink="http://www.w3.org/1999/xlink" x="0px" y="0px"
	 viewBox="0 0 344.9 385.5" style="enable-background:new 0 0 344.9 385.5;" xml:space="preserve">
<path d="M290.2,190.6h51.4v146.2c-18.6,15.4-40.2,27.1-64.8,35.4s-50.3,12.3-77.1,12.3c-37.8,0-72-8.3-102.3-24.9
	C67.1,343,43.3,320.2,26,291C8.6,262,0,229.2,0,192.8c0-36.4,8.6-69.3,26-98.5s41.2-52.1,71.8-68.5S162.6,1.1,200.8,1.1
	c30,0,57.2,4.9,81.7,14.7c24.4,9.8,45.2,24.2,62.4,43.1l-33.2,33.2c-30-28.9-66.3-43.3-108.7-43.3c-28.5,0-54.2,6.2-76.8,18.5
	s-40.4,29.4-53.3,51.4s-19.3,46.7-19.3,74.2c0,27.1,6.4,51.7,19.3,73.6c12.8,22,30.6,39.2,53.3,51.7s48.1,18.8,76.3,18.8
	c33.6,0,62.8-8,87.8-24.1V190.6z"/>
</svg>
