<?xml version="1.0" encoding="utf-8"?>
<!-- Generator: Adobe Illustrator 21.1.0, SVG Export Plug-In . SVG Version: 6.00 Build 0)  -->
<svg version="1.1" id="Layer_1" xmlns="http://www.w3.org/2000/svg" xmlns:xlink="http://www.w3.org/1999/xlink" x="0px" y="0px"
	 viewBox="0 0 497 386" style="enable-background:new 0 0 497 386;" xml:space="preserve">
<path d="M53.6,48.7v132.1h190.1v46.6H53.6v153.2H-0.6V1.6h267.5v47.2H53.6z M497,363.8c-7.6,6.5-17,11.5-28.2,14.9
	c-11.2,3.4-22.8,5.2-34.6,5.2c-28.9,0-51.2-7.8-67.2-23.2c-15.8-15.6-23.8-37.7-23.8-66.6V136.4h-48.7V93.6h48.7V30.8h52v62.8h82.3
	v42.8h-82.4v155.4c0,15.6,3.9,27.4,11.7,35.8c7.8,8.3,18.9,12.4,33.3,12.4c15.8,0,29.5-4.5,40.6-13.5L497,363.8z"/>
</svg>
