<?xml version="1.0" encoding="utf-8"?>
<!-- Generator: Adobe Illustrator 21.1.0, SVG Export Plug-In . SVG Version: 6.00 Build 0)  -->
<svg version="1.1" id="Layer_1" xmlns="http://www.w3.org/2000/svg" xmlns:xlink="http://www.w3.org/1999/xlink" x="0px" y="0px"
	 viewBox="0 0 594 418" style="enable-background:new 0 0 594 418;" xml:space="preserve">
<path d="M220,328.7l-71-101.1c-8.8,0.6-15.7,0.9-20.7,0.9H47v100.2H0V-0.5h128.4c42.6,0,76.2,10.2,100.6,30.6
	c24.5,20.4,36.7,48.4,36.7,84.2c0,25.4-6.3,47-18.8,64.9c-12.5,17.9-30.4,30.9-53.6,39l78.1,110.5H220z M195.1,169.3
	c15.7-12.9,23.5-31.2,23.5-55c0-23.8-7.8-42.1-23.5-54.8c-15.7-12.7-38.4-19-68.2-19H47v148.1h79.9
	C156.7,188.5,179.4,182.1,195.1,169.3z M532.2,93.1c19.1,10.7,34.1,25.6,44.9,44.7c10.8,19.1,16.2,41.2,16.2,66.3
	c0,25.1-5.4,47.3-16.2,66.5c-10.8,19.3-25.8,34.3-44.9,44.9c-19.1,10.7-40.8,16-64.9,16c-17.9,0-34.3-3.4-49.1-10.3
	c-14.9-6.9-27.5-16.9-37.9-30.1v128.8h-45.1V79.5h43.3V119c10-13.8,22.7-24.2,38.1-31.3c15.4-7.1,32.3-10.6,50.8-10.6
	C491.5,77.1,513.1,82.4,532.2,93.1z M506.6,280.9c12.7-7.4,22.7-17.7,30.1-31c7.4-13.3,11-28.6,11-45.8c0-17.2-3.7-32.5-11-45.8
	c-7.4-13.3-17.4-23.6-30.1-30.8c-12.7-7.2-27-10.8-43-10.8c-15.7,0-29.9,3.7-42.6,11c-12.7,7.4-22.7,17.6-30.1,30.8
	c-7.4,13.2-11,28.4-11,45.6c0,17.2,3.6,32.5,10.8,45.8c7.2,13.3,17.2,23.7,30.1,31c12.8,7.4,27.1,11,42.8,11
	C479.6,292,493.9,288.3,506.6,280.9z"/>
</svg>
