<?xml version="1.0" encoding="utf-8"?>
<!-- Generator: Adobe Illustrator 21.1.0, SVG Export Plug-In . SVG Version: 6.00 Build 0)  -->
<svg version="1.1" id="Capa_1" xmlns="http://www.w3.org/2000/svg" xmlns:xlink="http://www.w3.org/1999/xlink" x="0px" y="0px"
	 viewBox="0 0 492.3 384" style="enable-background:new 0 0 492.3 384;" xml:space="preserve">
<style type="text/css">
	.st0{enable-background:new    ;}
</style>
<g class="st0">
	<path d="M349.1,97.7v161.6h-60.7V103.9c0-18.6-4.2-31.9-12.7-39.9c-8.4-8.1-22-12.1-40.8-12.1H61.8v331.8H1V0.1h245.8
		c33.5,0,58.9,9,76.3,26.9C340.5,45,349.1,68.6,349.1,97.7z M144.5,383.7V124.5h60.7V332h173.2c21.2,0,35.4-4.7,42.7-14.1
		c7.2-9.4,10.8-22.1,10.8-38V0.1h60.7v285.9c0,27.7-8.2,50.9-24.6,69.6c-16.4,18.7-42.3,28-77.7,28H144.5z"/>
</g>
</svg>
