<?xml version="1.0" encoding="utf-8"?>
<!-- Generator: Adobe Illustrator 21.1.0, SVG Export Plug-In . SVG Version: 6.00 Build 0)  -->
<svg version="1.1" id="Capa_1" xmlns="http://www.w3.org/2000/svg" xmlns:xlink="http://www.w3.org/1999/xlink" x="0px" y="0px"
	 viewBox="0 0 256.9 385" style="enable-background:new 0 0 256.9 385;" xml:space="preserve">
<path d="M256.8,0.3l-26.3,38.9h-54.7c5.7,6.3,10.3,13.5,14,21.5s6.3,17.4,7.9,27.8h59.2l-26.3,38.9h-32.8
	c-2.1,12.8-6.3,24.6-12.5,35.3c-6.2,10.8-14.4,20.1-24.6,27.8c-10.2,7.8-22.2,13.9-36.2,18.3s-29.6,6.6-47,6.6l159.9,170.1h-69.9
	L13.2,219.8v-38.9h38.6c12.1,0,23.3-1.1,33.7-3.4c10.3-2.3,19.6-5.7,27.6-10.2s14.8-10.1,20.1-16.7s9.1-14.3,11.2-23H0l26.3-38.9
	h117.8c-4-15.1-12.7-27.1-25.9-36c-13.2-9-31.3-13.4-54-13.4H0L26.3,0.3H256.8z"/>
</svg>
