<?xml version="1.0" encoding="utf-8"?>
<!-- Generator: Adobe Illustrator 21.1.0, SVG Export Plug-In . SVG Version: 6.00 Build 0)  -->
<svg version="1.1" id="Layer_1" xmlns="http://www.w3.org/2000/svg" xmlns:xlink="http://www.w3.org/1999/xlink" x="0px" y="0px"
	 viewBox="0 0 619.4 388" style="enable-background:new 0 0 619.4 388;" xml:space="preserve">
<path d="M14.4,142c1,28.2,12.8,50.5,53.7,50.5c25.6,0,47.2-7.9,71.1-21.3c4.2-2.3,6.6-5.2,6.6-7.9c0-17.7-11.5-40.9-30.8-62.3
	C96.3,81,71.4,63.3,48.2,51.5c-7.9-3.9-10.5-8.1-10.5-12.1c0-8.2,9.2-25.2,16.7-37.4L57,1.8c26.6,16.4,56.4,40.7,78.4,67.8
	c20,24.9,32.5,50.1,32.5,77.7c0,20.3-5.2,39.7-13.8,57.4c-29.1,17.4-60.3,30.5-91.1,30.5C25.6,235.2,0,214.5,0,166
	c0-5.2,0-13.4,1.7-23.9L14.4,142L14.4,142z M229.5,196.3c0-24.8,16.8-42.3,40.3-42.3c23.5,0,39.6,17.4,39.6,42.3
	c0,24.2-15.4,42.3-40.3,42.3C245.7,238.6,229.5,220.4,229.5,196.3z M550.2,128.6c-41.3,16-80.3,33.1-111.4,51.8
	c-33.1,20-55,46.9-55,72.4c0,55,60.3,92.7,149.8,92.7c32.5,0,61.9-3.9,83.6-9.5l2.3,5.9c-16.7,12.5-34.7,25.2-55,36.7
	c-10.5,5.9-29.8,9.5-56,9.5c-79.6,0-146.9-37.7-146.9-122.3c0-42.9,22.9-78.4,54.4-105.9c-35.4-25.2-49.2-42.9-49.2-71.5
	c0-14.1,4.9-33.5,14.8-50.1C396.6,13.4,418.8,0,442.4,0c28.8,0,50.5,14.4,70.5,41.3l-5.3,7c-17-7.8-33.5-10.8-50.8-10.8
	c-36.4,0-65.6,18.3-65.6,31.8c0,14.8,8.5,26.6,28.5,41.6c11.8,8.5,28.2,17.7,34.7,17.7s12.5-3.2,18-5.9c29.5-14.1,59-26.9,88.5-38
	l1.7,1L550.2,128.6z"/>
</svg>
