<?xml version="1.0" encoding="utf-8"?>
<!-- Generator: Adobe Illustrator 21.1.0, SVG Export Plug-In . SVG Version: 6.00 Build 0)  -->
<svg version="1.1" id="Layer_1" xmlns="http://www.w3.org/2000/svg" xmlns:xlink="http://www.w3.org/1999/xlink" x="0px" y="0px"
	 viewBox="0 0 307.2 386" style="enable-background:new 0 0 307.2 386;" xml:space="preserve">
<path d="M288.2,164c-2.3-19.6-15.7-26.6-32.4-26.6c-13.4,0-27,5.4-40.1,13.2l0.6,51.7c0,38.5,7.1,53.6,20.2,63.8
	c6.4,4.8,15.7,7.4,25.7,7.4c11.3,0,19.6-2.9,25.3-8c-1.9-14.2-9-31.1-18-49.4c5.8-9.6,11.9-19.6,19.2-29.2h1.6
	c10.3,23.2,16.3,43.9,16.3,57.7c0,14.2-3.8,28.6-11.9,42.7c-9.4,16.1-23.2,25.1-41.8,25.1c-31.1,0-53.6-25.3-53.6-79.3
	c0-21.8-1.3-45.2-2.3-69.6l-1-1c-11.9,10.3-22.8,21.5-32.8,32.4c0.6,17,1,35.3,1,54.2c0,26-3.5,51-10.6,74.4
	c-19.6,30.1-51.7,49.8-84.3,49.8c-43.7,0-69.3-34-69.3-81.5c0-22.8,6.7-48.5,22.2-76.4l7.7,4.4c-9,20.5-12.5,37.9-12.5,52.3
	c0,31.8,20.5,58.7,52,58.7c23.4,0,40.8-9,56.5-21.5c13.2-10.6,19.9-19.6,21.8-27.6c0-23.2-1-45.2-2.5-66.7l-1-0.6
	c-2.5,2.9-4.8,6.1-8.6,10.6c-22.8,26.3-37.2,39.5-57.7,39.5c-21.5,0-39.8-22.2-39.8-53.3c0-32.8,12.8-65.7,36.6-99.1l7.7,5.4
	c-18,28-27.6,51.4-27.6,69.9c0,11.5,2.3,19.9,5.4,25.3c6,10.2,15.4,12.1,21.4,12.1c17.6,0,37.6-17.3,61-43.7
	c-2.5-38.2-4.8-73.2-7.4-98.5c-2.9-12.2-7.1-24.1-7.1-32.4c0-10.6,12.2-31.4,22.4-43.3l3.5,1.9c-0.6,3.8-0.6,7.4-0.6,11.3
	c0,14.4,8.6,32.8,23.8,52.3l-19.6,19.2l3.5,70.5h1.3c11.3-11.5,22.2-22.2,33.4-31.4c-1.3-26.6-3.8-60.4-7.7-104.3
	c5.8-9.4,11.5-18,18-26.6l2.5,0.6c5.2,31.4,6.7,71.5,6.7,115.8h1c17.3-12.2,34-19.2,49.1-19.2c19,0,33.7,10,33.7,30.5
	c0,11.3-2.5,24.4-7.1,37.6L288.2,164z M222.3,333.7c12.2,7.1,23.8,15.7,34,26c-5.2,10-11.9,19-19.6,27c-11.3-10-22.8-18.2-34-25.7
	L222.3,333.7z M274.4,328.9c11.9,7.7,22.8,16.7,32.8,27c-5.2,10.6-11.5,19-18.2,27c-10.6-10-21.8-18.6-33-26.6L274.4,328.9z"/>
</svg>
