<?xml version="1.0" encoding="utf-8"?>
<!-- Generator: Adobe Illustrator 21.1.0, SVG Export Plug-In . SVG Version: 6.00 Build 0)  -->
<svg version="1.1" id="Capa_1" xmlns="http://www.w3.org/2000/svg" xmlns:xlink="http://www.w3.org/1999/xlink" x="0px" y="0px"
	 viewBox="0 0 533.2 388" style="enable-background:new 0 0 533.2 388;" xml:space="preserve">
<path d="M60.9,0h53.4L40.8,57H1.5L60.9,0z M12.4,81.8h43.7v306.4H12.4C12.4,388.2,12.4,81.8,12.4,81.8z M232,280.1L184,324.8v63.5
	h-42.1V63.5H184v208.3l126.5-115.5h50.8l-97.7,95.9l107.2,136.2h-51.6L232,280.1z M481.2,164.6c14.3-7,31.7-10.5,52-10.5v40.7
	c-2.3-0.3-5.6-0.4-9.6-0.4c-22.8,0-40.7,6.8-53.7,20.4c-13,13.5-19.5,32.9-19.5,58v115.5h-42.1V156.2h40.3v38.9
	C456,181.8,466.8,171.5,481.2,164.6z"/>
</svg>
