<?xml version="1.0" encoding="utf-8"?>
<!-- Generator: Adobe Illustrator 21.1.0, SVG Export Plug-In . SVG Version: 6.00 Build 0)  -->
<svg version="1.1" id="Capa_1" xmlns="http://www.w3.org/2000/svg" xmlns:xlink="http://www.w3.org/1999/xlink" x="0px" y="0px"
	 viewBox="0 0 241.5 386" style="enable-background:new 0 0 241.5 386;" xml:space="preserve">
<path d="M0,384.5v-28.4c39.8-19.9,65.3-56.8,65.3-102.3c0-14.2,0-25.6-2.8-39.8H2.8v-36.9h54c-2.8-17-5.7-39.8-5.7-62.5
	C51.1,46.5,99.4,1,161.9,1c31.2,0,51.1,5.7,62.5,14.2L213.1,55c-11.4-5.7-28.4-11.4-51.1-11.4c-45.5,0-62.5,31.2-62.5,71
	c0,25.6,2.8,42.6,5.7,62.5h82.4v36.9h-76.7c0,22.7,2.8,42.6-2.8,65.3c-5.7,25.6-19.9,45.5-39.8,62.5l0,0h173.3v42.6H0z"/>
</svg>
