<?xml version="1.0" encoding="utf-8"?>
<!-- Generator: Adobe Illustrator 21.1.0, SVG Export Plug-In . SVG Version: 6.00 Build 0)  -->
<svg version="1.1" id="Layer_1" xmlns="http://www.w3.org/2000/svg" xmlns:xlink="http://www.w3.org/1999/xlink" x="0px" y="0px"
	 viewBox="0 0 534.7 386" style="enable-background:new 0 0 534.7 386;" xml:space="preserve">
<style type="text/css">
	.st0{enable-background:new    ;}
</style>
<g class="st0">
	<path d="M35.7,329.5C20.9,322.2,9,312.1,0,298.9l23.8-27.9c15.8,22.7,35.8,34,59.9,34c16.1,0,28.4-4.9,36.7-14.8
		c8.3-9.8,12.5-24.3,12.5-43.5V85.7H29.1V50.1h144.3v194.8c0,31.7-7.6,55.6-22.8,71.5s-37.5,24-67,24
		C66.4,340.3,50.4,336.7,35.7,329.5z"/>
	<path d="M257.1,50.1h121c30.3,0,57.3,6,80.8,18c23.5,12,41.7,28.9,54.7,50.6c13,21.7,19.5,46.7,19.5,74.8
		c0,28.2-6.5,53.1-19.5,74.8c-13,21.7-31.2,38.6-54.7,50.6c-23.5,12-50.4,18-80.8,18h-121V50.1z M375.5,301.4
		c23.2,0,43.7-4.5,61.3-13.5c17.6-9,31.2-21.7,40.8-37.9c9.6-16.3,14.4-35.1,14.4-56.4s-4.8-40.1-14.4-56.4
		c-9.6-16.3-23.2-28.9-40.8-37.9c-17.6-9-38.1-13.5-61.3-13.5h-77.5v215.7H375.5z"/>
</g>
</svg>
