<?xml version="1.0" encoding="utf-8"?>
<!-- Generator: Adobe Illustrator 21.1.0, SVG Export Plug-In . SVG Version: 6.00 Build 0)  -->
<svg version="1.1" id="Capa_1" xmlns="http://www.w3.org/2000/svg" xmlns:xlink="http://www.w3.org/1999/xlink" x="0px" y="0px"
	 viewBox="0 0 281.1 385.4" style="enable-background:new 0 0 281.1 385.4;" xml:space="preserve">
<path d="M79.6,295.2c-24.8-13.6-44.2-32.4-58.3-56.6C7.1,215.1,0,188,0,157.9s7.1-57.2,21.2-80.7c14.1-24.2,33.6-43,58.9-56.6
	C104.9,7.1,133.2,0,163.8,0c24.2,0,46,4.1,66,12.4s37.1,20,51.3,35.9L252.2,76c-23-24.8-51.9-36.5-86.6-36.5
	c-23,0-43.6,5.3-61.9,15.3s-33,24.8-43.6,42.4c-10.6,18.3-15.9,38.3-15.9,60.7s5.3,42.4,15.9,60.7s24.8,32.4,43.6,42.4
	c18.3,10,39.5,15.3,61.9,15.3c34.2,0,63.1-12.4,86.6-37.1l28.9,27.7c-14.1,15.9-31.2,27.7-51.3,35.9c-20,8.3-42.4,12.4-66.6,12.4
	C132.6,315.9,104.3,308.8,79.6,295.2z M280.5,343.6H0v41.8h280.5V343.6z"/>
</svg>
