<?xml version="1.0" encoding="utf-8"?>
<!-- Generator: Adobe Illustrator 21.1.0, SVG Export Plug-In . SVG Version: 6.00 Build 0)  -->
<svg version="1.1" id="Capa_1" xmlns="http://www.w3.org/2000/svg" xmlns:xlink="http://www.w3.org/1999/xlink" x="0px" y="0px"
	 viewBox="0 0 560.8 431.3" style="enable-background:new 0 0 560.8 431.3;" xml:space="preserve">
<path d="M556.8,300h-82l-36.1,131.3h-54.9L347.7,300h-136l-36.1,131.3h-58.2L82.4,300H3.1v-49.3h66.4L51,181H3.1v-49.3h34.7L3.1,0.6
	h58.5l29.7,131h119.6l35.8-131h68.7l33.8,131h119l31.4-131h57.3l-35.8,131h35.8V181h-49.3l-19.1,69.6h68.4V300z M197.3,181h-94.9
	l15.6,69.6h60.2L197.3,181z M164.7,300h-35.5l16.2,71.1L164.7,300z M334.2,250.6L314.8,181h-70.5l-19.1,69.6H334.2z M301.3,131.6
	l-21.7-79l-21.7,79H301.3z M456.1,181h-94.3l17.9,69.6h59.9L456.1,181z M427.6,300h-35.3l18.2,71.1L427.6,300z"/>
</svg>
