<?xml version="1.0" encoding="utf-8"?>
<!-- Generator: Adobe Illustrator 21.1.0, SVG Export Plug-In . SVG Version: 6.00 Build 0)  -->
<svg version="1.1" id="Capa_1" xmlns="http://www.w3.org/2000/svg" xmlns:xlink="http://www.w3.org/1999/xlink" x="0px" y="0px"
	 viewBox="0 0 153.2 131.6" style="enable-background:new 0 0 153.2 131.6;" xml:space="preserve">
<path d="M65.5,114.8L44.4,84.7c-2.6,0.2-4.7,0.3-6.2,0.3H14v29.8H0v-98h38.2c12.7,0,22.7,3,30,9.1C75.5,32,79.1,40.3,79.1,51
	c0,7.6-1.9,14-5.6,19.3c-3.7,5.3-9.1,9.2-16,11.6l23.2,32.9H65.5z M58.1,67.3c4.7-3.8,7-9.3,7-16.4c0-7.1-2.3-12.5-7-16.3
	C53.4,30.9,46.7,29,37.8,29H14v44.1h23.8C46.7,73.1,53.4,71.2,58.1,67.3z M103.6,113.2c-5.6-1.6-10-3.7-13.2-6.2L96,96.3
	c3.3,2.3,7.2,4.2,11.9,5.6c4.7,1.4,9.4,2.1,14.1,2.1c11.8,0,17.6-3.4,17.6-10.1c0-2.2-0.8-4-2.4-5.3c-1.6-1.3-3.6-2.3-5.9-2.9
	c-2.4-0.6-5.8-1.3-10.1-2c-6-0.9-10.9-2-14.6-3.2c-3.8-1.2-7-3.3-9.7-6.2c-2.7-2.9-4.1-7-4.1-12.2c0-6.7,2.8-12.1,8.4-16.2
	s13.1-6.1,22.5-6.1c4.9,0,9.9,0.6,14.8,1.8c4.9,1.2,9,2.8,12.2,4.9L145,57.3c-6.1-3.9-13.2-5.9-21.4-5.9c-5.7,0-10,0.9-13,2.8
	c-3,1.9-4.5,4.3-4.5,7.4c0,2.4,0.8,4.3,2.5,5.7s3.8,2.4,6.2,3.1c2.5,0.7,6,1.4,10.4,2.2c6,1,10.8,2.1,14.5,3.3
	c3.7,1.2,6.8,3.1,9.5,6c2.6,2.8,3.9,6.7,3.9,11.8c0,6.7-2.9,12.1-8.6,16c-5.7,4-13.6,5.9-23.5,5.9
	C115,115.6,109.2,114.8,103.6,113.2z"/>
</svg>
