<?xml version="1.0" encoding="utf-8"?>
<!-- Generator: Adobe Illustrator 21.1.0, SVG Export Plug-In . SVG Version: 6.00 Build 0)  -->
<svg version="1.1" id="Layer_1" xmlns="http://www.w3.org/2000/svg" xmlns:xlink="http://www.w3.org/1999/xlink" x="0px" y="0px"
	 viewBox="0 0 177.4 131.6" style="enable-background:new 0 0 177.4 131.6;" xml:space="preserve">
<path d="M0,16.8h14v85.8h53.1v12.2H0V16.8z M83.2,16.8h41.3c10.4,0,19.6,2.1,27.6,6.2c8,4.1,14.3,9.9,18.7,17.3
	c4.4,7.4,6.6,15.9,6.6,25.5c0,9.6-2.2,18.1-6.6,25.5c-4.4,7.4-10.7,13.2-18.7,17.3c-8,4.1-17.2,6.2-27.6,6.2H83.2V16.8z
	 M123.6,102.6c7.9,0,14.9-1.5,20.9-4.6c6-3.1,10.7-7.4,13.9-13c3.3-5.6,4.9-12,4.9-19.3c0-7.3-1.6-13.7-4.9-19.3
	c-3.3-5.6-7.9-9.9-13.9-13c-6-3.1-13-4.6-20.9-4.6H97.2v73.6H123.6z"/>
</svg>
