<?xml version="1.0" encoding="utf-8"?>
<!-- Generator: Adobe Illustrator 21.1.0, SVG Export Plug-In . SVG Version: 6.00 Build 0)  -->
<svg version="1.1" id="Layer_1" xmlns="http://www.w3.org/2000/svg" xmlns:xlink="http://www.w3.org/1999/xlink" x="0px" y="0px"
	 viewBox="0 0 155.3 131.6" style="enable-background:new 0 0 155.3 131.6;" xml:space="preserve">
<path d="M77.3,90.3H25.2l-10.8,24.5H0l44.4-98h13.9l44.5,98H88.1L77.3,90.3z M72.4,79.1l-21.1-48l-21.1,48H72.4z M138.6,43.3
	c4.6-2.2,10.1-3.4,16.7-3.4v13c-0.7-0.1-1.8-0.1-3.1-0.1c-7.3,0-13,2.2-17.1,6.5c-4.2,4.3-6.2,10.5-6.2,18.5v37h-13.4V40.6h12.9
	v12.5C130.6,48.8,134,45.5,138.6,43.3z"/>
</svg>
