<?xml version="1.0" encoding="utf-8"?>
<!-- Generator: Adobe Illustrator 21.1.0, SVG Export Plug-In . SVG Version: 6.00 Build 0)  -->
<svg version="1.1" id="Layer_1" xmlns="http://www.w3.org/2000/svg" xmlns:xlink="http://www.w3.org/1999/xlink" x="0px" y="0px"
	 viewBox="0 0 1226.7 385.4" style="enable-background:new 0 0 1226.7 385.4;" xml:space="preserve">
<style type="text/css">
	.st0{display:none;}
	.st1{display:inline;fill:none;}
</style>
<g>
	<title>background</title>
	<g id="canvasGrid" class="st0">
		<rect x="118" y="474.2" class="st1" width="250" height="160"/>
	</g>
</g>
<path d="M266.1,336.2l-0.4-209.1L162,301.4h-18.9l-103.7-173v207.9H0v-287h33.6l119.7,201.7L271.4,49.2H305l0.4,287H266.1z
	 M442.8,320.4c-23.2-12.7-41.5-30.3-54.7-52.7c-13.3-22.4-19.9-47.4-19.9-75c0-27.6,6.6-52.6,19.9-75c13.3-22.4,31.5-40,54.7-52.7
	c23.2-12.7,49.3-19.1,78.3-19.1c28.7,0,54.7,6.4,77.9,19.1c23.2,12.7,41.4,30.2,54.5,52.5c13.1,22.3,19.7,47.4,19.7,75.2
	s-6.6,53-19.7,75.2c-13.1,22.3-31.3,39.8-54.5,52.5c-23.2,12.7-49.2,19.1-77.9,19.1C492.1,339.5,466,333.1,442.8,320.4z
	 M577.9,288.6c16.8-9.6,30.1-22.8,39.8-39.6c9.7-16.8,14.6-35.6,14.6-56.4c0-20.8-4.9-39.6-14.6-56.4c-9.7-16.8-23-30-39.8-39.6
	c-16.8-9.6-35.7-14.4-56.8-14.4c-21.1,0-40.1,4.8-57.2,14.4c-17.1,9.6-30.5,22.8-40.2,39.6c-9.7,16.8-14.6,35.6-14.6,56.4
	c0,20.8,4.8,39.6,14.6,56.4c9.7,16.8,23.1,30,40.2,39.6c17.1,9.6,36.1,14.4,57.2,14.4C542.1,303,561.1,298.2,577.9,288.6z
	 M935.6,75.9c21.3,17.8,32,42.2,32,73.4s-10.7,55.6-32,73.4c-21.3,17.8-50.6,26.6-87.7,26.6h-70.9v86.9h-41v-287h111.9
	C885,49.2,914.3,58.1,935.6,75.9z M906.1,197c13.7-11.1,20.5-27,20.5-47.8c0-20.8-6.8-36.7-20.5-47.8
	c-13.7-11.1-33.5-16.6-59.5-16.6h-69.7v128.7h69.7C872.6,213.6,892.4,208.1,906.1,197z M1202.3,312.8c-16.3,15-39.8,23.8-70.7,26.2
	v46.3h-26.2v-46.3c-20-1.1-38.9-4.8-56.8-11.3c-17.9-6.4-32.2-14.6-42.8-24.4l15.2-32c9.8,9,22.3,16.5,37.3,22.3
	c15,5.9,30.8,9.4,47.2,10.5v-95.1c-19.1-4.6-35.1-9.7-47.8-15.2c-12.7-5.5-23.4-13.5-32-24.2c-8.6-10.7-12.9-24.6-12.9-41.8
	c0-21.6,7.9-39.9,23.6-54.9c15.7-15,38.7-23.8,69.1-26.2V0h26.2v46.3c15.6,0.6,30.7,3,45.3,7.4c14.6,4.4,27.3,10.3,37.9,17.6
	l-13.5,32.8c-22.1-13.9-45.4-21.6-69.7-23v95.5c19.9,4.9,36.3,10,49.2,15.4c12.8,5.3,23.7,13.3,32.6,23.8
	c8.9,10.5,13.3,24.5,13.3,42C1226.7,279.5,1218.6,297.8,1202.3,312.8z M1066.4,153.8c9,6.6,22,12,39,16.4V81.6
	c-17.5,2.2-30.6,7.3-39.4,15.4c-8.8,8.1-13.1,17.8-13.1,29.3C1052.9,138,1057.4,147.2,1066.4,153.8z M1172.8,289.7
	c9.2-7.8,13.7-17.6,13.7-29.3c0-12-4.7-21.2-14.1-27.7c-9.4-6.4-23-12.1-40.8-17v88.1C1149.9,302.2,1163.6,297.5,1172.8,289.7z"/>
</svg>
