<?xml version="1.0" encoding="utf-8"?>
<!-- Generator: Adobe Illustrator 21.1.0, SVG Export Plug-In . SVG Version: 6.00 Build 0)  -->
<svg version="1.1" id="Layer_1" xmlns="http://www.w3.org/2000/svg" xmlns:xlink="http://www.w3.org/1999/xlink" x="0px" y="0px"
	 viewBox="0 0 632 385.4" style="enable-background:new 0 0 632 385.4;" xml:space="preserve">
<g>
	<path d="M32,306.7c-21.3-21.9-32-53.3-32-94.3V49.2h41v161.5c0,61.5,26.9,92.3,80.8,92.3c26.2,0,46.3-7.6,60.3-22.8
		s20.9-38.3,20.9-69.5V49.2h39.8v163.2c0,41.3-10.7,72.8-32,94.5c-21.3,21.7-51.1,32.6-89.4,32.6C83.1,339.5,53.3,328.6,32,306.7z"
		/>
	<path d="M592.9,336.2l-0.4-209.1L488.7,301.4h-18.9l-103.7-173v207.9h-39.4v-287h33.6l119.7,201.7L598.2,49.2h33.6l0.4,287H592.9z"
		/>
</g>
</svg>
