<?xml version="1.0" encoding="utf-8"?>
<!-- Generator: Adobe Illustrator 21.1.0, SVG Export Plug-In . SVG Version: 6.00 Build 0)  -->
<svg version="1.1" id="Capa_1" xmlns="http://www.w3.org/2000/svg" xmlns:xlink="http://www.w3.org/1999/xlink" x="0px" y="0px"
	 viewBox="0 0 73.8 47.8" style="enable-background:new 0 0 73.8 47.8;" xml:space="preserve">
<style type="text/css">
	.st0{enable-background:new    ;}
</style>
<g class="st0">
	<path d="M31.5,47.2L21.3,32.7c-1.3,0.1-2.2,0.1-3,0.1H6.8v14.3H0v-47h18.4c6.1,0,10.9,1.5,14.4,4.4c3.5,2.9,5.2,6.9,5.2,12
		c0,3.6-0.9,6.7-2.7,9.3s-4.3,4.4-7.7,5.6l11.2,15.8H31.5z M27.9,24.4c2.2-1.8,3.4-4.5,3.4-7.9s-1.1-6-3.4-7.8
		C25.7,6.9,22.4,6,18.2,6H6.8v21.2h11.4C22.4,27.2,25.7,26.3,27.9,24.4z"/>
	<path d="M49.8,46.4c-2.7-0.8-4.8-1.8-6.3-3l2.7-5.1c1.6,1.1,3.5,2,5.7,2.7s4.5,1,6.8,1c5.6,0,8.5-1.6,8.5-4.8
		c0-1.1-0.4-1.9-1.1-2.6s-1.7-1.1-2.9-1.4c-1.1-0.3-2.8-0.6-4.9-1c-2.9-0.4-5.2-1-7-1.5c-1.8-0.6-3.4-1.6-4.7-3s-1.9-3.3-1.9-5.8
		c0-3.2,1.3-5.8,4-7.8c2.7-1.9,6.3-2.9,10.8-2.9c2.4,0,4.7,0.3,7.1,0.9c2.4,0.6,4.3,1.4,5.8,2.4l-2.8,5.1c-2.9-1.9-6.3-2.8-10.3-2.8
		c-2.7,0-4.8,0.4-6.2,1.3s-2.2,2.1-2.2,3.6c0,1.2,0.4,2.1,1.2,2.8c0.8,0.7,1.8,1.2,3,1.5s2.9,0.7,5,1.1c2.9,0.5,5.2,1,7,1.6
		s3.3,1.5,4.5,2.9s1.9,3.2,1.9,5.6c0,3.2-1.4,5.8-4.1,7.7c-2.8,1.9-6.5,2.9-11.3,2.9C55.2,47.6,52.4,47.2,49.8,46.4z"/>
</g>
</svg>
