<?xml version="1.0" encoding="utf-8"?>
<!-- Generator: Adobe Illustrator 21.1.0, SVG Export Plug-In . SVG Version: 6.00 Build 0)  -->
<svg version="1.1" id="Layer_1" xmlns="http://www.w3.org/2000/svg" xmlns:xlink="http://www.w3.org/1999/xlink" x="0px" y="0px"
	 viewBox="0 0 558 385.4" style="enable-background:new 0 0 558 385.4;" xml:space="preserve">
<g>
	<path d="M247.6,203.8c-15,18.9-36.2,31.8-63.5,39l52.5,93.5h-43.5l-50-87.7h-7.8H58.6l-17.2,87.7H0l57.4-287h107
		c33.6,0,59.7,7.3,78.1,21.9c18.5,14.6,27.7,35.3,27.7,62.1C270.2,161.4,262.7,184.9,247.6,203.8z M205,193.9
		c16.1-13.1,24.2-32.1,24.2-57c0-17.2-5.9-30.2-17.6-39c-11.8-8.7-28.7-13.1-50.8-13.1H91.4L65.6,213.6h70.9
		C166.1,213.6,188.9,207.1,205,193.9z"/>
	<path d="M389.1,84.9l-20.1,100h144.3l-7,35.3H362l-23,116h-41l57.4-287H558l-7,35.7H389.1z"/>
</g>
</svg>
