<?xml version="1.0" encoding="utf-8"?>
<!-- Generator: Adobe Illustrator 21.1.0, SVG Export Plug-In . SVG Version: 6.00 Build 0)  -->
<svg version="1.1" id="Capa_1" xmlns="http://www.w3.org/2000/svg" xmlns:xlink="http://www.w3.org/1999/xlink" x="0px" y="0px"
	 viewBox="0 0 288 186.7" style="enable-background:new 0 0 288 186.7;" xml:space="preserve">
<path d="M133.3,162.9l-0.2-101.3L82.9,146h-9.1L23.5,62.2v100.7H4.4v-139h16.3l58,97.7l57.2-97.7h16.3l0.2,139H133.3z M273,151.5
	c-7.9,7.3-19.3,11.5-34.3,12.7v22.4H226v-22.4c-9.7-0.5-18.8-2.3-27.5-5.5c-8.7-3.1-15.6-7.1-20.8-11.8l7.3-15.5
	c4.8,4.4,10.8,8,18.1,10.8c7.3,2.8,14.9,4.5,22.8,5.1v-46.1c-9.3-2.3-17-4.7-23.1-7.3c-6.2-2.6-11.3-6.6-15.5-11.7
	c-4.2-5.2-6.3-11.9-6.3-20.3c0-10.5,3.8-19.3,11.4-26.6s18.8-11.5,33.5-12.7V0h12.7v22.4c7.5,0.3,14.9,1.5,21.9,3.6
	c7.1,2.1,13.2,5,18.4,8.5l-6.6,15.9c-10.7-6.8-22-10.5-33.8-11.1v46.3c9.7,2.4,17.6,4.9,23.8,7.4c6.2,2.6,11.5,6.4,15.8,11.5
	s6.5,11.9,6.5,20.4C284.9,135.4,280.9,144.3,273,151.5z M207.2,74.5c4.4,3.2,10.7,5.8,18.9,7.9V39.5c-8.5,1.1-14.8,3.5-19.1,7.4
	c-4.2,3.9-6.4,8.6-6.4,14.2C200.7,66.9,202.8,71.3,207.2,74.5z M258.7,140.3c4.4-3.8,6.7-8.5,6.7-14.2c0-5.8-2.3-10.3-6.9-13.4
	s-11.2-5.9-19.8-8.2v42.7C247.7,146.4,254.3,144.1,258.7,140.3z"/>
</svg>
