<?xml version="1.0" encoding="utf-8"?>
<!-- Generator: Adobe Illustrator 21.1.0, SVG Export Plug-In . SVG Version: 6.00 Build 0)  -->
<svg version="1.1" id="Capa_1" xmlns="http://www.w3.org/2000/svg" xmlns:xlink="http://www.w3.org/1999/xlink" x="0px" y="0px"
	 viewBox="0 0 512 186.7" style="enable-background:new 0 0 512 186.7;" xml:space="preserve">
<path d="M133.3,162.9l-0.2-101.3L82.9,146h-9.1L23.5,62.2v100.7H4.4v-139h16.3l58,97.7l57.2-97.7h16.3l0.2,139H133.3z M286.1,116.6
	h-85.4c1.2,9.3,5.3,16.7,12.2,22.3c7,5.6,15.6,8.4,25.9,8.4c12.6,0,22.7-4.2,30.4-12.7l10.5,12.3c-4.8,5.6-10.7,9.8-17.8,12.7
	c-7.1,2.9-15,4.4-23.7,4.4c-11.1,0-21-2.3-29.6-6.9c-8.6-4.6-15.3-11-20-19.2c-4.7-8.2-7.1-17.5-7.1-27.8c0-10.2,2.3-19.4,6.9-27.6
	c4.6-8.2,10.9-14.6,18.9-19.2c8-4.6,17-6.9,27.1-6.9c10.1,0,19,2.3,26.9,6.9c7.9,4.6,14,11,18.5,19.2c4.4,8.2,6.7,17.6,6.7,28.2
	C286.5,112.3,286.3,114.2,286.1,116.6z M211.5,81c-6.2,5.6-9.8,12.8-10.8,21.8h67.5c-1.1-8.9-4.7-16.1-10.8-21.7
	c-6.2-5.6-13.8-8.4-22.9-8.4C225.3,72.7,217.6,75.5,211.5,81z M377,162.9l-30.4-40.3l-30.8,40.3h-21.3l41.5-53.8l-39.5-51.4h21.3
	l29,37.9l28.8-37.9h20.9L356.8,109l41.9,53.8H377z M503,151.5c-7.9,7.3-19.3,11.5-34.3,12.7v22.4h-12.7v-22.4
	c-9.7-0.5-18.8-2.3-27.5-5.5c-8.7-3.1-15.6-7.1-20.8-11.8l7.3-15.5c4.8,4.4,10.8,8,18.1,10.8c7.3,2.8,14.9,4.5,22.8,5.1v-46.1
	c-9.3-2.3-17-4.7-23.1-7.3c-6.2-2.6-11.3-6.6-15.5-11.7c-4.2-5.2-6.3-11.9-6.3-20.3c0-10.5,3.8-19.3,11.4-26.6
	c7.6-7.3,18.8-11.5,33.5-12.7V0h12.7v22.4c7.5,0.3,14.9,1.5,21.9,3.6c7.1,2.1,13.2,5,18.4,8.5l-6.6,15.9
	c-10.7-6.8-22-10.5-33.8-11.1v46.3c9.7,2.4,17.6,4.9,23.8,7.4c6.2,2.6,11.5,6.4,15.8,11.5c4.3,5.1,6.5,11.9,6.5,20.4
	C514.9,135.4,510.9,144.3,503,151.5z M437.2,74.5c4.4,3.2,10.7,5.8,18.9,7.9V39.5c-8.5,1.1-14.8,3.5-19.1,7.4
	c-4.2,3.9-6.4,8.6-6.4,14.2C430.7,66.9,432.8,71.3,437.2,74.5z M488.7,140.3c4.4-3.8,6.7-8.5,6.7-14.2c0-5.8-2.3-10.3-6.9-13.4
	c-4.6-3.1-11.2-5.9-19.8-8.2v42.7C477.7,146.4,484.3,144.1,488.7,140.3z"/>
</svg>
