<?xml version="1.0" encoding="utf-8"?>
<!-- Generator: Adobe Illustrator 21.1.0, SVG Export Plug-In . SVG Version: 6.00 Build 0)  -->
<svg version="1.1" id="Capa_1" xmlns="http://www.w3.org/2000/svg" xmlns:xlink="http://www.w3.org/1999/xlink" x="0px" y="0px"
	 viewBox="0 0 594.3 385.4" style="enable-background:new 0 0 594.3 385.4;" xml:space="preserve">
<g>
	<path d="M196,336.2L130.4,244c-7.4,0.8-15,1.2-23,1.2H30.3v91H0v-287h107.4c36.6,0,65.3,8.8,86.1,26.2
		c20.8,17.5,31.2,41.6,31.2,72.2c0,22.4-5.7,41.3-17,56.8c-11.3,15.4-27.5,26.6-48.6,33.4l70.1,98.4H196z M171.8,200.5
		c15-12.6,22.6-30.2,22.6-52.9c0-23.2-7.5-41.1-22.6-53.5c-15-12.4-36.8-18.7-65.2-18.7H30.3v143.9h76.3
		C135,219.4,156.8,213.1,171.8,200.5z"/>
	<path d="M594.5,49.2v287h-29.1V106.6L452.6,299.7h-14.4L325.5,107.8v228.4h-29.1v-287h25L446.1,262L569.5,49.2H594.5z"/>
</g>
</svg>
