<?xml version="1.0" encoding="utf-8"?>
<!-- Generator: Adobe Illustrator 21.1.0, SVG Export Plug-In . SVG Version: 6.00 Build 0)  -->
<svg version="1.1" id="Capa_1" xmlns="http://www.w3.org/2000/svg" xmlns:xlink="http://www.w3.org/1999/xlink" x="0px" y="0px"
	 viewBox="0 0 496.3 406.3" style="enable-background:new 0 0 496.3 406.3;" xml:space="preserve">
<g>
	<path d="M477.8,229.3h-67.7v-65.1h67.7c10.2,0,18.4-8.2,18.4-18.4c0-10.2-8.3-18.4-18.4-18.4h-67.7V37c0-13.2-2.6-22.9-7.7-28.8
		C397.5,2.6,391,0,382.2,0c-8.5,0-14.7,2.6-19.4,8.2c-5.1,5.9-7.7,15.6-7.7,28.8v90.3H227.6l-54.2-82c-4.6-7.3-9-14.2-13.2-20.8
		c-3.8-5.9-7.5-10.7-11-14.4c-3.1-3.2-6.7-5.7-10.8-7.6c-3.9-1.8-8.9-2.7-14.8-2.7c-7.5,0-14.3,2.1-20.8,6.3
		c-6.5,4.2-10.9,9.3-13.6,15.8c-2.4,6.1-3.7,15.5-3.7,27.6v77.6H18.4C8.2,127.3,0,135.6,0,145.8s8.2,18.4,18.4,18.4h67.1v65.1H18.4
		C8.2,229.3,0,237.5,0,247.7c0,10.2,8.2,18.4,18.4,18.4h67.1v103.1c0,12.8,2.7,22.4,8,28.5c5.1,5.8,11.5,8.5,20.2,8.5
		c8.4,0,14.8-2.7,20.1-8.5c5.4-6,8.1-15.5,8.1-28.4V266.1h115.3l62.4,95.7c4.3,6.3,8.8,12.7,13.3,19c4,5.6,8.4,10.6,13.1,14.7
		c4.2,3.7,8.7,6.5,13.3,8.2c4.8,1.7,10.4,2.6,16.6,2.6c16.9,0,34.2-5.2,34.2-43.5v-96.6h67.7c10.2,0,18.4-8.3,18.4-18.4
		C496.3,237.5,488,229.3,477.8,229.3z M355.1,164.2v65.1h-60l-43-65.1H355.1L355.1,164.2z M141.9,89.4l24.8,38h-24.8V89.4z
		 M141.9,229.3v-65.1h48.8l42.5,65.1H141.9z M355.1,320.2l-35.7-54h35.7L355.1,320.2L355.1,320.2z"/>
</g>
</svg>
