<?xml version="1.0" encoding="utf-8"?>
<!-- Generator: Adobe Illustrator 21.1.0, SVG Export Plug-In . SVG Version: 6.00 Build 0)  -->
<svg version="1.1" id="Capa_1" xmlns="http://www.w3.org/2000/svg" xmlns:xlink="http://www.w3.org/1999/xlink" x="0px" y="0px"
	 viewBox="0 0 513.3 385.4" style="enable-background:new 0 0 513.3 385.4;" xml:space="preserve">
<path d="M74,320.4c-23.1-12.7-41.2-30.2-54.3-52.5C6.6,245.7,0,220.6,0,192.7s6.6-53,19.7-75.2C32.8,95.2,51,77.7,74.2,65
	c23.2-12.7,49.2-19.1,77.9-19.1c22.4,0,42.9,3.8,61.5,11.3c18.6,7.5,34.4,18.7,47.6,33.4l-26.6,25.8c-21.6-22.7-48.5-34-80.8-34
	c-21.3,0-40.6,4.8-57.8,14.4c-17.2,9.6-30.7,22.8-40.4,39.6C45.8,153.1,41,171.9,41,192.7c0,20.8,4.8,39.6,14.6,56.4
	c9.7,16.8,23.2,30,40.4,39.6c17.2,9.6,36.5,14.4,57.8,14.4c32,0,58.9-11.5,80.8-34.4l26.6,25.8c-13.1,14.8-29,26-47.8,33.6
	c-18.7,7.7-39.3,11.5-61.7,11.5C123,339.5,97.1,333.1,74,320.4z M488.9,312.8c-16.3,15-39.8,23.8-70.7,26.2v46.3H392v-46.3
	c-20-1.1-38.9-4.8-56.8-11.3c-17.9-6.4-32.2-14.6-42.8-24.4l15.2-32c9.8,9,22.3,16.5,37.3,22.3c15,5.9,30.8,9.4,47.2,10.5v-95.1
	c-19.1-4.6-35.1-9.7-47.8-15.2c-12.7-5.5-23.4-13.5-32-24.2c-8.6-10.7-12.9-24.6-12.9-41.8c0-21.6,7.9-39.9,23.6-54.9
	c15.7-15,38.7-23.8,69.1-26.2V0h26.2v46.3c15.6,0.6,30.7,3,45.3,7.4c14.6,4.4,27.3,10.3,37.9,17.6l-13.5,32.8
	c-22.1-13.9-45.4-21.6-69.7-23v95.5c19.9,4.9,36.3,10,49.2,15.4c12.8,5.3,23.7,13.3,32.6,23.8c8.9,10.5,13.3,24.5,13.3,42
	C513.3,279.5,505.2,297.8,488.9,312.8z M353,153.8c9,6.6,22,12,39,16.4V81.6c-17.5,2.2-30.6,7.3-39.4,15.4
	c-8.8,8.1-13.1,17.8-13.1,29.3C339.5,138,344,147.2,353,153.8z M459.4,289.7c9.2-7.8,13.7-17.6,13.7-29.3c0-12-4.7-21.2-14.1-27.7
	c-9.4-6.4-23-12.1-40.8-17v88.1C436.5,302.2,450.2,297.5,459.4,289.7z"/>
</svg>
