<?xml version="1.0" encoding="utf-8"?>
<!-- Generator: Adobe Illustrator 21.1.0, SVG Export Plug-In . SVG Version: 6.00 Build 0)  -->
<svg version="1.1" id="Capa_1" xmlns="http://www.w3.org/2000/svg" xmlns:xlink="http://www.w3.org/1999/xlink" x="0px" y="0px"
	 viewBox="0 0 312.3 386.1" style="enable-background:new 0 0 312.3 386.1;" xml:space="preserve">
<path d="M312.3,291.2l-1.3,1.3l-21.1,5.3c-5.3-77.7-11.9-101.5-51.4-126.5c-13.2-7.9-34.3-11.9-50.1-9.2
	c-13.2,31.6-38.2,52.7-69.8,69.8c31.6,36.9,83,72.5,145,106.7l-26.4,47.4h-4C168.7,336,116,286,80.4,234.6
	c-18.4-26.4-27.7-48.8-27.7-61.9c0-6.6,1.3-13.2,6.6-19.8C64.6,145,76.4,141,94.9,141c15.8,0,32.9,1.3,47.4,2.6
	c7.9-13.2,13.2-34.3,13.2-56.7c0-13.2-1.3-30.3-4-46.1H18.4L0,4l2.6-4h267.5l18.4,35.6l-2.6,4h-92.2c4,19.8,5.3,40.9,5.3,63.3
	c0,4,0,9.2,0,13.2l0,0c15.8,0,32.9,5.3,44.8,11.9C289.9,156.8,308.4,183.2,312.3,291.2z"/>
</svg>
