<?xml version="1.0" encoding="utf-8"?>
<!-- Generator: Adobe Illustrator 21.1.0, SVG Export Plug-In . SVG Version: 6.00 Build 0)  -->
<svg version="1.1" id="Capa_1" xmlns="http://www.w3.org/2000/svg" xmlns:xlink="http://www.w3.org/1999/xlink" x="0px" y="0px"
	 viewBox="0 0 88.8 66.2" style="enable-background:new 0 0 88.8 66.2;" xml:space="preserve">
<g>
	<g>
		<path d="M55,46.9L55,46.9c1.6,0,3.3,0,4.9,0l0.7,0c1.9,0,3.8,0,5.7,0c0.5,0,0.8-0.4,0.9-0.8C68.1,32.6,67,26.9,63,23.5
			c-0.2-0.1-0.4-0.2-0.6-0.2l-0.1,0c-0.2,0-0.5,0.2-0.6,0.3c-2.3,3.1-2.2,5.8,0.2,9c0.9,1.1,1.2,2.8,1.6,4.8
			c0.1,0.6,0.3,1.2,0.4,1.9c-1.4,0-2.8,0-4.2,0l-0.4,0c-1.5,0-2.9,0-4.2,0c-2.5,0-4.5,0-6.3,0.1l-0.3,0c-2.4,0-3.5-0.9-3.7-3
			c-0.2-2.8-0.5-6.2-0.8-9.4c-0.3-4.2-0.6-8.1-0.8-10.3C43,12.8,40.8,6.6,40.6,5.8c-0.1-0.4-0.5-0.6-0.8-0.6c-0.4,0-0.7,0.2-0.8,0.6
			c-0.2,0.6-0.5,1.2-0.7,1.7c-0.6,1.4-1.3,2.9-1.1,4.4c0.3,3.2,0.9,6.4,1.5,9.6l0,0.1c0.4,2,0.7,4,1,6c0.3,2,0.5,4.1,0.7,6
			c0.2,2.4,0.5,4.8,0.9,7.3c0.6,3.7,2.7,5.8,5.9,5.9C49.4,46.8,51.9,46.9,55,46.9z"/>
		<path d="M54,54.1l3.5,4c0.2,0.2,0.4,0.3,0.6,0.3l0.1,0c0.2,0,0.4-0.1,0.6-0.2l3.8-3.5c0.3-0.3,0.4-0.9,0.1-1.2l-3.7-4.3
			c-0.2-0.2-0.4-0.3-0.7-0.3c-0.2,0-0.4,0.1-0.6,0.2l-3.8,3.5c-0.1,0.1-0.2,0.3-0.2,0.4l-3.4-4.1c-0.2-0.2-0.4-0.3-0.7-0.3
			c-0.2,0-0.4,0.1-0.6,0.2L45,52.3c-0.4,0.3-0.4,0.9-0.1,1.2l3.8,4.4c0.2,0.2,0.4,0.3,0.6,0.3h0c0.2,0,0.4-0.1,0.6-0.2l3.7-3.4
			C53.9,54.4,53.9,54.2,54,54.1z"/>
		<path d="M34.4,6.7c-0.2-1.4-1.2-2.6-3.1-3.7c-0.7-0.4-1.4-1.1-2.1-1.7c-0.4-0.4-0.7-0.7-1.1-1.1C27.9,0.1,27.7,0,27.5,0l-0.1,0
			c-0.3,0-0.5,0.2-0.6,0.4c-2.1,3.6-1.3,6.8-0.5,10.4l0.2,0.9c1.6,6.9,2.3,14.2,3,21.2l0.2,2.6c0.4,4.4-0.1,7.3-1.7,9.2
			c-1.6,2-4.5,3-9.2,3.5c-0.8,0.1-1.6,0.1-2.3,0.1l-1.7,0c-4.4,0-7.5-1.2-9.1-3.4c-0.8-1.1-1.1-2-1-3.1c0.1-1.3,1.4-5.4,3.4-8.5
			c0.3-0.4,0.4-1,0.3-1.5c-0.1-0.5-0.4-1-0.9-1.3c-0.9-0.6-2.2-0.3-2.8,0.6c-2.8,4-4.2,9.5-4.4,10.6c-0.8,3.2-0.2,6.3,1.5,8.8
			c1.8,2.5,4.6,4.1,8,4.6c1.7,0.2,3.5,0.3,5.5,0.3c1.6,0,3.4-0.1,5.4-0.2c4.7-0.4,8.3-1.9,10.6-4.6c2.5-2.9,3.5-7.2,3-12.6
			c-0.4-4.6-1-9.3-1.5-13.8l0-0.3c-0.4-3.3-0.8-6.7-1.1-10C31.5,13,31.7,12,32,11.6C33.8,9.8,34.6,8.2,34.4,6.7z"/>
		<path d="M85.9,35.5l-0.5-0.6c-1-1.3-3.6-4.6-5.9-7.3c-1.1-1.3-3.3-1.4-4.6-0.3c-1.3,1.2-1.5,3.2-0.3,4.6c1.7,2,3.6,4.4,5,6
			c0.2,0.3,0.4,0.5,0.6,0.8c0.2,0.2,0.3,0.4,0.5,0.7c1.7,2,4.1,5.9,1.2,10.3c-5.4,8.1-11.6,12.2-18.5,12.2c0,0,0,0,0,0
			c-0.5,0-1.1,0-1.6-0.1c-1.4-0.1-2.8-0.4-4.1-0.7c-0.3-0.1-0.6-0.1-0.9-0.2c-0.4-0.1-0.7-0.2-1-0.2c-0.7-0.2-1.2,0.4-1.3,0.8
			c-0.1,0.4,0.2,0.9,0.6,1c1.5,0.4,3,1,4.4,1.5c3.1,1.1,6.3,2.3,9.5,2.3c0.3,0,0.5,0,0.8,0C76.4,65.8,81,61,85.9,54
			c0.1-0.1,2.9-3.1,2.9-9C88.9,39.1,86,35.6,85.9,35.5z"/>
	</g>
</g>
</svg>
