<?xml version="1.0" encoding="utf-8"?>
<!-- Generator: Adobe Illustrator 21.1.0, SVG Export Plug-In . SVG Version: 6.00 Build 0)  -->
<svg version="1.1" id="Capa_1" xmlns="http://www.w3.org/2000/svg" xmlns:xlink="http://www.w3.org/1999/xlink" x="0px" y="0px"
	 viewBox="0 0 482.4 335.3" style="enable-background:new 0 0 482.4 335.3;" xml:space="preserve">
<g>
	<path d="M423.2,9.2L296.1,331c-1,2.6-3.5,4.3-6.3,4.3H259c-2.2,0-4.3-1.1-5.6-2.9c-1.3-1.8-1.5-4.2-0.7-6.2L378.9,4.3
		c1-2.6,3.5-4.3,6.3-4.3h31.8c2.2,0,4.3,1.1,5.6,2.9C423.7,4.8,424,7.1,423.2,9.2z M482.4,294.6c0,20.7-14.4,35.7-34.3,35.7h-0.5
		c-19.1,0-33.4-15.4-33.4-35.7c0-20.4,14.8-35.7,34.3-35.7C468.2,258.9,482.4,273.9,482.4,294.6z M208.1,159.5l-9.9-4.5l9.7-4.9
		c19.8-10,43.1-29.7,42.1-66.1c-2-73.3-70.8-83.5-144.9-83.5L4.7,0.5C2.1,0.5,0,2.7,0,5.2v323.4c0,1.3,0.5,2.5,1.4,3.4
		c0.9,0.9,2,1.3,3.3,1.3l83,0.2c4.4,0.1,8.6,0.2,12.8,0.2c58.5,0,100.8-12.7,125.7-37.9c15.6-15.7,23.4-36.3,23.1-61.2
		C248.9,196.2,235.4,171.6,208.1,159.5z M171.4,118.7c-10.7,10.9-23.3,11.9-34.3,12.7l-2.8,0.2c-1.6,0.1-2.5,0.1-4,0
		c-0.1,0-0.1,0-0.1,0l-67.6,0V45.1l70.4,0.1c22.7,0,49.3,11,49.3,41.9C182.4,100.6,178.8,111.2,171.4,118.7z M62.5,194.6l69.9,0.3
		c23,0,49.8,11,49.8,41.9c0.2,13.4-3.4,24-10.7,31.5c-11.6,11.9-29.9,13.1-37.1,13.1c-1.3,0-2.3,0-3.5-0.1l-68.3,0L62.5,194.6
		L62.5,194.6z"/>
</g>
</svg>
