<?xml version="1.0" encoding="utf-8"?>
<!-- Generator: Adobe Illustrator 21.1.0, SVG Export Plug-In . SVG Version: 6.00 Build 0)  -->
<svg version="1.1" id="Capa_1" xmlns="http://www.w3.org/2000/svg" xmlns:xlink="http://www.w3.org/1999/xlink" x="0px" y="0px"
	 viewBox="0 0 69.2 58.1" style="enable-background:new 0 0 69.2 58.1;" xml:space="preserve">
<path d="M69.2,2.3L46.6,56.5c-0.2,0.4-0.6,0.7-1.1,0.7H40c-0.4,0-0.8-0.2-1-0.5c-0.2-0.3-0.3-0.7-0.1-1.1L61.3,1.5
	c0.2-0.4,0.6-0.7,1.1-0.7H68c0.4,0,0.8,0.2,1,0.5C69.2,1.6,69.3,1.9,69.2,2.3z M22,23.8c-8.3-3.1-9.8-5.1-9.8-8.4c0-3,2.6-6,8.5-6
	c5.3,0,8.6,1.7,9.4,2.2c0.5,0.3,1.1,0.4,1.6,0.2c0.6-0.2,1-0.6,1.2-1.2l2-5.5c0.3-0.9-0.1-1.8-0.9-2.2C32.6,2,28.3,0,21,0
	C9.3,0,1.2,6.6,1.2,16.2c0,7.6,5.2,13.1,15.9,16.8c7.7,2.7,9.2,5.2,9.2,8.6c0,4.4-3.6,7.1-9.7,7.1c-4.2,0-8.4-1.1-11.7-3.1
	c-0.5-0.3-1.1-0.4-1.7-0.2c-0.6,0.2-1,0.6-1.2,1.2l-1.9,5.7c-0.3,0.8,0.1,1.7,0.8,2.2c3.4,2.2,9.8,3.7,15.2,3.7
	c15.7,0,21.2-9.2,21.2-17.1C37.3,32.8,32.9,27.9,22,23.8z"/>
</svg>
