<?xml version="1.0" encoding="utf-8"?>
<!-- Generator: Adobe Illustrator 21.1.0, SVG Export Plug-In . SVG Version: 6.00 Build 0)  -->
<svg version="1.1" id="Layer_1" xmlns="http://www.w3.org/2000/svg" xmlns:xlink="http://www.w3.org/1999/xlink" x="0px" y="0px"
	 viewBox="0 0 723.2 980" style="enable-background:new 0 0 723.2 980;" xml:space="preserve">
<g>
	<g transform="translate(0.000000,511.000000) scale(0.100000,-0.100000)">
		<path d="M0,210v-4900h612.5H1225v1551.7v1551.7l841.2,990.2c461.4,545.1,845.2,990.2,851.4,990.2c6.1,0,669.7-1145.4,1472-2541.9
			L5849.4-4690h690.1h692.1l-49,85.8c-26.5,49-824.8,1412.8-1770.1,3033.9L3691.3,1377.8l38.8,42.9
			c98,108.2,3007.4,3668.9,3007.4,3679.1c0,6.1-310.3,10.2-690.1,10.2h-690.1L3315.7,2649.8
			C2194.8,1296.2,1263.8,189.6,1251.5,189.6c-20.4,0-26.5,506.3-26.5,2460.2V5110H612.5H0V210z"/>
	</g>
</g>
</svg>
