<?xml version="1.0" encoding="utf-8"?>
<!-- Generator: Adobe Illustrator 21.1.0, SVG Export Plug-In . SVG Version: 6.00 Build 0)  -->
<svg version="1.1" id="Capa_1" xmlns="http://www.w3.org/2000/svg" xmlns:xlink="http://www.w3.org/1999/xlink" x="0px" y="0px"
	 viewBox="0 0 512 487.4" style="enable-background:new 0 0 512 487.4;" xml:space="preserve">
<style type="text/css">
	.st0{fill:#020202;}
</style>
<g>
	<path class="st0" d="M497.1,168.8h-72.5c1.3-8.9,2-18.2,2-28c0-7.5-0.6-14.7-1.4-21.7h71.8c8.2,0,14.9-6.7,14.9-14.9
		c0-8.2-6.7-14.9-14.9-14.9h-78.1c-1-3.2-2-6.4-3.2-9.4c-7.2-17.7-17.8-32.9-31.5-45c-13.8-12.2-26.7-21.1-45.7-26.4
		C318.7,2.9,293.7,0,256.6,0H128.2c-19.9,0-34.4,4.1-43.1,12.1c-8.5,7.9-12.8,22-12.8,41.7v35.4H14.9C6.7,89.3,0,96,0,104.2
		c0,8.2,6.7,14.9,14.9,14.9h57.4v49.7H14.9c-8.2,0-14.9,6.7-14.9,14.9s6.7,14.9,14.9,14.9h57.4v235.9c0,17.8,4,31.2,11.9,40
		c7.8,8.7,17.9,12.9,30.8,12.9c12.3,0,22.2-4.3,30.2-13.1c8.1-8.9,12.2-22.5,12.2-40.5V286.6h99.1c59.2,0,96.8-12.5,126.2-37.2
		c15.9-13.3,27.3-30.4,34.6-50.8h79.7c8.2,0,14.9-6.7,14.9-14.9S505.3,168.8,497.1,168.8z M157.5,60.2h74.8
		c47.2,0,77.9,7.9,93.9,24.1c1.5,1.6,2.8,3.3,4.2,4.9H157.5V60.2z M293.7,218.3c-16.5,5.1-37.1,7.7-61.4,7.7h-74.8v-27.4h169.7
		C318.6,207.4,307.4,214,293.7,218.3z M344.3,168.8H157.5v-49.7h187.3c1.8,7.4,2.8,15.3,2.8,23.7
		C347.6,152.3,346.5,160.9,344.3,168.8z"/>
</g>
</svg>
