<?xml version="1.0" encoding="utf-8"?>
<!-- Generator: Adobe Illustrator 21.1.0, SVG Export Plug-In . SVG Version: 6.00 Build 0)  -->
<svg version="1.1" id="Capa_1" xmlns="http://www.w3.org/2000/svg" xmlns:xlink="http://www.w3.org/1999/xlink" x="0px" y="0px"
	 viewBox="0 0 448.5 385.4" style="enable-background:new 0 0 448.5 385.4;" xml:space="preserve">
<g>
	<path d="M191.9,336.2L130,248.1c-7.7,0.6-13.7,0.8-18,0.8H41v87.3H0v-287h111.9c37.2,0,66.4,8.9,87.7,26.6
		c21.3,17.8,32,42.2,32,73.4c0,22.1-5.5,41-16.4,56.6c-10.9,15.6-26.5,26.9-46.7,34l68.1,96.4H191.9z M170.2,197.2
		c13.7-11.2,20.5-27.2,20.5-48c0-20.8-6.8-36.7-20.5-47.8c-13.7-11.1-33.5-16.6-59.5-16.6H41V214h69.7
		C136.7,214,156.5,208.4,170.2,197.2z"/>
	<path d="M303.4,331.5c-16.4-4.8-29.3-10.9-38.5-18.2l16.4-31.2c9.6,6.8,21.2,12.3,34.8,16.4c13.7,4.1,27.5,6.2,41.4,6.2
		c34.4,0,51.7-9.8,51.7-29.5c0-6.6-2.3-11.7-7-15.6c-4.7-3.8-10.5-6.6-17.4-8.4c-7-1.8-16.9-3.8-29.7-5.9
		c-17.5-2.7-31.8-5.9-42.8-9.4c-11.1-3.5-20.6-9.6-28.5-18c-7.9-8.5-11.9-20.4-11.9-35.7c0-19.7,8.2-35.5,24.6-47.4
		c16.4-11.9,38.4-17.8,66-17.8c14.5,0,29,1.8,43.5,5.3c14.5,3.6,26.4,8.3,35.7,14.4l-16.8,31.2c-17.8-11.5-38.7-17.2-62.7-17.2
		c-16.7,0-29.4,2.7-38.1,8.2c-8.8,5.5-13.1,12.7-13.1,21.7c0,7.1,2.5,12.7,7.4,16.8c4.9,4.1,11,7.1,18.2,9
		c7.2,1.9,17.4,4.1,30.5,6.6c17.5,3,31.6,6.2,42.4,9.6c10.8,3.4,20,9.2,27.7,17.4c7.6,8.2,11.5,19.7,11.5,34.4
		c0,19.7-8.4,35.3-25.2,46.9c-16.8,11.6-39.7,17.4-68.7,17.4C336.9,338.7,319.8,336.3,303.4,331.5z"/>
</g>
</svg>
