<?xml version="1.0" encoding="utf-8"?>
<!-- Generator: Adobe Illustrator 21.1.0, SVG Export Plug-In . SVG Version: 6.00 Build 0)  -->
<svg version="1.1"
	 id="svg2" inkscape:output_extension="org.inkscape.output.svg.inkscape" inkscape:version="0.46" sodipodi:docname="Parag-guarani-G.svg" sodipodi:version="0.32" xmlns:cc="http://creativecommons.org/ns#" xmlns:dc="http://purl.org/dc/elements/1.1/" xmlns:inkscape="http://www.inkscape.org/namespaces/inkscape" xmlns:rdf="http://www.w3.org/1999/02/22-rdf-syntax-ns#" xmlns:sodipodi="http://sodipodi.sourceforge.net/DTD/sodipodi-0.dtd" xmlns:svg="http://www.w3.org/2000/svg"
	 xmlns="http://www.w3.org/2000/svg" xmlns:xlink="http://www.w3.org/1999/xlink" x="0px" y="0px" viewBox="0 0 238 385.4"
	 style="enable-background:new 0 0 238 385.4;" xml:space="preserve">
<defs>
	
	
		<inkscape:perspective  id="perspective9" inkscape:persp3d-origin="372.04724 : 350.78739 : 1" inkscape:vp_x="0 : 526.18109 : 1" inkscape:vp_y="0 : 1000 : 0" inkscape:vp_z="744.09448 : 526.18109 : 1" sodipodi:type="inkscape:persp3d">
		</inkscape:perspective>
</defs>
<sodipodi:namedview  bordercolor="#666666" borderopacity="1.0" gridtolerance="10.0" guidetolerance="10.0" id="base" inkscape:current-layer="svg2" inkscape:cx="98.334367" inkscape:cy="58.322042" inkscape:pageopacity="0.0" inkscape:pageshadow="2" inkscape:window-height="750" inkscape:window-width="1280" inkscape:window-x="-8" inkscape:window-y="-8" inkscape:zoom="2.75" objecttolerance="10.0" pagecolor="#ffffff" showgrid="false">
	</sodipodi:namedview>
<path id="path2384" sodipodi:nodetypes="ccssssscccssssssssssssssscccccssscccccsssscccsssccc" d="M35.8,380.8l9.3-26.9
	c10.7-28.7,11.8-30.4,10.7-31.3c-2.6-1.9-5.3-4.7-10-7.5c-12.8-7.3-32.3-27.1-42.1-68c-5.8-24.2-4.5-77.8,1.3-100.3
	C14.3,110,36,82,66.7,66.9c21-10.3,39.9-14,63-12.3l17.7,1.3l9.7-27.5c9.4-26.6,8.8-28.7,10.9-28.1c1.1,0.3,14.8,3.9,15.9,4.2
	c1.7,0.4-0.4,3.9-8,27.4c-9,27.9-8.9,29.7-8.6,29.8c1.5,0.8,11.3,4.8,17.4,8.7c6.1,3.9,11.6,7.1,12.2,7.1c0.6,0,1.1-3,1.1-6.6
	c0-7.5,1.2-12.6,9.8-12.2c8.4,0.4,9.2,8.2,8.5,38c-0.6,24.2-0.8,30.3-4.8,31.2c-11.3,2.5-12.1-1.1-14.1-12.8
	c-1.2-7.1-4.3-12.9-10.3-18.9c-7.7-7.9-26.2-16.6-28.4-16.4c-2.4,0.2-78.5,230.2-78.5,232.6c0,3.9,30.6,10,50,10
	c18.5,0,37.6-4.1,56.2-12.1l11.6-5v-37.4v-37.4h-35.5c-36.8,0-44.9,0.5-44.6-9.4c0.3-11,7.5-9.4,60-9.4c52,0,60.2-1.1,60,9
	c-0.1,9.1-4.8,9.8-13.4,9.8h-7.8v43.2v43.2l-15.9,7.2c-23.6,10.7-39.3,14.7-64.2,16.2c-16.4,1-27.1,0.3-40-2.6
	c-9.7-2.2-20.9-3.8-22.2-5c-0.4-0.3-5.9,17.3-9.1,26.5c-3.9,11.2-6.8,20.2-9.3,27.2L35.8,380.8z M101.2,191
	c21.2-61.8,40-114.5,39.2-115.5c-2.2-2.5-31-3.3-46.6,0.7c-28.1,7.2-52.9,25.9-65.7,61.3c-5.8,16-9.2,30.5-8.6,65.9
	c-0.3,39.2,6,76.2,41.3,100.1C61.8,303.4,80,252.8,101.2,191z"/>
</svg>
