<?xml version="1.0" encoding="utf-8"?>
<!-- Generator: Adobe Illustrator 21.1.0, SVG Export Plug-In . SVG Version: 6.00 Build 0)  -->
<svg version="1.1" id="Capa_1" xmlns="http://www.w3.org/2000/svg" xmlns:xlink="http://www.w3.org/1999/xlink" x="0px" y="0px"
	 viewBox="0 0 604.3 396.1" style="enable-background:new 0 0 604.3 396.1;" xml:space="preserve">
<path d="M319,362.4c-9.3,10.9-20.1,19.3-32.4,25s-25.6,8.6-39.8,8.6c-18,0-34.9-4.3-50.6-12.9c-15.7-8.6-33.7-23.3-53.9-44.1
	c-27.1-1.4-51.5-8.6-73.2-21.7c-21.7-13.1-38.7-30.5-50.8-52.3C6.1,243.3,0,219.2,0,192.7c0-27.6,6.6-52.6,19.9-75
	c13.3-22.4,31.5-40,54.7-52.7c23.2-12.7,49.3-19.1,78.3-19.1c28.7,0,54.7,6.4,77.9,19.1c23.2,12.7,41.4,30.2,54.5,52.5
	c13.1,22.3,19.7,47.4,19.7,75.2c0,23.5-4.7,45.1-14.1,64.8c-9.4,19.7-22.7,36.2-39.8,49.6c-17.1,13.4-36.7,22.7-58.8,27.9
	c9.6,10.1,18.8,17.4,27.7,21.9c8.9,4.5,18,6.8,27.3,6.8c20.2,0,37.7-8.2,52.5-24.6L319,362.4z M55.6,249.1
	c9.7,16.8,23.1,30,40.2,39.6c17.1,9.6,36.1,14.4,57.2,14.4c20.8,0,39.6-4.8,56.6-14.4c16.9-9.6,30.3-22.8,40-39.6
	c9.7-16.8,14.6-35.6,14.6-56.4c0-20.8-4.9-39.6-14.6-56.4c-9.7-16.8-23-30-40-39.6c-17-9.6-35.8-14.4-56.6-14.4
	c-21.1,0-40.1,4.8-57.2,14.4c-17.1,9.6-30.5,22.8-40.2,39.6C45.8,153.1,41,171.9,41,192.7C41,213.5,45.8,232.3,55.6,249.1z
	 M559.6,336.2l-61.9-88.1c-7.7,0.6-13.7,0.8-18,0.8h-70.9v87.3h-41v-287h111.9c37.2,0,66.4,8.9,87.7,26.6c21.3,17.8,32,42.2,32,73.4
	c0,22.1-5.5,41-16.4,56.6c-10.9,15.6-26.5,26.9-46.7,34l68.1,96.4H559.6z M537.9,197.2c13.7-11.2,20.5-27.2,20.5-48
	c0-20.8-6.8-36.7-20.5-47.8c-13.7-11.1-33.5-16.6-59.5-16.6h-69.7V214h69.7C504.4,214,524.2,208.4,537.9,197.2z"/>
</svg>
