<?xml version="1.0" encoding="utf-8"?>
<!-- Generator: Adobe Illustrator 21.1.0, SVG Export Plug-In . SVG Version: 6.00 Build 0)  -->
<svg version="1.1" id="Layer_1" xmlns="http://www.w3.org/2000/svg" xmlns:xlink="http://www.w3.org/1999/xlink" x="0px" y="0px"
	 viewBox="0 0 411.6 385.4" style="enable-background:new 0 0 411.6 385.4;" xml:space="preserve">
<g>
	<path d="M0,32h39.4v304.2H0V32z"/>
	<path d="M310,240.7H133.7c2.5,19.1,10.9,34.5,25.2,46.1c14.4,11.6,32.2,17.4,53.5,17.4c26,0,46.9-8.7,62.7-26.2l21.7,25.4
		c-9.8,11.5-22.1,20.2-36.7,26.2c-14.6,6-31,9-49,9c-23,0-43.3-4.7-61.1-14.1c-17.8-9.4-31.5-22.6-41.2-39.6
		c-9.7-16.9-14.6-36.1-14.6-57.4c0-21,4.7-40,14.1-57c9.4-16.9,22.4-30.1,38.9-39.6c16.5-9.4,35.2-14.1,56-14.1
		c20.8,0,39.3,4.7,55.6,14.1c16.3,9.4,29,22.6,38.1,39.6c9.2,17,13.7,36.4,13.7,58.2C310.8,231.8,310.5,235.8,310,240.7z M156,167.3
		c-12.7,11.5-20.2,26.5-22.3,45.1h139.4c-2.2-18.3-9.6-33.3-22.3-44.9c-12.7-11.6-28.5-17.4-47.4-17.4
		C184.5,150.1,168.7,155.8,156,167.3z"/>
	<path d="M365.9,69.7c-5.1-4.9-7.6-10.9-7.6-18c0-7.1,2.5-13.2,7.6-18.2c5.1-5.1,11.4-7.6,19.1-7.6c7.6,0,14,2.4,19.1,7.2
		c5.1,4.8,7.6,10.7,7.6,17.8c0,7.4-2.5,13.6-7.6,18.7c-5.1,5.1-11.4,7.6-19.1,7.6C377.3,77.1,371,74.6,365.9,69.7z M365.3,118.9
		h39.4v217.3h-39.4V118.9z"/>
</g>
</svg>
