<?xml version="1.0" encoding="utf-8"?>
<!-- Generator: Adobe Illustrator 21.1.0, SVG Export Plug-In . SVG Version: 6.00 Build 0)  -->
<svg version="1.1" id="Capa_1" xmlns="http://www.w3.org/2000/svg" xmlns:xlink="http://www.w3.org/1999/xlink" x="0px" y="0px"
	 viewBox="0 0 347.3 142.2" style="enable-background:new 0 0 347.3 142.2;" xml:space="preserve">
<path d="M115.7,103.7v38.4H99v-22.8H16.9v22.8H0v-38.4h5.2c6.3-0.4,10.6-4.9,13-13.4s3.9-20.6,4.9-36.2l1.5-33.3h76.3v82.8
	L115.7,103.7L115.7,103.7L115.7,103.7z M36.3,86.2c-1.6,8.1-4.3,14-8.5,17.5h55.1V36.6H40.3l-0.9,19C38.8,67.9,37.8,78.2,36.3,86.2z
	 M227.5,76.1h-79.8c1.1,8.7,4.9,15.6,11.4,20.9c6.5,5.2,14.6,7.9,24.2,7.9c11.7,0,21.2-3.9,28.4-11.9l9.8,11.5
	c-4.5,5.2-10,9.2-16.6,11.9c-6.6,2.8-14,4.1-22.2,4.1c-10.4,0-19.6-2.2-27.7-6.4c-8.1-4.3-14.2-10.2-18.6-17.9s-6.6-16.3-6.6-26
	c0-9.5,2.2-18.1,6.4-25.8c4.2-7.7,10.2-13.6,17.6-17.9c7.5-4.2,15.9-6.4,25.3-6.4c9.4,0,17.8,2.2,25.1,6.4
	c7.4,4.2,13.1,10.2,17.2,17.9s6.2,16.5,6.2,26.4C227.8,72.1,227.7,73.9,227.5,76.1z M157.8,42.9c-5.8,5.2-9.1,12-10.1,20.4h63.1
	c-1-8.3-4.3-15.1-10.1-20.3c-5.8-5.2-12.9-7.9-21.4-7.9C170.7,35.1,163.6,37.7,157.8,42.9z M255.5,21h17.8v41.8h56.1V21h17.8v98.4
	h-17.8V78.2h-56.1v41.2h-17.8V21L255.5,21z"/>
</svg>
