<?xml version="1.0" encoding="utf-8"?>
<!-- Generator: Adobe Illustrator 21.1.0, SVG Export Plug-In . SVG Version: 6.00 Build 0)  -->
<svg version="1.1" id="Layer_1" xmlns="http://www.w3.org/2000/svg" xmlns:xlink="http://www.w3.org/1999/xlink" x="0px" y="0px"
	 viewBox="0 0 380 512" style="enable-background:new 0 0 380 512;" xml:space="preserve">
<path d="M103.8,285v50.3h205.3v48.3H103.8v129H36v-129H1v-48.3H36V285H1v-58.7H36V0h160.5c45.9,0,80.6,4.7,104.2,14
	c23.8,9.1,42.7,25.3,57,48.6c14.2,23.3,21.4,49.1,21.4,77.3c0,28.5-5.3,51.9-15.7,70.7c-10.5,18.6-24.4,33.5-41.8,44.6
	c-17.4,11-37.3,18.8-59.7,23.3c-22.5,4.5-45.8,6.7-69.8,6.7h-88.2V285z M191.9,226.2c15.6,0,30.6-1.2,44.8-3.6
	c14.2-2.4,26.7-6.9,37.4-13.5c10.7-6.5,19.2-15.3,25.5-26.4c6.3-11,9.4-25.3,9.4-42.8c0-15.2-2.8-27.9-8.6-38.5
	c-5.6-10.4-13.4-19-23.3-25.6c-9.9-6.7-21.5-11.4-34.8-14.5c-13.3-3-27.6-4.6-43-4.6h-95.5v169.6h88.2V226.2z"/>
</svg>
