<?xml version="1.0" encoding="utf-8"?>
<!-- Generator: Adobe Illustrator 21.1.0, SVG Export Plug-In . SVG Version: 6.00 Build 0)  -->
<svg version="1.1" id="Layer_1" xmlns="http://www.w3.org/2000/svg" xmlns:xlink="http://www.w3.org/1999/xlink" x="0px" y="0px"
	 viewBox="0 0 511.6 385.4" style="enable-background:new 0 0 511.6 385.4;" xml:space="preserve">
<style type="text/css">
	.st0{display:none;}
	.st1{display:inline;fill:none;}
	.st2{enable-background:new    ;}
</style>
<g>
	<title>background</title>
	<g id="canvasGrid" class="st0">
		<rect x="-87.5" y="417.2" class="st1" width="250" height="160"/>
	</g>
</g>
<g>
	<title>Layer 1</title>
	<g id="svg_15" class="st2">
		<path d="M194.3,335.7l-61.6-87.9c-7.6,0.6-13.7,0.9-18.1,0.9H44v87H3.1v-286h111.5c37.1,0,66.3,8.8,87.6,26.6s31.8,42,31.8,73.3
			c0,22.2-5.5,40.9-16.3,56.3c-10.8,15.5-26.6,26.9-46.7,33.9l68,96H194.3z M172.7,197.1c13.7-11.1,20.4-27.1,20.4-47.9
			s-6.7-36.5-20.4-47.6C159,90.5,139.4,85,113.4,85H44v128.7h69.5C139.4,214,159,208.5,172.7,197.1z"/>
		<path d="M352.5,85.3v99.8h143.6v35H352.5v44.7h90.8v23.4h-90.8v47.6h-40.9v-47.9h-42v-23.4h42V49.7h202v35.6H352.5z"/>
	</g>
</g>
</svg>
