<?xml version="1.0" encoding="utf-8"?>
<!-- Generator: Adobe Illustrator 21.1.0, SVG Export Plug-In . SVG Version: 6.00 Build 0)  -->
<svg version="1.1" id="Layer_1" xmlns="http://www.w3.org/2000/svg" xmlns:xlink="http://www.w3.org/1999/xlink" x="0px" y="0px"
	 viewBox="0 0 556.8 385.4" style="enable-background:new 0 0 556.8 385.4;" xml:space="preserve">
<style type="text/css">
	.st0{display:none;}
	.st1{display:inline;fill:none;}
</style>
<g>
	<title>background</title>
	<g id="canvasGrid" class="st0">
		<rect x="86.2" y="456.9" class="st1" width="250" height="160"/>
	</g>
</g>
<g>
	<path d="M47.4,329.4c-20.1-6.7-35.9-15.4-47.4-26l15.2-32c10.9,9.8,24.9,17.8,42,24c17.1,6.1,34.6,9.2,52.7,9.2
		c23.8,0,41.5-4,53.3-12.1c11.7-8.1,17.6-18.8,17.6-32.2c0-9.8-3.2-17.8-9.6-24c-6.4-6.1-14.4-10.9-23.8-14.1
		c-9.4-3.3-22.8-7-40-11.1c-21.6-5.2-39-10.4-52.3-15.6c-13.3-5.2-24.6-13.2-34-24C11.7,160.8,7,146.2,7,127.9
		c0-15.3,4-29.1,12.1-41.4C27.1,74.2,39.4,64.4,55.8,57c16.4-7.4,36.8-11.1,61.1-11.1c16.9,0,33.6,2.2,50,6.6
		c16.4,4.4,30.5,10.7,42.2,18.9l-13.5,32.8c-12-7.6-24.9-13.5-38.5-17.4c-13.7-4-27.1-5.9-40.2-5.9c-23.2,0-40.7,4.2-52.3,12.7
		C53,102,47.1,112.9,47.1,126.3c0,9.8,3.3,17.8,9.8,24c6.6,6.1,14.7,10.9,24.4,14.4c9.7,3.4,22.9,7,39.6,10.9
		c21.6,5.2,39,10.4,52.1,15.6c13.1,5.2,24.4,13.1,33.8,23.8c9.4,10.7,14.1,25,14.1,43c0,15-4.1,28.8-12.3,41.2
		c-8.2,12.4-20.6,22.3-37.3,29.5c-16.7,7.2-37.2,10.9-61.5,10.9C88.3,339.5,67.4,336.1,47.4,329.4z"/>
	<path d="M280.8,49.2h121c30.3,0,57.3,6,80.8,18c23.5,12,41.8,28.9,54.7,50.6c13,21.7,19.5,46.7,19.5,74.8
		c0,28.2-6.5,53.1-19.5,74.8c-13,21.7-31.2,38.6-54.7,50.6c-23.5,12-50.4,18-80.8,18h-121V49.2z M399.3,300.5
		c23.2,0,43.7-4.5,61.3-13.5s31.2-21.7,40.8-37.9c9.6-16.3,14.4-35.1,14.4-56.4s-4.8-40.1-14.4-56.4c-9.6-16.3-23.2-28.9-40.8-37.9
		s-38.1-13.5-61.3-13.5h-77.5v215.7H399.3z"/>
</g>
</svg>
