<?xml version="1.0" encoding="utf-8"?>
<!-- Generator: Adobe Illustrator 21.1.0, SVG Export Plug-In . SVG Version: 6.00 Build 0)  -->
<svg version="1.1" id="Layer_1" xmlns="http://www.w3.org/2000/svg" xmlns:xlink="http://www.w3.org/1999/xlink" x="0px" y="0px"
	 viewBox="0 0 475.6 385.4" style="enable-background:new 0 0 475.6 385.4;" xml:space="preserve">
<g>
	<path d="M47.4,329.4c-20.1-6.7-35.9-15.4-47.4-26l15.2-32c10.9,9.8,24.9,17.8,42,24c17.1,6.1,34.6,9.2,52.7,9.2
		c23.8,0,41.5-4,53.3-12.1c11.7-8.1,17.6-18.8,17.6-32.2c0-9.8-3.2-17.8-9.6-24c-6.4-6.1-14.4-10.9-23.8-14.1
		c-9.4-3.3-22.8-7-40-11.1c-21.6-5.2-39-10.4-52.3-15.6c-13.3-5.2-24.6-13.2-34-24C11.7,160.8,7,146.2,7,127.9
		c0-15.3,4-29.1,12.1-41.4C27.1,74.2,39.4,64.4,55.8,57c16.4-7.4,36.8-11.1,61.1-11.1c16.9,0,33.6,2.2,50,6.6
		c16.4,4.4,30.5,10.7,42.2,18.9l-13.5,32.8c-12-7.6-24.9-13.5-38.5-17.4c-13.7-4-27.1-5.9-40.2-5.9c-23.2,0-40.7,4.2-52.3,12.7
		C53,102,47.1,112.9,47.1,126.3c0,9.8,3.3,17.8,9.8,24c6.6,6.1,14.7,10.9,24.4,14.4c9.7,3.4,22.9,7,39.6,10.9
		c21.6,5.2,39,10.4,52.1,15.6c13.1,5.2,24.4,13.1,33.8,23.8c9.4,10.7,14.1,25,14.1,43c0,15-4.1,28.8-12.3,41.2
		c-8.2,12.4-20.6,22.3-37.3,29.5c-16.7,7.2-37.2,10.9-61.5,10.9C88.3,339.5,67.4,336.1,47.4,329.4z"/>
	<path d="M451.2,312.8c-16.3,15-39.8,23.8-70.7,26.2v46.3h-26.2v-46.3c-20-1.1-38.9-4.8-56.8-11.3c-17.9-6.4-32.2-14.6-42.8-24.4
		l15.2-32c9.8,9,22.3,16.5,37.3,22.3c15,5.9,30.8,9.4,47.2,10.5v-95.1c-19.1-4.6-35.1-9.7-47.8-15.2c-12.7-5.5-23.4-13.5-32-24.2
		c-8.6-10.7-12.9-24.6-12.9-41.8c0-21.6,7.9-39.9,23.6-54.9c15.7-15,38.7-23.8,69.1-26.2V0h26.2v46.3c15.6,0.6,30.7,3,45.3,7.4
		c14.6,4.4,27.3,10.3,37.9,17.6l-13.5,32.8c-22.1-13.9-45.4-21.6-69.7-23v95.5c19.9,4.9,36.3,10,49.2,15.4
		c12.8,5.3,23.7,13.3,32.6,23.8c8.9,10.5,13.3,24.5,13.3,42C475.6,279.5,467.5,297.8,451.2,312.8z M315.3,153.8c9,6.6,22,12,39,16.4
		V81.6c-17.5,2.2-30.6,7.3-39.4,15.4c-8.8,8.1-13.1,17.8-13.1,29.3C301.8,138,306.3,147.2,315.3,153.8z M421.7,289.7
		c9.2-7.8,13.7-17.6,13.7-29.3c0-12-4.7-21.2-14.1-27.7c-9.4-6.4-23-12.1-40.8-17v88.1C398.8,302.2,412.5,297.5,421.7,289.7z"/>
</g>
</svg>
