<?xml version="1.0" encoding="utf-8"?>
<!-- Generator: Adobe Illustrator 21.1.0, SVG Export Plug-In . SVG Version: 6.00 Build 0)  -->
<svg version="1.1" id="Layer_1" xmlns="http://www.w3.org/2000/svg" xmlns:xlink="http://www.w3.org/1999/xlink" x="0px" y="0px"
	 viewBox="0 0 147.3 131.6" style="enable-background:new 0 0 147.3 131.6;" xml:space="preserve">
<path d="M0,16.8h14v85.8h53.1v12.2H0V16.8z M147,82.2H86.8c0.8,6.5,3.7,11.8,8.6,15.8c4.9,4,11,6,18.3,6c8.9,0,16-3,21.4-9l7.4,8.7
	c-3.4,3.9-7.5,6.9-12.5,9c-5,2.1-10.6,3.1-16.7,3.1c-7.8,0-14.8-1.6-20.9-4.8c-6.1-3.2-10.8-7.7-14.1-13.5c-3.3-5.8-5-12.3-5-19.6
	c0-7.2,1.6-13.7,4.8-19.5c3.2-5.8,7.7-10.3,13.3-13.5c5.6-3.2,12-4.8,19.1-4.8c7.1,0,13.4,1.6,19,4.8c5.6,3.2,9.9,7.7,13,13.5
	c3.1,5.8,4.7,12.4,4.7,19.9C147.3,79.1,147.2,80.5,147,82.2z M94.4,57.1c-4.3,3.9-6.9,9.1-7.6,15.4h47.6c-0.7-6.3-3.3-11.4-7.6-15.3
	c-4.3-4-9.7-6-16.2-6C104.2,51.2,98.8,53.2,94.4,57.1z"/>
</svg>
