<?xml version="1.0" encoding="utf-8"?>
<!-- Generator: Adobe Illustrator 21.1.0, SVG Export Plug-In . SVG Version: 6.00 Build 0)  -->
<svg version="1.1" id="Capa_1" xmlns="http://www.w3.org/2000/svg" xmlns:xlink="http://www.w3.org/1999/xlink" x="0px" y="0px"
	 viewBox="0 0 590.8 385.4" style="enable-background:new 0 0 590.8 385.4;" xml:space="preserve">
<g>
	<path d="M47.4,329.4c-20.1-6.7-35.9-15.4-47.4-26l15.2-32c10.9,9.8,24.9,17.8,42,24c17.1,6.1,34.6,9.2,52.7,9.2
		c23.8,0,41.5-4,53.3-12.1c11.7-8.1,17.6-18.8,17.6-32.2c0-9.8-3.2-17.8-9.6-24c-6.4-6.1-14.4-10.9-23.8-14.1
		c-9.4-3.3-22.8-7-40-11.1c-21.6-5.2-39-10.4-52.3-15.6c-13.3-5.2-24.6-13.2-34-24C11.7,160.8,7,146.2,7,127.9
		c0-15.3,4-29.1,12.1-41.4C27.1,74.2,39.4,64.4,55.8,57c16.4-7.4,36.8-11.1,61.1-11.1c16.9,0,33.6,2.2,50,6.6
		c16.4,4.4,30.5,10.7,42.2,18.9l-13.5,32.8c-12-7.6-24.9-13.5-38.5-17.4c-13.7-4-27.1-5.9-40.2-5.9c-23.2,0-40.7,4.2-52.3,12.7
		C53,102,47.1,112.9,47.1,126.3c0,9.8,3.3,17.8,9.8,24c6.6,6.1,14.7,10.9,24.4,14.4c9.7,3.4,22.9,7,39.6,10.9
		c21.6,5.2,39,10.4,52.1,15.6c13.1,5.2,24.4,13.1,33.8,23.8c9.4,10.7,14.1,25,14.1,43c0,15-4.1,28.8-12.3,41.2
		c-8.2,12.4-20.6,22.3-37.3,29.5c-16.7,7.2-37.2,10.9-61.5,10.9C88.3,339.5,67.4,336.1,47.4,329.4z"/>
	<path d="M456.9,140.8c16.3,16,24.4,39.4,24.4,70.3v125H442V215.7c0-21-5.1-36.9-15.2-47.6c-10.1-10.7-24.6-16-43.5-16
		c-21.3,0-38.1,6.2-50.4,18.7c-12.3,12.4-18.5,30.3-18.5,53.5v111.9h-39.4V32h39.4v117.7c8.2-10.4,18.9-18.5,32.2-24.2
		c13.3-5.7,28.1-8.6,44.5-8.6C418.7,116.9,440.7,124.8,456.9,140.8z"/>
	<path d="M544.1,330.7c-5.5-5.3-8.2-12.1-8.2-20.3c0-7.9,2.7-14.6,8.2-19.9c5.5-5.3,12-8,19.7-8c7.6,0,14.1,2.6,19.3,7.8
		c5.2,5.2,7.8,11.9,7.8,20.1c0,8.2-2.7,15-8,20.3s-11.7,8-19.1,8C556.1,338.7,549.5,336,544.1,330.7z"/>
</g>
</svg>
