<?xml version="1.0" encoding="utf-8"?>
<!-- Generator: Adobe Illustrator 21.1.0, SVG Export Plug-In . SVG Version: 6.00 Build 0)  -->
<svg version="1.1" id="Layer_1" xmlns="http://www.w3.org/2000/svg" xmlns:xlink="http://www.w3.org/1999/xlink" x="0px" y="0px"
	 viewBox="0 0 558 385.4" style="enable-background:new 0 0 558 385.4;" xml:space="preserve">
<style type="text/css">
	.st0{display:none;}
	.st1{display:inline;fill:none;}
</style>
<g>
	<title>background</title>
	<g id="canvasGrid" class="st0">
		<rect x="232" y="416.2" class="st1" width="250" height="160"/>
	</g>
</g>
<g>
	<path d="M0,49.2h121c30.3,0,57.3,6,80.8,18c23.5,12,41.7,28.9,54.7,50.6c13,21.7,19.5,46.7,19.5,74.8c0,28.2-6.5,53.1-19.5,74.8
		c-13,21.7-31.2,38.6-54.7,50.6c-23.5,12-50.4,18-80.8,18H0V49.2z M118.5,300.5c23.2,0,43.7-4.5,61.3-13.5s31.2-21.7,40.8-37.9
		c9.6-16.3,14.4-35.1,14.4-56.4s-4.8-40.1-14.4-56.4c-9.6-16.3-23.2-28.9-40.8-37.9s-38.1-13.5-61.3-13.5H41v215.7H118.5z"/>
	<path d="M504.7,130.8c16.7,9.3,29.7,22.3,39.2,39c9.4,16.7,14.1,35.9,14.1,57.8c0,21.9-4.7,41.2-14.1,58
		c-9.4,16.8-22.5,29.9-39.2,39.2c-16.7,9.3-35.5,13.9-56.6,13.9c-16.1,0-30.9-3.1-44.3-9.4c-13.4-6.3-24.5-15.4-33.2-27.5v34.4
		h-37.7V32h39.4v119.7c8.7-11.5,19.7-20.2,32.8-26c13.1-5.9,27.5-8.8,43-8.8C469.2,116.9,488,121.5,504.7,130.8z M482.4,294.6
		c11.1-6.4,19.8-15.4,26.2-27.1c6.4-11.6,9.6-24.9,9.6-40c0-15-3.2-28.4-9.6-40c-6.4-11.6-15.2-20.6-26.2-26.9
		c-11.1-6.3-23.6-9.4-37.5-9.4c-13.7,0-26.1,3.1-37.3,9.4c-11.2,6.3-20,15.2-26.2,26.9c-6.3,11.6-9.4,24.9-9.4,40
		c0,15,3.1,28.4,9.4,40c6.3,11.6,15,20.6,26.2,27.1c11.2,6.4,23.6,9.6,37.3,9.6C458.8,304.2,471.3,301,482.4,294.6z"/>
</g>
</svg>
