<?xml version="1.0" encoding="utf-8"?>
<!-- Generator: Adobe Illustrator 21.1.0, SVG Export Plug-In . SVG Version: 6.00 Build 0)  -->
<svg version="1.1" id="Capa_1" xmlns="http://www.w3.org/2000/svg" xmlns:xlink="http://www.w3.org/1999/xlink" x="0px" y="0px"
	 viewBox="0 0 234.8 386" style="enable-background:new 0 0 234.8 386;" xml:space="preserve">
<g>
	<path d="M227,224.7c-4.6-5-10.1-7.3-16.4-7.3c-7.3,0-12.8,2.3-16,7.3c-3.2,5-5.9,11-8.2,18.7c-5.5,16.4-13.2,28.8-23.8,37.5
		c-9.6,7.8-21,11.9-34.7,12.3l47.5-180.9c3.2,4.6,6.4,10.1,9.1,16c4.1,8.7,7.8,15.1,11.4,18.7c3.2,3.7,8.7,5.5,15.1,5.5
		c5.9,0,11.4-2.7,15.5-7.8c4.1-5,6.4-11,6.4-17.8c0-12.3-4.6-25.6-13.2-39.3C212.4,76.3,202.4,66.2,190,58l10.1-38.4
		c1.8-6.4-2.3-12.8-8.2-14.6c-6.4-1.8-12.8,2.3-14.6,8.2l-8.7,32.4c-6.9-2.7-14.6-5-22.4-5.9l6.4-24.7c1.8-6.4-2.3-12.8-8.2-14.6
		c-6.4-1.8-12.8,2.3-14.6,8.2L122,37.9c-16.4,0.5-32,3.7-46.6,10.5c-15.5,6.9-28.8,16.9-40.2,30.2s-19.6,29.2-26,48
		C3.2,145.3,0,166.3,0,190c0,14.6,1.4,28.3,3.7,41.1s5.9,25.1,11,36.5c5,11.4,11,21.5,17.8,31.1c5.5,6.9,11,12.8,16.9,17.8
		l-13.2,49.8c-1.8,6.4,2.3,12.8,8.2,14.6c0.9,0.5,1.8,0.5,3.2,0.5c5,0,10.1-3.7,11.4-8.7l11.4-42.9c5.9,2.7,11.9,5,18.7,6.9
		c0.9,0.5,2.3,0.5,3.2,0.9l-8.7,33.3c-1.8,6.4,2.3,12.8,8.2,14.6c0.9,0.5,1.8,0.5,3.2,0.5c5,0,10.1-3.7,11.4-8.7l9.6-36.1
		c3.7,0,7.3,0.5,11,0.5c18.3,0,34.3-3.2,48-9.6c13.7-6.4,25.1-15.1,33.8-25.6c8.7-10.5,15.1-21,19.6-32c4.1-11,6.4-21,6.4-30.2
		C233.9,235.7,231.6,229.8,227,224.7z M63.5,249.4c-5.9-15.1-8.7-34.3-8.7-56.6c0-34.3,6.4-60.3,19.2-79c9.6-13.7,21-22.8,35.2-27
		L64.9,254.4C64.9,253.1,64,251.2,63.5,249.4z M86.8,282.3c-1.4-0.9-2.3-1.8-3.7-2.7l51.2-194.2c8.2,0.9,15.5,3.7,21.9,7.3
		L104.2,291C97.8,289.2,92.3,286,86.8,282.3z"/>
</g>
</svg>
