<?xml version="1.0" encoding="utf-8"?>
<!-- Generator: Adobe Illustrator 21.1.0, SVG Export Plug-In . SVG Version: 6.00 Build 0)  -->
<svg version="1.1" id="Layer_1" xmlns="http://www.w3.org/2000/svg" xmlns:xlink="http://www.w3.org/1999/xlink" x="0px" y="0px"
	 viewBox="0 0 987.4 598.8" style="enable-background:new 0 0 987.4 598.8;" xml:space="preserve">
<path d="M173.7,517.9h314.5v72.4H0.7v-72.4h90.7V326.5H0.7v-54.9h90.7v-54c0-43.8,9.5-81.9,28.7-114.4s47.1-57.5,84.1-75.3
	c36.8-17.7,81-26.6,132.7-26.6c33.8,0,63.9,3.3,90.3,9.9c26.3,6.6,50.9,17.2,73.6,31.6l-27.4,69.1c-36.2-24.4-84.2-36.6-144-36.6
	c-51,0-89.7,12.3-116.1,36.7c-26.3,24.4-39.6,59.4-39.6,104.8v54.9H395v54.9H173.7V517.9z M635.1,576.6
	c-40.8-13.6-72.8-31.2-96.1-52.8l30.8-64.9c22.2,20,50.6,36.2,85.3,48.7c34.6,12.5,70.3,18.7,107,18.7c48.2,0,84.3-8.1,108.2-24.5
	c23.8-16.4,35.8-38.2,35.8-65.3c0-20-6.5-36.2-19.6-48.7c-13.1-12.5-29.1-22.1-48.3-28.7c-19.2-6.6-46.2-14.2-81.1-22.5
	c-43.8-10.5-79.1-21.1-106.1-31.6c-26.9-10.5-49.9-26.7-69.1-48.7c-19.2-21.9-28.7-51.4-28.7-88.6c0-31,8.1-59.1,24.5-84.1
	c16.4-25,41.2-44.9,74.4-59.9c33.4-15,74.7-22.5,124.1-22.5c34.3,0,68.2,4.4,101.5,13.4c33.2,8.8,61.9,21.6,85.7,38.3l-27.4,66.6
	c-24.5-15.6-50.5-27.3-78.2-35.4C829.9,76,802.7,72,776.1,72C729,72,693.5,80.7,670,97.8c-23.6,17.2-35.4,39.4-35.4,66.6
	c0,20,6.6,36.2,20,48.7c13.4,12.5,29.8,22.2,49.5,29.1s46.5,14.3,80.2,22.1c43.8,10.5,79,21.1,105.6,31.6s49.5,26.6,68.6,48.3
	c19.2,21.6,28.7,50.7,28.7,87.4c0,30.5-8.3,58.3-25,83.7c-16.7,25.2-41.9,45.2-75.7,59.9c-33.8,14.7-75.4,22.1-124.8,22.1
	C718.2,597,675.9,590.1,635.1,576.6z"/>
</svg>
