<?xml version="1.0" encoding="utf-8"?>
<!-- Generator: Adobe Illustrator 21.1.0, SVG Export Plug-In . SVG Version: 6.00 Build 0)  -->
<svg version="1.1" id="Layer_1" xmlns="http://www.w3.org/2000/svg" xmlns:xlink="http://www.w3.org/1999/xlink" x="0px" y="0px"
	 viewBox="0 0 473.1 385.4" style="enable-background:new 0 0 473.1 385.4;" xml:space="preserve">
<style type="text/css">
	.st0{display:none;}
	.st1{display:inline;fill:none;}
</style>
<g>
	<title>background</title>
	<g id="canvasGrid" class="st0">
		<rect x="270.2" y="573.4" class="st1" width="250" height="160"/>
	</g>
</g>
<path d="M98.4,84.9H0V49.2h237.4v35.7H139v251.3H98.4V84.9z M448.7,312.8c-16.3,15-39.8,23.8-70.7,26.2v46.3h-26.2v-46.3
	c-20-1.1-38.9-4.8-56.8-11.3c-17.9-6.4-32.2-14.6-42.8-24.4l15.2-32c9.8,9,22.3,16.5,37.3,22.3c15,5.9,30.8,9.4,47.1,10.5v-95.1
	c-19.1-4.6-35.1-9.7-47.8-15.2c-12.7-5.5-23.4-13.5-32-24.2c-8.6-10.7-12.9-24.6-12.9-41.8c0-21.6,7.9-39.9,23.6-54.9
	c15.7-15,38.7-23.8,69.1-26.2V0H378v46.3c15.6,0.6,30.7,3,45.3,7.4c14.6,4.4,27.3,10.3,37.9,17.6l-13.5,32.8
	c-22.1-13.9-45.4-21.6-69.7-23v95.5c19.9,4.9,36.3,10,49.2,15.4c12.8,5.3,23.7,13.3,32.6,23.8c8.9,10.5,13.3,24.5,13.3,42
	C473.1,279.5,465,297.8,448.7,312.8z M312.8,153.8c9,6.6,22,12,38.9,16.4V81.6c-17.5,2.2-30.6,7.3-39.4,15.4
	c-8.8,8.1-13.1,17.8-13.1,29.3C299.3,138,303.8,147.2,312.8,153.8z M419.2,289.7c9.2-7.8,13.7-17.6,13.7-29.3
	c0-12-4.7-21.2-14.1-27.7c-9.4-6.4-23-12.1-40.8-17v88.1C396.3,302.2,410.1,297.5,419.2,289.7z"/>
</svg>
