<?xml version="1.0" encoding="utf-8"?>
<!-- Generator: Adobe Illustrator 21.1.0, SVG Export Plug-In . SVG Version: 6.00 Build 0)  -->
<svg version="1.1" id="Capa_1" xmlns="http://www.w3.org/2000/svg" xmlns:xlink="http://www.w3.org/1999/xlink" x="0px" y="0px"
	 viewBox="0 0 286.3 384.4" style="enable-background:new 0 0 286.3 384.4;" xml:space="preserve">
<g>
	<path d="M78.3,384.4c-1.6-0.6-3.2-1.2-5-2c0-62.9,0-125.8,0-189.6C48.8,201.5,25,210,0.1,218.9c0-10-0.2-19.2,0.2-28.5
		c0.1-1.5,2.7-3.5,4.6-4.1c19.8-7.3,39.6-14.6,59.6-21.2c7.1-2.3,10.2-5.7,8.9-13.1c-0.3-1.9-0.1-3.8-0.1-6.7
		c-24.5,8.8-48.4,17.3-73.3,26.3c0-10.6-0.2-19.9,0.2-29.2c0.1-1.4,2.9-3.2,4.7-3.9c21-7.6,42.2-15,63.3-22.4c3-1.1,5.2-2,5.1-6
		C73.3,73.4,73.3,36.7,73.2,0C86,0,98.8,0,111.6,0c0.2,4.4,0.5,8.9,0.5,13.4c0.1,26.3,0,52.6,0,78.8c0,2.3,0,4.6,0,7.9
		c39.6-14.3,78.2-28.2,117.3-42.4c0,9.8,0.3,18.8-0.2,27.7c-0.1,1.8-3,4.3-5.1,5c-33.3,12.2-66.5,24.3-99.9,36.3
		c-13.4,4.9-13.5,4.8-11.6,20.7c38.8-14,77.3-27.9,116.7-42.1c0,9.8,0.3,19.1-0.3,28.4c-0.1,1.7-3.5,3.7-5.9,4.5
		c-33.5,12.2-67,24.1-100.5,36.1c-13.1,4.7-10.6,2.9-10.7,15.1c-0.1,48.7-0.1,97.4-0.1,146.1c0,2.6,0,5,0,7.6
		c47.9-0.8,134.3-51.6,134.8-150.8c12.7,0,25.4,0,39.5,0c-1.3,11.3-1.7,22.6-3.8,33.5c-16.7,85.1-83,146.9-168.7,157.5
		c-1.2,0.2-2.4,0.7-3.6,1.1C99.6,384.4,88.9,384.4,78.3,384.4L78.3,384.4z"/>
</g>
</svg>
