<?xml version="1.0" encoding="utf-8"?>
<!-- Generator: Adobe Illustrator 21.1.0, SVG Export Plug-In . SVG Version: 6.00 Build 0)  -->
<svg version="1.1" id="Layer_1" xmlns="http://www.w3.org/2000/svg" xmlns:xlink="http://www.w3.org/1999/xlink" x="0px" y="0px"
	 viewBox="0 0 733.5 385.4" style="enable-background:new 0 0 733.5 385.4;" xml:space="preserve">
<g>
	<title>background</title>
</g>
<path d="M98.4,84.9H0V49.2h237.4v35.7H139v251.3H98.4V84.9z M299.5,329.4c-20.1-6.7-35.9-15.4-47.4-26l15.2-32
	c10.9,9.8,24.9,17.8,42,24c17.1,6.1,34.6,9.2,52.7,9.2c23.8,0,41.5-4,53.3-12.1c11.7-8.1,17.6-18.8,17.6-32.2c0-9.8-3.2-17.8-9.6-24
	c-6.4-6.1-14.4-10.9-23.8-14.1s-22.8-7-40-11.1c-21.6-5.2-39-10.4-52.3-15.6c-13.3-5.2-24.6-13.2-34-24
	c-9.4-10.8-14.1-25.3-14.1-43.7c0-15.3,4-29.1,12.1-41.4c8.1-12.3,20.3-22.1,36.7-29.5c16.4-7.4,36.8-11.1,61.1-11.1
	c16.9,0,33.6,2.2,50,6.6c16.4,4.4,30.5,10.7,42.2,18.9l-13.5,32.8c-12-7.6-24.9-13.5-38.5-17.4c-13.7-4-27.1-5.9-40.2-5.9
	c-23.2,0-40.7,4.2-52.3,12.7c-11.6,8.5-17.4,19.4-17.4,32.8c0,9.8,3.3,17.8,9.8,24c6.6,6.1,14.7,10.9,24.4,14.4
	c9.7,3.4,22.9,7,39.6,10.9c21.6,5.2,39,10.4,52.1,15.6c13.1,5.2,24.4,13.1,33.8,23.8c9.4,10.7,14.1,25,14.1,43
	c0,15-4.1,28.8-12.3,41.2c-8.2,12.4-20.6,22.3-37.3,29.5c-16.7,7.2-37.2,10.9-61.5,10.9C340.4,339.5,319.6,336.1,299.5,329.4z
	 M709.1,140.8c16.3,16,24.4,39.4,24.4,70.3v125h-39.4V215.7c0-21-5.1-36.9-15.2-47.6c-10.1-10.7-24.6-16-43.5-16
	c-21.3,0-38.1,6.2-50.4,18.7c-12.3,12.4-18.5,30.3-18.5,53.5v111.9h-39.4V32h39.4v117.7c8.2-10.4,18.9-18.5,32.2-24.2
	c13.3-5.7,28.1-8.6,44.5-8.6C670.9,116.9,692.8,124.8,709.1,140.8z"/>
</svg>
