<?xml version="1.0" encoding="utf-8"?>
<!-- Generator: Adobe Illustrator 21.1.0, SVG Export Plug-In . SVG Version: 6.00 Build 0)  -->
<svg version="1.1" id="Capa_1" xmlns="http://www.w3.org/2000/svg" xmlns:xlink="http://www.w3.org/1999/xlink" x="0px" y="0px"
	 viewBox="0 0 271.4 380" style="enable-background:new 0 0 271.4 380;" xml:space="preserve">
<g>
	<path d="M252.4,213H137c11.7-9,23.7-17.2,34-25.1c2.6-2,5.1-3.9,7.5-6h73.9c10.5,0,19-8.5,19-19s-8.5-19-19-19h-38.7
		c5.3-8.1,9.8-16.8,13.1-26.4c8.5-24.7,4.3-53.2-10-74.8c-36-54.4-110-50.4-161.6-23.3c-21.7,11.4-2.5,44.2,19.2,32.8
		c25.6-13.5,54-19.6,82-10.3c19.2,6.3,35.1,23.7,36.7,44.1c1.9,23.1-12.2,42.6-28.3,57.9H19c-10.5-0.1-19,8.4-19,18.9
		c0,10.5,8.5,19,19,19h96.9c-8.9,6.5-17.5,13.3-25.7,20.7c-3.6,3.3-6.9,6.7-10,10.4H19c-10.5,0-19,8.5-19,19s8.5,19,19,19h38.9
		c-12.4,34.3-8.4,73.2,19.3,101.9c38.5,39.6,104.4,30,149,8.2c22.1-10.8,2.8-43.5-19.2-32.8c-34.5,16.9-97.9,25.8-114.3-20.4
		c-7.9-22.2-3.8-40.8,6.5-56.9h153.1c10.5,0,19-8.5,19-19C271.4,221.5,263,213,252.4,213z"/>
</g>
</svg>
