<?xml version="1.0" encoding="utf-8"?>
<!-- Generator: Adobe Illustrator 21.1.0, SVG Export Plug-In . SVG Version: 6.00 Build 0)  -->
<svg version="1.1" id="Layer_1" xmlns="http://www.w3.org/2000/svg" xmlns:xlink="http://www.w3.org/1999/xlink" x="0px" y="0px"
	 viewBox="0 0 781.9 385.4" style="enable-background:new 0 0 781.9 385.4;" xml:space="preserve">
<g>
	<title>background</title>
</g>
<g>
	<path d="M32,306.7c-21.3-21.9-32-53.3-32-94.3V49.2h41v161.5c0,61.5,26.9,92.3,80.8,92.3c26.2,0,46.3-7.6,60.3-22.8
		c13.9-15.2,20.9-38.3,20.9-69.5V49.2h39.8v163.2c0,41.3-10.7,72.8-32,94.5s-51.1,32.6-89.4,32.6C83.1,339.5,53.3,328.6,32,306.7z"
		/>
	<path d="M347.9,329.4c-20.1-6.7-35.9-15.4-47.4-26l15.2-32c10.9,9.8,24.9,17.8,42,24c17.1,6.1,34.6,9.2,52.7,9.2
		c23.8,0,41.5-4,53.3-12.1c11.7-8.1,17.6-18.8,17.6-32.2c0-9.8-3.2-17.8-9.6-24c-6.4-6.1-14.4-10.9-23.8-14.1s-22.8-7-40-11.1
		c-21.6-5.2-39-10.4-52.3-15.6c-13.3-5.2-24.6-13.2-34-24c-9.4-10.8-14.1-25.3-14.1-43.7c0-15.3,4-29.1,12.1-41.4
		c8.1-12.3,20.3-22.1,36.7-29.5c16.4-7.4,36.8-11.1,61.1-11.1c16.9,0,33.6,2.2,50,6.6c16.4,4.4,30.5,10.7,42.2,18.9l-13.5,32.8
		c-12-7.6-24.9-13.5-38.5-17.4c-13.7-4-27.1-5.9-40.2-5.9c-23.2,0-40.7,4.2-52.3,12.7c-11.6,8.5-17.4,19.4-17.4,32.8
		c0,9.8,3.3,17.8,9.8,24c6.6,6.1,14.7,10.9,24.4,14.4c9.7,3.4,22.9,7,39.6,10.9c21.6,5.2,39,10.4,52.1,15.6
		c13.1,5.2,24.4,13.1,33.8,23.8c9.4,10.7,14.1,25,14.1,43c0,15-4.1,28.8-12.3,41.2c-8.2,12.4-20.6,22.3-37.3,29.5
		c-16.7,7.2-37.2,10.9-61.5,10.9C388.8,339.5,368,336.1,347.9,329.4z"/>
	<path d="M757.5,140.8c16.3,16,24.4,39.4,24.4,70.3v125h-39.4V215.7c0-21-5.1-36.9-15.2-47.6c-10.1-10.7-24.6-16-43.5-16
		c-21.3,0-38.1,6.2-50.4,18.7C621.1,183.2,615,201,615,224.3v111.9h-39.4V32H615v117.7c8.2-10.4,18.9-18.5,32.2-24.2
		c13.3-5.7,28.1-8.6,44.5-8.6C719.3,116.9,741.2,124.8,757.5,140.8z"/>
</g>
</svg>
