<?xml version="1.0" encoding="utf-8"?>
<!-- Generator: Adobe Illustrator 21.1.0, SVG Export Plug-In . SVG Version: 6.00 Build 0)  -->
<svg version="1.1" id="Capa_1" xmlns="http://www.w3.org/2000/svg" xmlns:xlink="http://www.w3.org/1999/xlink" x="0px" y="0px"
	 viewBox="0 0 521.1 385.4" style="enable-background:new 0 0 521.1 385.4;" xml:space="preserve">
<path d="M196.6,312.8c-16.3,15-39.8,23.8-70.7,26.2v46.3H99.6v-46.3c-20-1.1-38.9-4.8-56.8-11.3c-17.9-6.4-32.2-14.6-42.8-24.4
	l15.2-32c9.8,9,22.3,16.5,37.3,22.3c15,5.9,30.8,9.4,47.2,10.5v-95.1c-19.1-4.6-35.1-9.7-47.8-15.2c-12.7-5.5-23.4-13.5-32-24.2
	C11.3,159.1,7,145.1,7,127.9C7,106.3,14.8,88,30.5,73c15.7-15,38.7-23.8,69.1-26.2V0h26.2v46.3c15.6,0.6,30.7,3,45.3,7.4
	c14.6,4.4,27.3,10.3,37.9,17.6l-13.5,32.8c-22.1-13.9-45.4-21.6-69.7-23v95.5c19.9,4.9,36.3,10,49.2,15.4
	c12.8,5.3,23.7,13.3,32.6,23.8c8.9,10.5,13.3,24.5,13.3,42C221,279.5,212.9,297.8,196.6,312.8z M60.7,153.8c9,6.6,22,12,39,16.4
	V81.6C82.1,83.8,69,88.9,60.3,97c-8.8,8.1-13.1,17.8-13.1,29.3C47.1,138,51.7,147.2,60.7,153.8z M167.1,289.7
	c9.2-7.8,13.7-17.6,13.7-29.3c0-12-4.7-21.2-14.1-27.7c-9.4-6.4-23-12.1-40.8-17v88.1C144.2,302.2,157.9,297.5,167.1,289.7z
	 M310.4,306.7c-21.3-21.9-32-53.3-32-94.3V49.2h41v161.5c0,61.5,26.9,92.3,80.8,92.3c26.2,0,46.3-7.6,60.3-22.8
	c13.9-15.2,20.9-38.3,20.9-69.5V49.2h39.8v163.2c0,41.3-10.7,72.8-32,94.5s-51.1,32.6-89.4,32.6
	C361.5,339.5,331.7,328.6,310.4,306.7z"/>
</svg>
