<?xml version="1.0" encoding="utf-8"?>
<!-- Generator: Adobe Illustrator 21.1.0, SVG Export Plug-In . SVG Version: 6.00 Build 0)  -->
<svg version="1.1" id="Capa_1" xmlns="http://www.w3.org/2000/svg" xmlns:xlink="http://www.w3.org/1999/xlink" x="0px" y="0px"
	 viewBox="0 0 946.2 385.4" style="enable-background:new 0 0 946.2 385.4;" xml:space="preserve">
<g>
	<path d="M38.5,331.5C22.1,326.7,9.3,320.6,0,313.2L16.4,282c9.6,6.8,21.2,12.3,34.8,16.4c13.7,4.1,27.5,6.2,41.4,6.2
		c34.4,0,51.7-9.8,51.7-29.5c0-6.6-2.3-11.7-7-15.6c-4.7-3.8-10.5-6.6-17.4-8.4c-7-1.8-16.9-3.8-29.7-5.9
		c-17.5-2.7-31.8-5.9-42.8-9.4c-11.1-3.5-20.6-9.6-28.5-18C10.9,209.2,7,197.4,7,182c0-19.7,8.2-35.5,24.6-47.4s38.4-17.8,66-17.8
		c14.5,0,29,1.8,43.5,5.3c14.5,3.6,26.4,8.3,35.7,14.4L160,167.7c-17.8-11.5-38.7-17.2-62.7-17.2c-16.7,0-29.4,2.7-38.1,8.2
		c-8.8,5.5-13.1,12.7-13.1,21.7c0,7.1,2.5,12.7,7.4,16.8s11,7.1,18.2,9c7.2,1.9,17.4,4.1,30.5,6.6c17.5,3,31.6,6.2,42.4,9.6
		c10.8,3.4,20,9.2,27.7,17.4c7.6,8.2,11.5,19.7,11.5,34.4c0,19.7-8.4,35.3-25.2,46.9s-39.7,17.4-68.7,17.4
		C72,338.7,54.9,336.3,38.5,331.5z"/>
	<path d="M267.7,324.3c-17.2-9.6-30.7-22.8-40.4-39.6c-9.7-16.8-14.6-35.9-14.6-57.2s4.8-40.4,14.6-57.2
		c9.7-16.8,23.2-29.9,40.4-39.4c17.2-9.4,36.6-14.1,58.2-14.1s40.9,4.7,58,14.1s30.5,22.6,40.2,39.4s14.6,35.9,14.6,57.2
		s-4.9,40.4-14.6,57.2s-23.1,30-40.2,39.6s-36.4,14.4-58,14.4C304.4,338.7,284.9,333.9,267.7,324.3z M363.5,294.6
		c11.1-6.4,19.7-15.4,26-27.1c6.3-11.6,9.4-24.9,9.4-40c0-15-3.1-28.4-9.4-40s-15-20.6-26-26.9c-11.1-6.3-23.6-9.4-37.5-9.4
		s-26.4,3.1-37.5,9.4c-11.1,6.3-19.8,15.2-26.2,26.9c-6.4,11.6-9.6,24.9-9.6,40c0,15,3.2,28.4,9.6,40c6.4,11.6,15.2,20.6,26.2,27.1
		c11.1,6.4,23.6,9.6,37.5,9.6S352.4,301,363.5,294.6z"/>
	<path d="M521.3,37.5c5.1,5.3,7.6,12,7.6,19.9c0,4.1-0.4,8.1-1.2,12.1s-2.6,9.6-5.3,17l-19.7,57.4h-25.8L492,82.8
		c-5.2-1.9-9.4-5.1-12.5-9.6s-4.7-9.8-4.7-15.8c0-8.2,2.6-14.9,7.8-20.1c5.2-5.2,11.7-7.8,19.7-7.8
		C509.9,29.5,516.2,32.2,521.3,37.5z"/>
	<path d="M922.3,140.6c16,15.9,24,39.4,24,70.5v125h-39.4V215.7c0-21-4.9-36.9-14.6-47.6c-9.7-10.7-23.6-16-41.6-16
		c-20,0-35.8,6.2-47.6,18.7c-11.8,12.4-17.6,30.3-17.6,53.5v111.9h-39.4V215.7c0-21-4.9-36.9-14.6-47.6c-9.7-10.7-23.6-16-41.6-16
		c-20,0-35.8,6.2-47.6,18.7c-11.8,12.4-17.6,30.3-17.6,53.5v111.9h-39.4V118.9H623v32.4c7.9-11.2,18.3-19.7,31.2-25.6
		c12.8-5.9,27.5-8.8,43.9-8.8c16.9,0,32,3.4,45.1,10.3c13.1,6.8,23.2,16.8,30.3,29.9c8.2-12.6,19.6-22.4,34.2-29.5
		c14.6-7.1,31.1-10.7,49.4-10.7C884.6,116.9,906.3,124.8,922.3,140.6z"/>
</g>
</svg>
