<?xml version="1.0" encoding="utf-8"?>
<!-- Generator: Adobe Illustrator 21.1.0, SVG Export Plug-In . SVG Version: 6.00 Build 0)  -->
<svg version="1.1" id="Capa_1" xmlns="http://www.w3.org/2000/svg" xmlns:xlink="http://www.w3.org/1999/xlink" x="0px" y="0px"
	 viewBox="0 0 546.5 385.4" style="enable-background:new 0 0 546.5 385.4;" xml:space="preserve">
<g>
	<path d="M232.5,212.6c9.6,12.2,14.4,27.5,14.4,46.1c0,24.9-9.4,44-28.1,57.4c-18.7,13.4-46,20.1-81.8,20.1H0v-287h128.7
		c32.8,0,58.1,6.6,76.1,19.7c17.9,13.1,26.9,31.3,26.9,54.5c0,15-3.5,28-10.5,39c-7,10.9-16.3,19.3-28.1,25
		C209.8,192,222.9,200.4,232.5,212.6z M41,82.4v91.8h84.1c21,0,37.2-3.9,48.6-11.7c11.3-7.8,17-19.2,17-34.2c0-15-5.7-26.4-17-34.2
		c-11.3-7.8-27.5-11.7-48.6-11.7H41z M187.8,291.5c11.7-7.6,17.6-19.7,17.6-36.1c0-32-23.4-48-70.1-48H41V303h94.3
		C158.5,303,176,299.2,187.8,291.5z"/>
	<path d="M315.7,331.5c-16.4-4.8-29.3-10.9-38.5-18.2l16.4-31.2c9.6,6.8,21.2,12.3,34.8,16.4c13.7,4.1,27.5,6.2,41.4,6.2
		c34.4,0,51.7-9.8,51.7-29.5c0-6.6-2.3-11.7-7-15.6c-4.7-3.8-10.5-6.6-17.4-8.4c-7-1.8-16.9-3.8-29.7-5.9
		c-17.5-2.7-31.8-5.9-42.8-9.4c-11.1-3.5-20.6-9.6-28.5-18c-7.9-8.5-11.9-20.4-11.9-35.7c0-19.7,8.2-35.5,24.6-47.4
		c16.4-11.9,38.4-17.8,66-17.8c14.5,0,29,1.8,43.5,5.3c14.5,3.6,26.4,8.3,35.7,14.4l-16.8,31.2c-17.8-11.5-38.7-17.2-62.7-17.2
		c-16.7,0-29.4,2.7-38.1,8.2c-8.8,5.5-13.1,12.7-13.1,21.7c0,7.1,2.5,12.7,7.4,16.8c4.9,4.1,11,7.1,18.2,9
		c7.2,1.9,17.4,4.1,30.5,6.6c17.5,3,31.6,6.2,42.4,9.6c10.8,3.4,20,9.2,27.7,17.4c7.6,8.2,11.5,19.7,11.5,34.4
		c0,19.7-8.4,35.3-25.2,46.9c-16.8,11.6-39.7,17.4-68.7,17.4C349.2,338.7,332.1,336.3,315.7,331.5z"/>
	<path d="M499.8,330.7c-5.5-5.3-8.2-12.1-8.2-20.3c0-7.9,2.7-14.6,8.2-19.9c5.5-5.3,12-8,19.7-8c7.6,0,14.1,2.6,19.3,7.8
		c5.2,5.2,7.8,11.9,7.8,20.1c0,8.2-2.7,15-8,20.3s-11.7,8-19.1,8C511.8,338.7,505.2,336,499.8,330.7z"/>
</g>
</svg>
