<?xml version="1.0" encoding="utf-8"?>
<!-- Generator: Adobe Illustrator 21.1.0, SVG Export Plug-In . SVG Version: 6.00 Build 0)  -->
<svg version="1.1" id="Capa_1" xmlns="http://www.w3.org/2000/svg" xmlns:xlink="http://www.w3.org/1999/xlink" x="0px" y="0px"
	 viewBox="0 0 267.3 385.4" style="enable-background:new 0 0 267.3 385.4;" xml:space="preserve">
<g>
	<path d="M257.2,47h-37.6V32.1c0-10.5-2.3-18.5-6.9-24C208.1,2.7,201.6,0,193.1,0c-8.5,0-15,2.9-19.6,8.9
		c-4.6,5.9-6.9,14.6-6.9,26.1v12h-32.8c-5.6,0-10.2,4.6-10.2,10.2s4.6,10.2,10.2,10.2h32.8v84.1c-10.5-11.5-21.3-18-32.5-23.5
		c-11.1-5.6-24.7-8.3-40.9-8.3c-27.9,0-50.5,9.8-67.6,29.4C8.6,168.4,0,195.8,0,230.9c0,16.6,2.2,32,6.5,46.2
		c4.3,14.3,10.7,26.7,19,37.2c8.3,10.5,18.3,18.6,29.7,24.3c11.4,5.7,23.9,8.5,37.3,8.5c10.1,0,19.5-1.4,28-4.2s16.5-6.9,23.8-12.3
		c7.3-5.4,14.7-12.4,22.3-21v5.6c0,10.3,2.5,18.2,7.5,23.7c5,5.6,11.3,8.3,19,8.3c7.8,0,14.2-2.6,19.1-8c5-5.3,7.4-13.4,7.4-24V67.3
		h37.6c5.6,0,10.2-4.6,10.2-10.2C267.4,51.5,262.8,47,257.2,47z M148.1,272.4c-4.9,10.6-11.3,18.5-19.5,23.6
		c-8.1,5.1-17.1,7.7-27,7.7c-9.7,0-18.7-2.7-26.9-8.1c-8.2-5.4-14.7-13.4-19.4-24.1c-4.7-10.7-7.1-23.6-7.1-38.8
		c0-14.3,2.3-27,6.7-37.9c4.4-10.9,10.7-19.2,18.8-25.1c8.1-5.8,17.3-8.7,27.5-8.7c9.8,0,18.9,2.9,27.2,8.5
		c8.3,5.7,14.9,13.9,19.8,24.6s7.3,23.6,7.3,38.5C155.4,248.6,153,261.8,148.1,272.4z M214,375.2c0,5.6-4.6,10.2-10.2,10.2H24.3
		c-5.6,0-10.2-4.6-10.2-10.2c0-5.6,4.6-10.2,10.2-10.2h179.4C209.5,365,214,369.5,214,375.2z"/>
</g>
</svg>
