<?xml version="1.0" encoding="utf-8"?>
<!-- Generator: Adobe Illustrator 21.1.0, SVG Export Plug-In . SVG Version: 6.00 Build 0)  -->
<svg version="1.1" id="Layer_1" xmlns="http://www.w3.org/2000/svg" xmlns:xlink="http://www.w3.org/1999/xlink" x="0px" y="0px"
	 viewBox="0 0 934.8 385.4" style="enable-background:new 0 0 934.8 385.4;" xml:space="preserve">
<g>
	<title>background</title>
</g>
<path d="M435.4,49.2l-95.9,287h-43.1L218.1,107l-78.3,229.2H95.9L0,49.2h42.2l77.5,233.3l80.8-233.3h37.7l79.1,234.5l79.1-234.5
	H435.4z M506.6,329.4c-20.1-6.7-35.9-15.4-47.4-26l15.2-32c10.9,9.8,24.9,17.8,42,24c17.1,6.1,34.6,9.2,52.7,9.2
	c23.8,0,41.5-4,53.3-12.1c11.7-8.1,17.6-18.8,17.6-32.2c0-9.8-3.2-17.8-9.6-24c-6.4-6.1-14.4-10.9-23.8-14.1s-22.8-7-40-11.1
	c-21.6-5.2-39-10.4-52.3-15.6c-13.3-5.2-24.6-13.2-34-24c-9.4-10.8-14.1-25.3-14.1-43.7c0-15.3,4-29.1,12.1-41.4
	c8.1-12.3,20.3-22.1,36.7-29.5c16.4-7.4,36.8-11.1,61.1-11.1c16.9,0,33.6,2.2,50,6.6c16.4,4.4,30.5,10.7,42.2,18.9l-13.5,32.8
	c-12-7.6-24.9-13.5-38.5-17.4c-13.7-4-27.1-5.9-40.2-5.9c-23.2,0-40.7,4.2-52.3,12.7c-11.6,8.5-17.4,19.4-17.4,32.8
	c0,9.8,3.3,17.8,9.8,24c6.6,6.1,14.7,10.9,24.4,14.4c9.7,3.4,22.9,7,39.6,10.9c21.6,5.2,39,10.4,52.1,15.6
	c13.1,5.2,24.4,13.1,33.8,23.8c9.4,10.7,14.1,25,14.1,43c0,15-4.1,28.8-12.3,41.2c-8.2,12.4-20.6,22.3-37.3,29.5
	c-16.7,7.2-37.2,10.9-61.5,10.9C547.5,339.5,526.6,336.1,506.6,329.4z M910.4,312.8c-16.3,15-39.8,23.8-70.7,26.2v46.3h-26.2v-46.3
	c-20-1.1-38.9-4.8-56.8-11.3c-17.9-6.4-32.2-14.6-42.8-24.4l15.2-32c9.8,9,22.3,16.5,37.3,22.3c15,5.9,30.8,9.4,47.2,10.5v-95.1
	c-19.1-4.6-35.1-9.7-47.8-15.2c-12.7-5.5-23.4-13.5-32-24.2c-8.6-10.7-12.9-24.6-12.9-41.8c0-21.6,7.9-39.9,23.6-54.9
	c15.7-15,38.7-23.8,69.1-26.2V0h26.2v46.3c15.6,0.6,30.7,3,45.3,7.4c14.6,4.4,27.3,10.3,37.9,17.6l-13.5,32.8
	c-22.1-13.9-45.4-21.6-69.7-23v95.5c19.9,4.9,36.3,10,49.2,15.4c12.8,5.3,23.7,13.3,32.6,23.8c8.9,10.5,13.3,24.5,13.3,42
	C934.8,279.5,926.7,297.8,910.4,312.8z M774.5,153.8c9,6.6,22,12,39,16.4V81.6c-17.5,2.2-30.6,7.3-39.4,15.4
	c-8.8,8.1-13.1,17.8-13.1,29.3C761,138,765.5,147.2,774.5,153.8z M880.9,289.7c9.2-7.8,13.7-17.6,13.7-29.3c0-12-4.7-21.2-14.1-27.7
	c-9.4-6.4-23-12.1-40.8-17v88.1C858,302.2,871.7,297.5,880.9,289.7z"/>
</svg>
