<?xml version="1.0" encoding="utf-8"?>
<!-- Generator: Adobe Illustrator 21.1.0, SVG Export Plug-In . SVG Version: 6.00 Build 0)  -->
<svg version="1.1" id="Layer_1" xmlns="http://www.w3.org/2000/svg" xmlns:xlink="http://www.w3.org/1999/xlink" x="0px" y="0px"
	 viewBox="0 0 1058.2 385.4" style="enable-background:new 0 0 1058.2 385.4;" xml:space="preserve">
<g>
	<title>background</title>
</g>
<g>
	<path d="M41,84.9v100h143.9v35.3H41v116H0v-287h202.5v35.7H41z"/>
	<path d="M307.7,320.4c-23.1-12.7-41.2-30.2-54.3-52.5c-13.1-22.3-19.7-47.4-19.7-75.2s6.6-53,19.7-75.2
		c13.1-22.3,31.3-39.8,54.5-52.5c23.2-12.7,49.2-19.1,77.9-19.1c22.4,0,42.9,3.8,61.5,11.3c18.6,7.5,34.4,18.7,47.6,33.4l-26.6,25.8
		c-21.6-22.7-48.5-34-80.8-34c-21.3,0-40.6,4.8-57.8,14.4c-17.2,9.6-30.7,22.8-40.4,39.6c-9.7,16.8-14.6,35.6-14.6,56.4
		c0,20.8,4.8,39.6,14.6,56.4c9.7,16.8,23.2,30,40.4,39.6c17.2,9.6,36.5,14.4,57.8,14.4c32,0,58.9-11.5,80.8-34.4l26.6,25.8
		c-13.1,14.8-29,26-47.8,33.6c-18.7,7.7-39.3,11.5-61.7,11.5C356.7,339.5,330.8,333.1,307.7,320.4z"/>
	<path d="M594.5,84.9v100h143.9v35.3H594.5v116h-41v-287H756v35.7H594.5z"/>
	<path d="M983.6,264.5H831.1l-31.6,71.8h-42.2l130-287h40.6l130.4,287h-43L983.6,264.5z M969.2,231.7L907.3,91l-61.9,140.6H969.2z"
		/>
</g>
</svg>
