<?xml version="1.0" encoding="utf-8"?>
<!-- Generator: Adobe Illustrator 21.1.0, SVG Export Plug-In . SVG Version: 6.00 Build 0)  -->
<svg version="1.1" id="Layer_1" xmlns="http://www.w3.org/2000/svg" xmlns:xlink="http://www.w3.org/1999/xlink" x="0px" y="0px"
	 viewBox="0 0 824.5 385.4" style="enable-background:new 0 0 824.5 385.4;" xml:space="preserve">
<g>
	<title>background</title>
</g>
<g>
	<path d="M74,320.4c-23.1-12.7-41.2-30.2-54.3-52.5C6.6,245.7,0,220.6,0,192.7s6.6-53,19.7-75.2C32.8,95.2,51,77.7,74.2,65
		c23.2-12.7,49.2-19.1,77.9-19.1c22.4,0,42.9,3.8,61.5,11.3c18.6,7.5,34.4,18.7,47.6,33.4l-26.6,25.8c-21.6-22.7-48.5-34-80.8-34
		c-21.3,0-40.6,4.8-57.8,14.4c-17.2,9.6-30.7,22.8-40.4,39.6C45.8,153.1,41,171.9,41,192.7c0,20.8,4.8,39.6,14.6,56.4
		c9.7,16.8,23.2,30,40.4,39.6c17.2,9.6,36.5,14.4,57.8,14.4c32,0,58.9-11.5,80.8-34.4l26.6,25.8c-13.1,14.8-29,26-47.8,33.6
		c-18.7,7.7-39.3,11.5-61.7,11.5C123,339.5,97.1,333.1,74,320.4z"/>
	<path d="M360.8,84.9v100h143.9v35.3H360.8v116h-41v-287h202.5v35.7H360.8z"/>
	<path d="M749.9,264.5H597.4l-31.6,71.8h-42.2l130-287h40.6l130.4,287h-43L749.9,264.5z M735.5,231.7L673.6,91l-61.9,140.6H735.5z"
		/>
</g>
</svg>
