<?xml version="1.0" encoding="utf-8"?>
<!-- Generator: Adobe Illustrator 21.1.0, SVG Export Plug-In . SVG Version: 6.00 Build 0)  -->
<svg version="1.1" id="Capa_1" xmlns="http://www.w3.org/2000/svg" xmlns:xlink="http://www.w3.org/1999/xlink" x="0px" y="0px"
	 viewBox="0 0 816.3 385.4" style="enable-background:new 0 0 816.3 385.4;" xml:space="preserve">
<g>
	<path d="M154.6,237v99.2H114v-100L0,49.2h43.9l91.8,151.3L228,49.2h40.6L154.6,237z"/>
	<path d="M513.3,300.5v35.7H305v-287h202.5v35.7H346V173h143.9v34.9H346v92.7H513.3z"/>
	<path d="M771.6,336.2l-61.9-88.1c-7.7,0.6-13.7,0.8-18,0.8h-70.9v87.3h-41v-287h111.9c37.2,0,66.4,8.9,87.7,26.6
		c21.3,17.8,32,42.2,32,73.4c0,22.1-5.5,41-16.4,56.6c-10.9,15.6-26.5,26.9-46.7,34l68.1,96.4H771.6z M749.9,197.2
		c13.7-11.2,20.5-27.2,20.5-48c0-20.8-6.8-36.7-20.5-47.8c-13.7-11.1-33.5-16.6-59.5-16.6h-69.7V214h69.7
		C716.4,214,736.2,208.4,749.9,197.2z"/>
</g>
</svg>
