<?xml version="1.0" encoding="utf-8"?>
<!-- Generator: Adobe Illustrator 21.1.0, SVG Export Plug-In . SVG Version: 6.00 Build 0)  -->
<svg version="1.1" id="Layer_1" xmlns="http://www.w3.org/2000/svg" xmlns:xlink="http://www.w3.org/1999/xlink" x="0px" y="0px"
	 viewBox="0 0 317.6 385.2" style="enable-background:new 0 0 317.6 385.2;" xml:space="preserve">
<path d="M257.6,385.2l-83.1-118.3c-10.3,0.8-18.3,1.1-24.2,1.1H55v117.2H0V0h150.2c49.9,0,89.2,11.9,117.8,35.8
	c28.6,23.8,42.9,56.7,42.9,98.5c0,29.8-7.4,55-22,75.9c-14.7,20.9-35.6,36.1-62.7,45.7l91.4,129.4H257.6z M228.4,198.7
	c18.3-15.1,27.5-36.5,27.5-64.4s-9.2-49.2-27.5-64.1c-18.3-14.8-45-22.3-79.8-22.3H55v173.3h93.5C183.5,221.2,210,213.7,228.4,198.7
	z"/>
</svg>
